<?xml version="1.0" encoding="UTF-8" standalone="no"?>
<!DOCTYPE svg PUBLIC "-//W3C//DTD SVG 1.1//EN" "http://www.w3.org/Graphics/SVG/1.1/DTD/svg11.dtd">
<svg width="100%" height="100%" viewBox="0 0 128 128" version="1.1" xmlns="http://www.w3.org/2000/svg" xmlns:xlink="http://www.w3.org/1999/xlink" xml:space="preserve" xmlns:serif="http://www.serif.com/" style="fill-rule:evenodd;clip-rule:evenodd;stroke-linejoin:round;stroke-miterlimit:2;">
    <path id="A" d="M128,32C128,14.339 113.661,0 96,0L32,0C14.339,0 0,14.339 0,32L0,96C0,113.661 14.339,128 32,128L96,128C113.661,128 128,113.661 128,96L128,32Z" style="fill:rgb(212,192,168);"/>
    <path id="B" d="M128,32L128,96C128,113.661 113.661,128 96,128L32,128C14.339,128 0,113.661 0,96L0,32C0,14.339 14.339,0 32,0L96,0C113.661,0 128,14.339 128,32ZM63.692,8.705C50.055,17.584 35.176,24.518 19.747,29.968C19.747,29.968 19.066,35.771 18.352,40.518C16.451,53.188 13.275,65.672 9,77.727C9,77.727 13.099,82.166 16.495,86.045C24.758,95.474 32.308,105.507 39.33,115.858C39.33,115.858 45.22,115.397 50.066,115.122C62.901,114.408 75.769,114.815 88.538,116.309C88.538,116.309 91.604,111.551 94.242,107.738C101.593,97.122 109.945,87.254 119,78.067C119,78.067 116.615,71.606 114.989,66.21C111.473,54.463 109.407,42.32 108.385,30.045C108.385,30.045 102.791,28.199 98.286,26.452C86.231,21.782 74.714,15.749 63.813,8.694C63.813,8.694 63.802,8.628 63.692,8.705ZM63.714,64.177C72.824,73.012 81.901,85.254 88.923,97.858C86.56,99.749 84.275,101.946 82.286,104.837C79,104.331 75.813,104.694 72.659,105.298C67.956,90.76 64.22,76.056 63.714,64.177ZM63.714,64.177C52.22,61.1 38.846,55.144 25.67,47.408C26.934,44.452 27.978,41.419 28.209,38.111C31.462,36.793 34.099,35.034 36.451,33.133C47.231,42.716 57.055,53.364 63.714,64.177ZM63.714,64.177C70.363,53.364 80.374,42.716 91.154,33.133C93.505,35.034 96.154,36.793 99.407,38.111C99.626,41.419 100.67,44.452 101.934,47.408C88.769,55.144 75.198,61.1 63.714,64.177ZM63.714,64.177C76.319,62.694 90.736,63.463 104.945,65.979C104.923,69.012 105.176,72.166 106.154,75.54C103.692,77.771 101.967,80.474 100.44,83.298C86.198,77.76 73.242,71.276 63.714,64.177ZM63.714,64.177C63.198,76.056 59.659,90.76 54.945,105.298C51.791,104.694 48.604,104.331 45.319,104.837C43.33,101.946 41.044,99.749 38.681,97.858C45.703,85.254 54.593,73.012 63.714,64.177ZM63.714,64.177C58.692,51.694 56.341,38.243 54.769,24.815C57.901,24.034 61,22.99 63.714,21.232C63.802,21.287 63.901,21.342 63.989,21.408C66.615,22.902 69.451,23.99 72.385,24.749L72.659,24.815C71.549,38.309 68.593,51.573 63.714,64.177ZM63.714,64.177C54.176,71.276 41.418,77.76 27.176,83.298C25.637,80.474 23.912,77.771 21.451,75.54C22.429,72.166 22.692,69.012 22.659,65.979C36.868,63.463 51.099,62.694 63.714,64.177Z" style="fill:rgb(44,39,32);"/>
</svg>
