<?xml version="1.0" encoding="UTF-8" standalone="no"?>
<!DOCTYPE svg PUBLIC "-//W3C//DTD SVG 1.1//EN" "http://www.w3.org/Graphics/SVG/1.1/DTD/svg11.dtd">
<svg width="100%" height="100%" viewBox="0 0 50 50" version="1.1" xmlns="http://www.w3.org/2000/svg" xmlns:xlink="http://www.w3.org/1999/xlink" xml:space="preserve" xmlns:serif="http://www.serif.com/" style="fill-rule:evenodd;clip-rule:evenodd;stroke-linejoin:round;stroke-miterlimit:2;">
    <g transform="matrix(0.10142,0,0,0.10142,0,0)">
        <path d="M246.063,492.126C110.257,492.126 0,381.869 0,246.063C0,110.257 110.257,0 246.063,0C381.869,0 492.126,110.257 492.126,246.063C492.126,381.869 381.869,492.126 246.063,492.126ZM246.063,393.701C327.547,393.701 393.701,327.547 393.701,246.063C393.701,164.579 327.547,98.425 246.063,98.425C164.579,98.425 98.425,164.579 98.425,246.063C98.425,327.547 164.579,393.701 246.063,393.701Z" style="fill:rgb(213,117,94);"/>
        <path d="M0.499,261.839C0.168,256.622 0,251.362 0,246.063C0,240.764 0.168,235.504 0.499,230.287C6.144,230.525 10.594,235.243 10.472,240.918C10.435,242.629 10.417,244.344 10.417,246.063C10.417,247.782 10.435,249.497 10.472,251.208C10.594,256.883 6.144,261.601 0.499,261.839ZM12.909,167.262C18.298,168.955 21.371,174.664 19.784,180.112C18.828,183.393 17.941,186.703 17.126,190.04C15.78,195.553 10.266,198.963 4.752,197.739C6.829,187.329 9.563,177.155 12.909,167.262ZM41.3,109.64C46.064,112.675 47.548,118.988 44.597,123.837C42.818,126.761 41.1,129.728 39.446,132.734C36.71,137.707 30.498,139.563 25.493,136.944C30.187,127.482 35.472,118.365 41.3,109.64ZM83.614,61.305C87.437,65.465 87.245,71.947 83.146,75.873C80.669,78.245 78.244,80.669 75.873,83.146C71.947,87.245 65.465,87.437 61.305,83.615C68.259,75.712 75.712,68.259 83.614,61.305ZM136.944,25.493C139.563,30.498 137.707,36.71 132.734,39.446C129.728,41.1 126.761,42.818 123.837,44.597C118.988,47.548 112.675,46.064 109.64,41.3C118.365,35.472 127.482,30.187 136.944,25.493ZM197.739,4.752C198.964,10.266 195.554,15.78 190.041,17.126C186.703,17.941 183.393,18.828 180.112,19.783C174.664,21.371 168.955,18.297 167.262,12.909C177.155,9.563 187.329,6.829 197.739,4.752ZM261.839,0.499C261.601,6.144 256.883,10.594 251.208,10.472C249.497,10.435 247.782,10.417 246.063,10.417C244.344,10.417 242.629,10.435 240.918,10.472C235.243,10.594 230.525,6.144 230.287,0.499C235.504,0.168 240.764,0 246.063,0C251.362,0 256.622,0.168 261.839,0.499ZM324.864,12.909C323.171,18.298 317.462,21.371 312.014,19.784C308.733,18.828 305.423,17.941 302.086,17.126C296.573,15.78 293.163,10.266 294.387,4.752C304.797,6.829 314.971,9.563 324.864,12.909ZM382.486,41.3C379.451,46.064 373.138,47.548 368.289,44.597C365.365,42.818 362.398,41.1 359.392,39.446C354.419,36.71 352.563,30.498 355.182,25.493C364.644,30.187 373.761,35.472 382.486,41.3ZM430.821,83.614C426.661,87.437 420.179,87.245 416.253,83.146C413.881,80.669 411.457,78.244 408.98,75.873C404.881,71.947 404.689,65.465 408.511,61.305C416.414,68.259 423.867,75.712 430.821,83.614ZM466.633,136.944C461.628,139.563 455.416,137.707 452.68,132.734C451.026,129.728 449.308,126.761 447.529,123.837C444.578,118.988 446.062,112.675 450.826,109.64C456.654,118.365 461.939,127.482 466.633,136.944ZM487.374,197.739C481.86,198.964 476.346,195.554 475,190.041C474.185,186.703 473.298,183.393 472.342,180.112C470.755,174.664 473.829,168.955 479.217,167.262C482.563,177.155 485.297,187.329 487.374,197.739ZM491.627,261.839C485.982,261.601 481.532,256.883 481.654,251.208C481.691,249.497 481.709,247.782 481.709,246.063C481.709,244.344 481.691,242.629 481.654,240.918C481.532,235.243 485.982,230.525 491.627,230.287C491.958,235.504 492.126,240.764 492.126,246.063C492.126,251.362 491.958,256.622 491.627,261.839ZM479.217,324.864C473.828,323.171 470.755,317.462 472.342,312.014C473.298,308.733 474.184,305.423 475,302.086C476.346,296.573 481.86,293.163 487.374,294.387C485.297,304.797 482.563,314.971 479.217,324.864ZM450.826,382.486C446.062,379.451 444.578,373.138 447.529,368.289C449.308,365.365 451.026,362.398 452.68,359.392C455.416,354.419 461.628,352.563 466.633,355.182C461.939,364.644 456.654,373.761 450.826,382.486ZM408.512,430.821C404.689,426.661 404.881,420.179 408.98,416.253C411.457,413.881 413.882,411.457 416.253,408.98C420.179,404.881 426.661,404.689 430.821,408.511C423.867,416.414 416.414,423.867 408.512,430.821ZM355.182,466.633C352.563,461.628 354.419,455.416 359.392,452.68C362.398,451.026 365.365,449.308 368.289,447.529C373.138,444.578 379.451,446.062 382.486,450.826C373.761,456.654 364.644,461.939 355.182,466.633ZM294.387,487.374C293.162,481.86 296.572,476.346 302.085,475C305.423,474.185 308.733,473.298 312.014,472.342C317.462,470.755 323.17,473.829 324.864,479.217C314.971,482.563 304.797,485.297 294.387,487.374ZM230.287,491.627C230.525,485.982 235.243,481.532 240.918,481.654C242.629,481.691 244.344,481.709 246.063,481.709C247.782,481.709 249.497,481.691 251.208,481.654C256.883,481.532 261.601,485.982 261.839,491.627C256.622,491.958 251.362,492.126 246.063,492.126C240.764,492.126 235.504,491.958 230.287,491.627ZM167.262,479.217C168.955,473.828 174.664,470.755 180.112,472.342C183.393,473.298 186.703,474.184 190.04,475C195.553,476.346 198.963,481.86 197.739,487.374C187.329,485.297 177.155,482.563 167.262,479.217ZM109.64,450.826C112.675,446.062 118.988,444.578 123.837,447.529C126.761,449.308 129.728,451.026 132.734,452.68C137.707,455.416 139.563,461.628 136.944,466.633C127.482,461.939 118.365,456.654 109.64,450.826ZM61.305,408.512C65.465,404.689 71.947,404.881 75.873,408.98C78.245,411.457 80.669,413.882 83.146,416.253C87.245,420.179 87.437,426.661 83.615,430.821C75.712,423.867 68.259,416.414 61.305,408.512ZM25.493,355.182C30.498,352.563 36.71,354.419 39.446,359.392C41.1,362.398 42.818,365.365 44.597,368.289C47.548,373.138 46.064,379.451 41.3,382.486C35.472,373.761 30.187,364.644 25.493,355.182ZM4.752,294.387C10.266,293.162 15.78,296.572 17.126,302.085C17.941,305.423 18.828,308.733 19.783,312.014C21.371,317.462 18.297,323.17 12.909,324.864C9.563,314.971 6.829,304.797 4.752,294.387Z" style="fill:rgb(34,0,0);"/>
        <circle cx="246.063" cy="246.063" r="147.638" style="fill:rgb(213,117,94);"/>
        <g>
            <clipPath id="_clip1">
                <circle cx="246.063" cy="246.063" r="147.638"/>
            </clipPath>
            <g clip-path="url(#_clip1)">
                <g>
                    <g>
                        <g>
                            <path d="M25.362,-19.35L18.973,-10.504C17.908,-13.904 15.512,-16.484 11.786,-18.245C8.673,-19.719 5.069,-20.456 0.974,-20.456C-0.091,-20.456 -1.115,-20.395 -2.097,-20.272C-0.418,-21.623 1.261,-22.954 2.94,-24.265C4.496,-25.248 6.441,-25.739 8.776,-25.739C11.601,-25.739 14.55,-25.125 17.621,-23.896C20.57,-22.749 23.15,-21.234 25.362,-19.35ZM10.127,-4.73L4.598,3.809C3.656,1.433 0.749,0.246 -4.125,0.246C-6.213,0.246 -8.179,0.43 -10.022,0.799L-9.408,-3.501C-5.64,-5.631 -1.872,-6.696 1.895,-6.696C5.254,-6.696 7.997,-6.041 10.127,-4.73ZM26.897,17.569C21.164,23.016 14.161,25.739 5.888,25.739C-2.507,25.739 -9.408,23.753 -14.813,19.78C-20.874,15.357 -23.905,9.092 -23.905,0.983C-23.905,-5.201 -21.775,-10.853 -17.516,-15.972C-12.971,-21.418 -7.626,-24.183 -1.483,-24.265C-5.128,-21.275 -7.933,-17.589 -9.899,-13.207C-11.783,-8.989 -12.725,-4.464 -12.725,0.369C-12.725,6.593 -10.995,11.549 -7.534,15.235C-4.073,18.92 0.728,20.763 6.871,20.763C10.475,20.763 13.854,20.087 17.007,18.736C20.529,17.221 23.211,15.091 25.054,12.347L26.897,17.569Z" style="fill:rgb(186,20,25);fill-rule:nonzero;"/>
                        </g>
                        <g>
                            <path d="M123.188,-19.35L116.8,-10.504C115.735,-13.904 113.339,-16.484 109.612,-18.245C106.5,-19.719 102.896,-20.456 98.801,-20.456C97.736,-20.456 96.712,-20.395 95.729,-20.272C97.408,-21.623 99.087,-22.954 100.766,-24.265C102.323,-25.248 104.268,-25.739 106.602,-25.739C109.428,-25.739 112.377,-25.125 115.448,-23.896C118.397,-22.749 120.977,-21.234 123.188,-19.35ZM107.954,-4.73L102.425,3.809C101.483,1.433 98.575,0.246 93.702,0.246C91.613,0.246 89.648,0.43 87.805,0.799L88.419,-3.501C92.187,-5.631 95.955,-6.696 99.722,-6.696C103.08,-6.696 105.824,-6.041 107.954,-4.73ZM124.724,17.569C118.991,23.016 111.988,25.739 103.715,25.739C95.32,25.739 88.419,23.753 83.013,19.78C76.952,15.357 73.922,9.092 73.922,0.983C73.922,-5.201 76.051,-10.853 80.31,-15.972C84.856,-21.418 90.201,-24.183 96.344,-24.265C92.699,-21.275 89.893,-17.589 87.928,-13.207C86.044,-8.989 85.102,-4.464 85.102,0.369C85.102,6.593 86.832,11.549 90.293,15.235C93.753,18.92 98.555,20.763 104.698,20.763C108.302,20.763 111.68,20.087 114.834,18.736C118.356,17.221 121.038,15.091 122.881,12.347L124.724,17.569Z" style="fill:rgb(186,20,25);fill-rule:nonzero;"/>
                        </g>
                        <g>
                            <path d="M221.015,-19.35L214.626,-10.504C213.562,-13.904 211.166,-16.484 207.439,-18.245C204.327,-19.719 200.723,-20.456 196.627,-20.456C195.563,-20.456 194.539,-20.395 193.556,-20.272C195.235,-21.623 196.914,-22.954 198.593,-24.265C200.149,-25.248 202.095,-25.739 204.429,-25.739C207.255,-25.739 210.203,-25.125 213.275,-23.896C216.223,-22.749 218.804,-21.234 221.015,-19.35ZM205.78,-4.73L200.252,3.809C199.31,1.433 196.402,0.246 191.529,0.246C189.44,0.246 187.474,0.43 185.632,0.799L186.246,-3.501C190.014,-5.631 193.781,-6.696 197.549,-6.696C200.907,-6.696 203.651,-6.041 205.78,-4.73ZM222.551,17.569C216.817,23.016 209.814,25.739 201.542,25.739C193.146,25.739 186.246,23.753 180.84,19.78C174.779,15.357 171.749,9.092 171.749,0.983C171.749,-5.201 173.878,-10.853 178.137,-15.972C182.683,-21.418 188.027,-24.183 194.17,-24.265C190.525,-21.275 187.72,-17.589 185.754,-13.207C183.871,-8.989 182.929,-4.464 182.929,0.369C182.929,6.593 184.659,11.549 188.119,15.235C191.58,18.92 196.382,20.763 202.525,20.763C206.129,20.763 209.507,20.087 212.661,18.736C216.183,17.221 218.865,15.091 220.708,12.347L222.551,17.569Z" style="fill:rgb(186,20,25);fill-rule:nonzero;"/>
                        </g>
                        <g>
                            <path d="M318.842,-19.35L312.453,-10.504C311.388,-13.904 308.993,-16.484 305.266,-18.245C302.153,-19.719 298.55,-20.456 294.454,-20.456C293.389,-20.456 292.366,-20.395 291.383,-20.272C293.062,-21.623 294.741,-22.954 296.42,-24.265C297.976,-25.248 299.921,-25.739 302.256,-25.739C305.082,-25.739 308.03,-25.125 311.102,-23.896C314.05,-22.749 316.63,-21.234 318.842,-19.35ZM303.607,-4.73L298.079,3.809C297.137,1.433 294.229,0.246 289.356,0.246C287.267,0.246 285.301,0.43 283.458,0.799L284.073,-3.501C287.84,-5.631 291.608,-6.696 295.376,-6.696C298.734,-6.696 301.478,-6.041 303.607,-4.73ZM320.377,17.569C314.644,23.016 307.641,25.739 299.369,25.739C290.973,25.739 284.073,23.753 278.667,19.78C272.606,15.357 269.575,9.092 269.575,0.983C269.575,-5.201 271.705,-10.853 275.964,-15.972C280.51,-21.418 285.854,-24.183 291.997,-24.265C288.352,-21.275 285.547,-17.589 283.581,-13.207C281.697,-8.989 280.755,-4.464 280.755,0.369C280.755,6.593 282.486,11.549 285.946,15.235C289.407,18.92 294.208,20.763 300.351,20.763C303.955,20.763 307.334,20.087 310.487,18.736C314.009,17.221 316.692,15.091 318.535,12.347L320.377,17.569Z" style="fill:rgb(186,20,25);fill-rule:nonzero;"/>
                        </g>
                        <g>
                            <path d="M416.668,-19.35L410.28,-10.504C409.215,-13.904 406.819,-16.484 403.093,-18.245C399.98,-19.719 396.376,-20.456 392.281,-20.456C391.216,-20.456 390.192,-20.395 389.209,-20.272C390.889,-21.623 392.568,-22.954 394.247,-24.265C395.803,-25.248 397.748,-25.739 400.082,-25.739C402.908,-25.739 405.857,-25.125 408.928,-23.896C411.877,-22.749 414.457,-21.234 416.668,-19.35ZM401.434,-4.73L395.905,3.809C394.963,1.433 392.056,0.246 387.182,0.246C385.094,0.246 383.128,0.43 381.285,0.799L381.899,-3.501C385.667,-5.631 389.435,-6.696 393.202,-6.696C396.561,-6.696 399.304,-6.041 401.434,-4.73ZM418.204,17.569C412.471,23.016 405.468,25.739 397.195,25.739C388.8,25.739 381.899,23.753 376.494,19.78C370.433,15.357 367.402,9.092 367.402,0.983C367.402,-5.201 369.532,-10.853 373.791,-15.972C378.336,-21.418 383.681,-24.183 389.824,-24.265C386.179,-21.275 383.374,-17.589 381.408,-13.207C379.524,-8.989 378.582,-4.464 378.582,0.369C378.582,6.593 380.312,11.549 383.773,15.235C387.233,18.92 392.035,20.763 398.178,20.763C401.782,20.763 405.161,20.087 408.314,18.736C411.836,17.221 414.518,15.091 416.361,12.347L418.204,17.569Z" style="fill:rgb(186,20,25);fill-rule:nonzero;"/>
                        </g>
                        <g>
                            <path d="M514.495,-19.35L508.107,-10.504C507.042,-13.904 504.646,-16.484 500.919,-18.245C497.807,-19.719 494.203,-20.456 490.108,-20.456C489.043,-20.456 488.019,-20.395 487.036,-20.272C488.715,-21.623 490.394,-22.954 492.073,-24.265C493.63,-25.248 495.575,-25.739 497.909,-25.739C500.735,-25.739 503.684,-25.125 506.755,-23.896C509.704,-22.749 512.284,-21.234 514.495,-19.35ZM499.261,-4.73L493.732,3.809C492.79,1.433 489.882,0.246 485.009,0.246C482.92,0.246 480.955,0.43 479.112,0.799L479.726,-3.501C483.494,-5.631 487.261,-6.696 491.029,-6.696C494.387,-6.696 497.131,-6.041 499.261,-4.73ZM516.031,17.569C510.298,23.016 503.295,25.739 495.022,25.739C486.627,25.739 479.726,23.753 474.32,19.78C468.259,15.357 465.229,9.092 465.229,0.983C465.229,-5.201 467.358,-10.853 471.617,-15.972C476.163,-21.418 481.508,-24.183 487.651,-24.265C484.006,-21.275 481.2,-17.589 479.235,-13.207C477.351,-8.989 476.409,-4.464 476.409,0.369C476.409,6.593 478.139,11.549 481.6,15.235C485.06,18.92 489.862,20.763 496.005,20.763C499.609,20.763 502.987,20.087 506.141,18.736C509.663,17.221 512.345,15.091 514.188,12.347L516.031,17.569Z" style="fill:rgb(186,20,25);fill-rule:nonzero;"/>
                        </g>
                    </g>
                    <g>
                        <g>
                            <path d="M25.362,79.075L18.973,87.921C17.908,84.522 15.512,81.942 11.786,80.181C8.673,78.706 5.069,77.969 0.974,77.969C-0.091,77.969 -1.115,78.031 -2.097,78.153C-0.418,76.802 1.261,75.471 2.94,74.161C4.496,73.178 6.441,72.686 8.776,72.686C11.601,72.686 14.55,73.301 17.621,74.529C20.57,75.676 23.15,77.191 25.362,79.075ZM10.127,93.695L4.598,102.234C3.656,99.859 0.749,98.671 -4.125,98.671C-6.213,98.671 -8.179,98.855 -10.022,99.224L-9.408,94.924C-5.64,92.794 -1.872,91.729 1.895,91.729C5.254,91.729 7.997,92.385 10.127,93.695ZM26.897,115.994C21.164,121.441 14.161,124.164 5.888,124.164C-2.507,124.164 -9.408,122.178 -14.813,118.206C-20.874,113.783 -23.905,107.517 -23.905,99.408C-23.905,93.224 -21.775,87.573 -17.516,82.454C-12.971,77.007 -7.626,74.242 -1.483,74.161C-5.128,77.15 -7.933,80.836 -9.899,85.218C-11.783,89.436 -12.725,93.961 -12.725,98.794C-12.725,105.019 -10.995,109.974 -7.534,113.66C-4.073,117.345 0.728,119.188 6.871,119.188C10.475,119.188 13.854,118.513 17.007,117.161C20.529,115.646 23.211,113.516 25.054,110.773L26.897,115.994Z" style="fill:rgb(186,20,25);fill-rule:nonzero;"/>
                        </g>
                        <g>
                            <path d="M123.188,79.075L116.8,87.921C115.735,84.522 113.339,81.942 109.612,80.181C106.5,78.706 102.896,77.969 98.801,77.969C97.736,77.969 96.712,78.031 95.729,78.153C97.408,76.802 99.087,75.471 100.766,74.161C102.323,73.178 104.268,72.686 106.602,72.686C109.428,72.686 112.377,73.301 115.448,74.529C118.397,75.676 120.977,77.191 123.188,79.075ZM107.954,93.695L102.425,102.234C101.483,99.859 98.575,98.671 93.702,98.671C91.613,98.671 89.648,98.855 87.805,99.224L88.419,94.924C92.187,92.794 95.955,91.729 99.722,91.729C103.08,91.729 105.824,92.385 107.954,93.695ZM124.724,115.994C118.991,121.441 111.988,124.164 103.715,124.164C95.32,124.164 88.419,122.178 83.013,118.206C76.952,113.783 73.922,107.517 73.922,99.408C73.922,93.224 76.051,87.573 80.31,82.454C84.856,77.007 90.201,74.242 96.344,74.161C92.699,77.15 89.893,80.836 87.928,85.218C86.044,89.436 85.102,93.961 85.102,98.794C85.102,105.019 86.832,109.974 90.293,113.66C93.753,117.345 98.555,119.188 104.698,119.188C108.302,119.188 111.68,118.513 114.834,117.161C118.356,115.646 121.038,113.516 122.881,110.773L124.724,115.994Z" style="fill:rgb(186,20,25);fill-rule:nonzero;"/>
                        </g>
                        <g>
                            <path d="M221.015,79.075L214.626,87.921C213.562,84.522 211.166,81.942 207.439,80.181C204.327,78.706 200.723,77.969 196.627,77.969C195.563,77.969 194.539,78.031 193.556,78.153C195.235,76.802 196.914,75.471 198.593,74.161C200.149,73.178 202.095,72.686 204.429,72.686C207.255,72.686 210.203,73.301 213.275,74.529C216.223,75.676 218.804,77.191 221.015,79.075ZM205.78,93.695L200.252,102.234C199.31,99.859 196.402,98.671 191.529,98.671C189.44,98.671 187.474,98.855 185.632,99.224L186.246,94.924C190.014,92.794 193.781,91.729 197.549,91.729C200.907,91.729 203.651,92.385 205.78,93.695ZM222.551,115.994C216.817,121.441 209.814,124.164 201.542,124.164C193.146,124.164 186.246,122.178 180.84,118.206C174.779,113.783 171.749,107.517 171.749,99.408C171.749,93.224 173.878,87.573 178.137,82.454C182.683,77.007 188.027,74.242 194.17,74.161C190.525,77.15 187.72,80.836 185.754,85.218C183.871,89.436 182.929,93.961 182.929,98.794C182.929,105.019 184.659,109.974 188.119,113.66C191.58,117.345 196.382,119.188 202.525,119.188C206.129,119.188 209.507,118.513 212.661,117.161C216.183,115.646 218.865,113.516 220.708,110.773L222.551,115.994Z" style="fill:rgb(186,20,25);fill-rule:nonzero;"/>
                        </g>
                        <g>
                            <path d="M318.842,79.075L312.453,87.921C311.388,84.522 308.993,81.942 305.266,80.181C302.153,78.706 298.55,77.969 294.454,77.969C293.389,77.969 292.366,78.031 291.383,78.153C293.062,76.802 294.741,75.471 296.42,74.161C297.976,73.178 299.921,72.686 302.256,72.686C305.082,72.686 308.03,73.301 311.102,74.529C314.05,75.676 316.63,77.191 318.842,79.075ZM303.607,93.695L298.079,102.234C297.137,99.859 294.229,98.671 289.356,98.671C287.267,98.671 285.301,98.855 283.458,99.224L284.073,94.924C287.84,92.794 291.608,91.729 295.376,91.729C298.734,91.729 301.478,92.385 303.607,93.695ZM320.377,115.994C314.644,121.441 307.641,124.164 299.369,124.164C290.973,124.164 284.073,122.178 278.667,118.206C272.606,113.783 269.575,107.517 269.575,99.408C269.575,93.224 271.705,87.573 275.964,82.454C280.51,77.007 285.854,74.242 291.997,74.161C288.352,77.15 285.547,80.836 283.581,85.218C281.697,89.436 280.755,93.961 280.755,98.794C280.755,105.019 282.486,109.974 285.946,113.66C289.407,117.345 294.208,119.188 300.351,119.188C303.955,119.188 307.334,118.513 310.487,117.161C314.009,115.646 316.692,113.516 318.535,110.773L320.377,115.994Z" style="fill:rgb(186,20,25);fill-rule:nonzero;"/>
                        </g>
                        <g>
                            <path d="M416.668,79.075L410.28,87.921C409.215,84.522 406.819,81.942 403.093,80.181C399.98,78.706 396.376,77.969 392.281,77.969C391.216,77.969 390.192,78.031 389.209,78.153C390.889,76.802 392.568,75.471 394.247,74.161C395.803,73.178 397.748,72.686 400.082,72.686C402.908,72.686 405.857,73.301 408.928,74.529C411.877,75.676 414.457,77.191 416.668,79.075ZM401.434,93.695L395.905,102.234C394.963,99.859 392.056,98.671 387.182,98.671C385.094,98.671 383.128,98.855 381.285,99.224L381.899,94.924C385.667,92.794 389.435,91.729 393.202,91.729C396.561,91.729 399.304,92.385 401.434,93.695ZM418.204,115.994C412.471,121.441 405.468,124.164 397.195,124.164C388.8,124.164 381.899,122.178 376.494,118.206C370.433,113.783 367.402,107.517 367.402,99.408C367.402,93.224 369.532,87.573 373.791,82.454C378.336,77.007 383.681,74.242 389.824,74.161C386.179,77.15 383.374,80.836 381.408,85.218C379.524,89.436 378.582,93.961 378.582,98.794C378.582,105.019 380.312,109.974 383.773,113.66C387.233,117.345 392.035,119.188 398.178,119.188C401.782,119.188 405.161,118.513 408.314,117.161C411.836,115.646 414.518,113.516 416.361,110.773L418.204,115.994Z" style="fill:rgb(186,20,25);fill-rule:nonzero;"/>
                        </g>
                        <g>
                            <path d="M514.495,79.075L508.107,87.921C507.042,84.522 504.646,81.942 500.919,80.181C497.807,78.706 494.203,77.969 490.108,77.969C489.043,77.969 488.019,78.031 487.036,78.153C488.715,76.802 490.394,75.471 492.073,74.161C493.63,73.178 495.575,72.686 497.909,72.686C500.735,72.686 503.684,73.301 506.755,74.529C509.704,75.676 512.284,77.191 514.495,79.075ZM499.261,93.695L493.732,102.234C492.79,99.859 489.882,98.671 485.009,98.671C482.92,98.671 480.955,98.855 479.112,99.224L479.726,94.924C483.494,92.794 487.261,91.729 491.029,91.729C494.387,91.729 497.131,92.385 499.261,93.695ZM516.031,115.994C510.298,121.441 503.295,124.164 495.022,124.164C486.627,124.164 479.726,122.178 474.32,118.206C468.259,113.783 465.229,107.517 465.229,99.408C465.229,93.224 467.358,87.573 471.617,82.454C476.163,77.007 481.508,74.242 487.651,74.161C484.006,77.15 481.2,80.836 479.235,85.218C477.351,89.436 476.409,93.961 476.409,98.794C476.409,105.019 478.139,109.974 481.6,113.66C485.06,117.345 489.862,119.188 496.005,119.188C499.609,119.188 502.987,118.513 506.141,117.161C509.663,115.646 512.345,113.516 514.188,110.773L516.031,115.994Z" style="fill:rgb(186,20,25);fill-rule:nonzero;"/>
                        </g>
                    </g>
                    <g>
                        <g>
                            <path d="M25.362,177.5L18.973,186.346C17.908,182.947 15.512,180.367 11.786,178.606C8.673,177.132 5.069,176.394 0.974,176.394C-0.091,176.394 -1.115,176.456 -2.097,176.579C-0.418,175.227 1.261,173.896 2.94,172.586C4.496,171.603 6.441,171.111 8.776,171.111C11.601,171.111 14.55,171.726 17.621,172.954C20.57,174.101 23.15,175.616 25.362,177.5ZM10.127,192.12L4.598,200.659C3.656,198.284 0.749,197.096 -4.125,197.096C-6.213,197.096 -8.179,197.28 -10.022,197.649L-9.408,193.349C-5.64,191.219 -1.872,190.155 1.895,190.155C5.254,190.155 7.997,190.81 10.127,192.12ZM26.897,214.419C21.164,219.866 14.161,222.589 5.888,222.589C-2.507,222.589 -9.408,220.603 -14.813,216.631C-20.874,212.208 -23.905,205.942 -23.905,197.833C-23.905,191.649 -21.775,185.998 -17.516,180.879C-12.971,175.432 -7.626,172.668 -1.483,172.586C-5.128,175.575 -7.933,179.261 -9.899,183.643C-11.783,187.861 -12.725,192.387 -12.725,197.219C-12.725,203.444 -10.995,208.399 -7.534,212.085C-4.073,215.771 0.728,217.614 6.871,217.614C10.475,217.614 13.854,216.938 17.007,215.586C20.529,214.071 23.211,211.942 25.054,209.198L26.897,214.419Z" style="fill:rgb(186,20,25);fill-rule:nonzero;"/>
                        </g>
                        <g>
                            <path d="M123.188,177.5L116.8,186.346C115.735,182.947 113.339,180.367 109.612,178.606C106.5,177.132 102.896,176.394 98.801,176.394C97.736,176.394 96.712,176.456 95.729,176.579C97.408,175.227 99.087,173.896 100.766,172.586C102.323,171.603 104.268,171.111 106.602,171.111C109.428,171.111 112.377,171.726 115.448,172.954C118.397,174.101 120.977,175.616 123.188,177.5ZM107.954,192.12L102.425,200.659C101.483,198.284 98.575,197.096 93.702,197.096C91.613,197.096 89.648,197.28 87.805,197.649L88.419,193.349C92.187,191.219 95.955,190.155 99.722,190.155C103.08,190.155 105.824,190.81 107.954,192.12ZM124.724,214.419C118.991,219.866 111.988,222.589 103.715,222.589C95.32,222.589 88.419,220.603 83.013,216.631C76.952,212.208 73.922,205.942 73.922,197.833C73.922,191.649 76.051,185.998 80.31,180.879C84.856,175.432 90.201,172.668 96.344,172.586C92.699,175.575 89.893,179.261 87.928,183.643C86.044,187.861 85.102,192.387 85.102,197.219C85.102,203.444 86.832,208.399 90.293,212.085C93.753,215.771 98.555,217.614 104.698,217.614C108.302,217.614 111.68,216.938 114.834,215.586C118.356,214.071 121.038,211.942 122.881,209.198L124.724,214.419Z" style="fill:rgb(186,20,25);fill-rule:nonzero;"/>
                        </g>
                        <g>
                            <path d="M221.015,177.5L214.626,186.346C213.562,182.947 211.166,180.367 207.439,178.606C204.327,177.132 200.723,176.394 196.627,176.394C195.563,176.394 194.539,176.456 193.556,176.579C195.235,175.227 196.914,173.896 198.593,172.586C200.149,171.603 202.095,171.111 204.429,171.111C207.255,171.111 210.203,171.726 213.275,172.954C216.223,174.101 218.804,175.616 221.015,177.5ZM205.78,192.12L200.252,200.659C199.31,198.284 196.402,197.096 191.529,197.096C189.44,197.096 187.474,197.28 185.632,197.649L186.246,193.349C190.014,191.219 193.781,190.155 197.549,190.155C200.907,190.155 203.651,190.81 205.78,192.12ZM222.551,214.419C216.817,219.866 209.814,222.589 201.542,222.589C193.146,222.589 186.246,220.603 180.84,216.631C174.779,212.208 171.749,205.942 171.749,197.833C171.749,191.649 173.878,185.998 178.137,180.879C182.683,175.432 188.027,172.668 194.17,172.586C190.525,175.575 187.72,179.261 185.754,183.643C183.871,187.861 182.929,192.387 182.929,197.219C182.929,203.444 184.659,208.399 188.119,212.085C191.58,215.771 196.382,217.614 202.525,217.614C206.129,217.614 209.507,216.938 212.661,215.586C216.183,214.071 218.865,211.942 220.708,209.198L222.551,214.419Z" style="fill:rgb(186,20,25);fill-rule:nonzero;"/>
                        </g>
                        <g>
                            <path d="M318.842,177.5L312.453,186.346C311.388,182.947 308.993,180.367 305.266,178.606C302.153,177.132 298.55,176.394 294.454,176.394C293.389,176.394 292.366,176.456 291.383,176.579C293.062,175.227 294.741,173.896 296.42,172.586C297.976,171.603 299.921,171.111 302.256,171.111C305.082,171.111 308.03,171.726 311.102,172.954C314.05,174.101 316.63,175.616 318.842,177.5ZM303.607,192.12L298.079,200.659C297.137,198.284 294.229,197.096 289.356,197.096C287.267,197.096 285.301,197.28 283.458,197.649L284.073,193.349C287.84,191.219 291.608,190.155 295.376,190.155C298.734,190.155 301.478,190.81 303.607,192.12ZM320.377,214.419C314.644,219.866 307.641,222.589 299.369,222.589C290.973,222.589 284.073,220.603 278.667,216.631C272.606,212.208 269.575,205.942 269.575,197.833C269.575,191.649 271.705,185.998 275.964,180.879C280.51,175.432 285.854,172.668 291.997,172.586C288.352,175.575 285.547,179.261 283.581,183.643C281.697,187.861 280.755,192.387 280.755,197.219C280.755,203.444 282.486,208.399 285.946,212.085C289.407,215.771 294.208,217.614 300.351,217.614C303.955,217.614 307.334,216.938 310.487,215.586C314.009,214.071 316.692,211.942 318.535,209.198L320.377,214.419Z" style="fill:rgb(186,20,25);fill-rule:nonzero;"/>
                        </g>
                        <g>
                            <path d="M416.668,177.5L410.28,186.346C409.215,182.947 406.819,180.367 403.093,178.606C399.98,177.132 396.376,176.394 392.281,176.394C391.216,176.394 390.192,176.456 389.209,176.579C390.889,175.227 392.568,173.896 394.247,172.586C395.803,171.603 397.748,171.111 400.082,171.111C402.908,171.111 405.857,171.726 408.928,172.954C411.877,174.101 414.457,175.616 416.668,177.5ZM401.434,192.12L395.905,200.659C394.963,198.284 392.056,197.096 387.182,197.096C385.094,197.096 383.128,197.28 381.285,197.649L381.899,193.349C385.667,191.219 389.435,190.155 393.202,190.155C396.561,190.155 399.304,190.81 401.434,192.12ZM418.204,214.419C412.471,219.866 405.468,222.589 397.195,222.589C388.8,222.589 381.899,220.603 376.494,216.631C370.433,212.208 367.402,205.942 367.402,197.833C367.402,191.649 369.532,185.998 373.791,180.879C378.336,175.432 383.681,172.668 389.824,172.586C386.179,175.575 383.374,179.261 381.408,183.643C379.524,187.861 378.582,192.387 378.582,197.219C378.582,203.444 380.312,208.399 383.773,212.085C387.233,215.771 392.035,217.614 398.178,217.614C401.782,217.614 405.161,216.938 408.314,215.586C411.836,214.071 414.518,211.942 416.361,209.198L418.204,214.419Z" style="fill:rgb(186,20,25);fill-rule:nonzero;"/>
                        </g>
                        <g>
                            <path d="M514.495,177.5L508.107,186.346C507.042,182.947 504.646,180.367 500.919,178.606C497.807,177.132 494.203,176.394 490.108,176.394C489.043,176.394 488.019,176.456 487.036,176.579C488.715,175.227 490.394,173.896 492.073,172.586C493.63,171.603 495.575,171.111 497.909,171.111C500.735,171.111 503.684,171.726 506.755,172.954C509.704,174.101 512.284,175.616 514.495,177.5ZM499.261,192.12L493.732,200.659C492.79,198.284 489.882,197.096 485.009,197.096C482.92,197.096 480.955,197.28 479.112,197.649L479.726,193.349C483.494,191.219 487.261,190.155 491.029,190.155C494.387,190.155 497.131,190.81 499.261,192.12ZM516.031,214.419C510.298,219.866 503.295,222.589 495.022,222.589C486.627,222.589 479.726,220.603 474.32,216.631C468.259,212.208 465.229,205.942 465.229,197.833C465.229,191.649 467.358,185.998 471.617,180.879C476.163,175.432 481.508,172.668 487.651,172.586C484.006,175.575 481.2,179.261 479.235,183.643C477.351,187.861 476.409,192.387 476.409,197.219C476.409,203.444 478.139,208.399 481.6,212.085C485.06,215.771 489.862,217.614 496.005,217.614C499.609,217.614 502.987,216.938 506.141,215.586C509.663,214.071 512.345,211.942 514.188,209.198L516.031,214.419Z" style="fill:rgb(186,20,25);fill-rule:nonzero;"/>
                        </g>
                    </g>
                    <g>
                        <g>
                            <path d="M25.362,275.925L18.973,284.771C17.908,281.372 15.512,278.792 11.786,277.031C8.673,275.557 5.069,274.82 0.974,274.82C-0.091,274.82 -1.115,274.881 -2.097,275.004C-0.418,273.652 1.261,272.321 2.94,271.011C4.496,270.028 6.441,269.537 8.776,269.537C11.601,269.537 14.55,270.151 17.621,271.379C20.57,272.526 23.15,274.041 25.362,275.925ZM10.127,290.546L4.598,299.084C3.656,296.709 0.749,295.521 -4.125,295.521C-6.213,295.521 -8.179,295.706 -10.022,296.074L-9.408,291.774C-5.64,289.645 -1.872,288.58 1.895,288.58C5.254,288.58 7.997,289.235 10.127,290.546ZM26.897,312.844C21.164,318.291 14.161,321.015 5.888,321.015C-2.507,321.015 -9.408,319.028 -14.813,315.056C-20.874,310.633 -23.905,304.367 -23.905,296.258C-23.905,290.075 -21.775,284.423 -17.516,279.304C-12.971,273.857 -7.626,271.093 -1.483,271.011C-5.128,274 -7.933,277.686 -9.899,282.068C-11.783,286.286 -12.725,290.812 -12.725,295.644C-12.725,301.869 -10.995,306.824 -7.534,310.51C-4.073,314.196 0.728,316.039 6.871,316.039C10.475,316.039 13.854,315.363 17.007,314.012C20.529,312.496 23.211,310.367 25.054,307.623L26.897,312.844Z" style="fill:rgb(186,20,25);fill-rule:nonzero;"/>
                        </g>
                        <g>
                            <path d="M123.188,275.925L116.8,284.771C115.735,281.372 113.339,278.792 109.612,277.031C106.5,275.557 102.896,274.82 98.801,274.82C97.736,274.82 96.712,274.881 95.729,275.004C97.408,273.652 99.087,272.321 100.766,271.011C102.323,270.028 104.268,269.537 106.602,269.537C109.428,269.537 112.377,270.151 115.448,271.379C118.397,272.526 120.977,274.041 123.188,275.925ZM107.954,290.546L102.425,299.084C101.483,296.709 98.575,295.521 93.702,295.521C91.613,295.521 89.648,295.706 87.805,296.074L88.419,291.774C92.187,289.645 95.955,288.58 99.722,288.58C103.08,288.58 105.824,289.235 107.954,290.546ZM124.724,312.844C118.991,318.291 111.988,321.015 103.715,321.015C95.32,321.015 88.419,319.028 83.013,315.056C76.952,310.633 73.922,304.367 73.922,296.258C73.922,290.075 76.051,284.423 80.31,279.304C84.856,273.857 90.201,271.093 96.344,271.011C92.699,274 89.893,277.686 87.928,282.068C86.044,286.286 85.102,290.812 85.102,295.644C85.102,301.869 86.832,306.824 90.293,310.51C93.753,314.196 98.555,316.039 104.698,316.039C108.302,316.039 111.68,315.363 114.834,314.012C118.356,312.496 121.038,310.367 122.881,307.623L124.724,312.844Z" style="fill:rgb(186,20,25);fill-rule:nonzero;"/>
                        </g>
                        <g>
                            <path d="M221.015,275.925L214.626,284.771C213.562,281.372 211.166,278.792 207.439,277.031C204.327,275.557 200.723,274.82 196.627,274.82C195.563,274.82 194.539,274.881 193.556,275.004C195.235,273.652 196.914,272.321 198.593,271.011C200.149,270.028 202.095,269.537 204.429,269.537C207.255,269.537 210.203,270.151 213.275,271.379C216.223,272.526 218.804,274.041 221.015,275.925ZM205.78,290.546L200.252,299.084C199.31,296.709 196.402,295.521 191.529,295.521C189.44,295.521 187.474,295.706 185.632,296.074L186.246,291.774C190.014,289.645 193.781,288.58 197.549,288.58C200.907,288.58 203.651,289.235 205.78,290.546ZM222.551,312.844C216.817,318.291 209.814,321.015 201.542,321.015C193.146,321.015 186.246,319.028 180.84,315.056C174.779,310.633 171.749,304.367 171.749,296.258C171.749,290.075 173.878,284.423 178.137,279.304C182.683,273.857 188.027,271.093 194.17,271.011C190.525,274 187.72,277.686 185.754,282.068C183.871,286.286 182.929,290.812 182.929,295.644C182.929,301.869 184.659,306.824 188.119,310.51C191.58,314.196 196.382,316.039 202.525,316.039C206.129,316.039 209.507,315.363 212.661,314.012C216.183,312.496 218.865,310.367 220.708,307.623L222.551,312.844Z" style="fill:rgb(186,20,25);fill-rule:nonzero;"/>
                        </g>
                        <g>
                            <path d="M318.842,275.925L312.453,284.771C311.388,281.372 308.993,278.792 305.266,277.031C302.153,275.557 298.55,274.82 294.454,274.82C293.389,274.82 292.366,274.881 291.383,275.004C293.062,273.652 294.741,272.321 296.42,271.011C297.976,270.028 299.921,269.537 302.256,269.537C305.082,269.537 308.03,270.151 311.102,271.379C314.05,272.526 316.63,274.041 318.842,275.925ZM303.607,290.546L298.079,299.084C297.137,296.709 294.229,295.521 289.356,295.521C287.267,295.521 285.301,295.706 283.458,296.074L284.073,291.774C287.84,289.645 291.608,288.58 295.376,288.58C298.734,288.58 301.478,289.235 303.607,290.546ZM320.377,312.844C314.644,318.291 307.641,321.015 299.369,321.015C290.973,321.015 284.073,319.028 278.667,315.056C272.606,310.633 269.575,304.367 269.575,296.258C269.575,290.075 271.705,284.423 275.964,279.304C280.51,273.857 285.854,271.093 291.997,271.011C288.352,274 285.547,277.686 283.581,282.068C281.697,286.286 280.755,290.812 280.755,295.644C280.755,301.869 282.486,306.824 285.946,310.51C289.407,314.196 294.208,316.039 300.351,316.039C303.955,316.039 307.334,315.363 310.487,314.012C314.009,312.496 316.692,310.367 318.535,307.623L320.377,312.844Z" style="fill:rgb(186,20,25);fill-rule:nonzero;"/>
                        </g>
                        <g>
                            <path d="M416.668,275.925L410.28,284.771C409.215,281.372 406.819,278.792 403.093,277.031C399.98,275.557 396.376,274.82 392.281,274.82C391.216,274.82 390.192,274.881 389.209,275.004C390.889,273.652 392.568,272.321 394.247,271.011C395.803,270.028 397.748,269.537 400.082,269.537C402.908,269.537 405.857,270.151 408.928,271.379C411.877,272.526 414.457,274.041 416.668,275.925ZM401.434,290.546L395.905,299.084C394.963,296.709 392.056,295.521 387.182,295.521C385.094,295.521 383.128,295.706 381.285,296.074L381.899,291.774C385.667,289.645 389.435,288.58 393.202,288.58C396.561,288.58 399.304,289.235 401.434,290.546ZM418.204,312.844C412.471,318.291 405.468,321.015 397.195,321.015C388.8,321.015 381.899,319.028 376.494,315.056C370.433,310.633 367.402,304.367 367.402,296.258C367.402,290.075 369.532,284.423 373.791,279.304C378.336,273.857 383.681,271.093 389.824,271.011C386.179,274 383.374,277.686 381.408,282.068C379.524,286.286 378.582,290.812 378.582,295.644C378.582,301.869 380.312,306.824 383.773,310.51C387.233,314.196 392.035,316.039 398.178,316.039C401.782,316.039 405.161,315.363 408.314,314.012C411.836,312.496 414.518,310.367 416.361,307.623L418.204,312.844Z" style="fill:rgb(186,20,25);fill-rule:nonzero;"/>
                        </g>
                        <g>
                            <path d="M514.495,275.925L508.107,284.771C507.042,281.372 504.646,278.792 500.919,277.031C497.807,275.557 494.203,274.82 490.108,274.82C489.043,274.82 488.019,274.881 487.036,275.004C488.715,273.652 490.394,272.321 492.073,271.011C493.63,270.028 495.575,269.537 497.909,269.537C500.735,269.537 503.684,270.151 506.755,271.379C509.704,272.526 512.284,274.041 514.495,275.925ZM499.261,290.546L493.732,299.084C492.79,296.709 489.882,295.521 485.009,295.521C482.92,295.521 480.955,295.706 479.112,296.074L479.726,291.774C483.494,289.645 487.261,288.58 491.029,288.58C494.387,288.58 497.131,289.235 499.261,290.546ZM516.031,312.844C510.298,318.291 503.295,321.015 495.022,321.015C486.627,321.015 479.726,319.028 474.32,315.056C468.259,310.633 465.229,304.367 465.229,296.258C465.229,290.075 467.358,284.423 471.617,279.304C476.163,273.857 481.508,271.093 487.651,271.011C484.006,274 481.2,277.686 479.235,282.068C477.351,286.286 476.409,290.812 476.409,295.644C476.409,301.869 478.139,306.824 481.6,310.51C485.06,314.196 489.862,316.039 496.005,316.039C499.609,316.039 502.987,315.363 506.141,314.012C509.663,312.496 512.345,310.367 514.188,307.623L516.031,312.844Z" style="fill:rgb(186,20,25);fill-rule:nonzero;"/>
                        </g>
                    </g>
                    <g>
                        <g>
                            <path d="M25.362,374.35L18.973,383.196C17.908,379.797 15.512,377.217 11.786,375.456C8.673,373.982 5.069,373.245 0.974,373.245C-0.091,373.245 -1.115,373.306 -2.097,373.429C-0.418,372.078 1.261,370.747 2.94,369.436C4.496,368.453 6.441,367.962 8.776,367.962C11.601,367.962 14.55,368.576 17.621,369.805C20.57,370.951 23.15,372.467 25.362,374.35ZM10.127,388.971L4.598,397.509C3.656,395.134 0.749,393.947 -4.125,393.947C-6.213,393.947 -8.179,394.131 -10.022,394.499L-9.408,390.199C-5.64,388.07 -1.872,387.005 1.895,387.005C5.254,387.005 7.997,387.66 10.127,388.971ZM26.897,411.27C21.164,416.716 14.161,419.44 5.888,419.44C-2.507,419.44 -9.408,417.454 -14.813,413.481C-20.874,409.058 -23.905,402.792 -23.905,394.684C-23.905,388.5 -21.775,382.848 -17.516,377.729C-12.971,372.282 -7.626,369.518 -1.483,369.436C-5.128,372.426 -7.933,376.111 -9.899,380.493C-11.783,384.712 -12.725,389.237 -12.725,394.069C-12.725,400.294 -10.995,405.25 -7.534,408.935C-4.073,412.621 0.728,414.464 6.871,414.464C10.475,414.464 13.854,413.788 17.007,412.437C20.529,410.922 23.211,408.792 25.054,406.048L26.897,411.27Z" style="fill:rgb(186,20,25);fill-rule:nonzero;"/>
                        </g>
                        <g>
                            <path d="M123.188,374.35L116.8,383.196C115.735,379.797 113.339,377.217 109.612,375.456C106.5,373.982 102.896,373.245 98.801,373.245C97.736,373.245 96.712,373.306 95.729,373.429C97.408,372.078 99.087,370.747 100.766,369.436C102.323,368.453 104.268,367.962 106.602,367.962C109.428,367.962 112.377,368.576 115.448,369.805C118.397,370.951 120.977,372.467 123.188,374.35ZM107.954,388.971L102.425,397.509C101.483,395.134 98.575,393.947 93.702,393.947C91.613,393.947 89.648,394.131 87.805,394.499L88.419,390.199C92.187,388.07 95.955,387.005 99.722,387.005C103.08,387.005 105.824,387.66 107.954,388.971ZM124.724,411.27C118.991,416.716 111.988,419.44 103.715,419.44C95.32,419.44 88.419,417.454 83.013,413.481C76.952,409.058 73.922,402.792 73.922,394.684C73.922,388.5 76.051,382.848 80.31,377.729C84.856,372.282 90.201,369.518 96.344,369.436C92.699,372.426 89.893,376.111 87.928,380.493C86.044,384.712 85.102,389.237 85.102,394.069C85.102,400.294 86.832,405.25 90.293,408.935C93.753,412.621 98.555,414.464 104.698,414.464C108.302,414.464 111.68,413.788 114.834,412.437C118.356,410.922 121.038,408.792 122.881,406.048L124.724,411.27Z" style="fill:rgb(186,20,25);fill-rule:nonzero;"/>
                        </g>
                        <g>
                            <path d="M221.015,374.35L214.626,383.196C213.562,379.797 211.166,377.217 207.439,375.456C204.327,373.982 200.723,373.245 196.627,373.245C195.563,373.245 194.539,373.306 193.556,373.429C195.235,372.078 196.914,370.747 198.593,369.436C200.149,368.453 202.095,367.962 204.429,367.962C207.255,367.962 210.203,368.576 213.275,369.805C216.223,370.951 218.804,372.467 221.015,374.35ZM205.78,388.971L200.252,397.509C199.31,395.134 196.402,393.947 191.529,393.947C189.44,393.947 187.474,394.131 185.632,394.499L186.246,390.199C190.014,388.07 193.781,387.005 197.549,387.005C200.907,387.005 203.651,387.66 205.78,388.971ZM222.551,411.27C216.817,416.716 209.814,419.44 201.542,419.44C193.146,419.44 186.246,417.454 180.84,413.481C174.779,409.058 171.749,402.792 171.749,394.684C171.749,388.5 173.878,382.848 178.137,377.729C182.683,372.282 188.027,369.518 194.17,369.436C190.525,372.426 187.72,376.111 185.754,380.493C183.871,384.712 182.929,389.237 182.929,394.069C182.929,400.294 184.659,405.25 188.119,408.935C191.58,412.621 196.382,414.464 202.525,414.464C206.129,414.464 209.507,413.788 212.661,412.437C216.183,410.922 218.865,408.792 220.708,406.048L222.551,411.27Z" style="fill:rgb(186,20,25);fill-rule:nonzero;"/>
                        </g>
                        <g>
                            <path d="M318.842,374.35L312.453,383.196C311.388,379.797 308.993,377.217 305.266,375.456C302.153,373.982 298.55,373.245 294.454,373.245C293.389,373.245 292.366,373.306 291.383,373.429C293.062,372.078 294.741,370.747 296.42,369.436C297.976,368.453 299.921,367.962 302.256,367.962C305.082,367.962 308.03,368.576 311.102,369.805C314.05,370.951 316.63,372.467 318.842,374.35ZM303.607,388.971L298.079,397.509C297.137,395.134 294.229,393.947 289.356,393.947C287.267,393.947 285.301,394.131 283.458,394.499L284.073,390.199C287.84,388.07 291.608,387.005 295.376,387.005C298.734,387.005 301.478,387.66 303.607,388.971ZM320.377,411.27C314.644,416.716 307.641,419.44 299.369,419.44C290.973,419.44 284.073,417.454 278.667,413.481C272.606,409.058 269.575,402.792 269.575,394.684C269.575,388.5 271.705,382.848 275.964,377.729C280.51,372.282 285.854,369.518 291.997,369.436C288.352,372.426 285.547,376.111 283.581,380.493C281.697,384.712 280.755,389.237 280.755,394.069C280.755,400.294 282.486,405.25 285.946,408.935C289.407,412.621 294.208,414.464 300.351,414.464C303.955,414.464 307.334,413.788 310.487,412.437C314.009,410.922 316.692,408.792 318.535,406.048L320.377,411.27Z" style="fill:rgb(186,20,25);fill-rule:nonzero;"/>
                        </g>
                        <g>
                            <path d="M416.668,374.35L410.28,383.196C409.215,379.797 406.819,377.217 403.093,375.456C399.98,373.982 396.376,373.245 392.281,373.245C391.216,373.245 390.192,373.306 389.209,373.429C390.889,372.078 392.568,370.747 394.247,369.436C395.803,368.453 397.748,367.962 400.082,367.962C402.908,367.962 405.857,368.576 408.928,369.805C411.877,370.951 414.457,372.467 416.668,374.35ZM401.434,388.971L395.905,397.509C394.963,395.134 392.056,393.947 387.182,393.947C385.094,393.947 383.128,394.131 381.285,394.499L381.899,390.199C385.667,388.07 389.435,387.005 393.202,387.005C396.561,387.005 399.304,387.66 401.434,388.971ZM418.204,411.27C412.471,416.716 405.468,419.44 397.195,419.44C388.8,419.44 381.899,417.454 376.494,413.481C370.433,409.058 367.402,402.792 367.402,394.684C367.402,388.5 369.532,382.848 373.791,377.729C378.336,372.282 383.681,369.518 389.824,369.436C386.179,372.426 383.374,376.111 381.408,380.493C379.524,384.712 378.582,389.237 378.582,394.069C378.582,400.294 380.312,405.25 383.773,408.935C387.233,412.621 392.035,414.464 398.178,414.464C401.782,414.464 405.161,413.788 408.314,412.437C411.836,410.922 414.518,408.792 416.361,406.048L418.204,411.27Z" style="fill:rgb(186,20,25);fill-rule:nonzero;"/>
                        </g>
                        <g>
                            <path d="M514.495,374.35L508.107,383.196C507.042,379.797 504.646,377.217 500.919,375.456C497.807,373.982 494.203,373.245 490.108,373.245C489.043,373.245 488.019,373.306 487.036,373.429C488.715,372.078 490.394,370.747 492.073,369.436C493.63,368.453 495.575,367.962 497.909,367.962C500.735,367.962 503.684,368.576 506.755,369.805C509.704,370.951 512.284,372.467 514.495,374.35ZM499.261,388.971L493.732,397.509C492.79,395.134 489.882,393.947 485.009,393.947C482.92,393.947 480.955,394.131 479.112,394.499L479.726,390.199C483.494,388.07 487.261,387.005 491.029,387.005C494.387,387.005 497.131,387.66 499.261,388.971ZM516.031,411.27C510.298,416.716 503.295,419.44 495.022,419.44C486.627,419.44 479.726,417.454 474.32,413.481C468.259,409.058 465.229,402.792 465.229,394.684C465.229,388.5 467.358,382.848 471.617,377.729C476.163,372.282 481.508,369.518 487.651,369.436C484.006,372.426 481.2,376.111 479.235,380.493C477.351,384.712 476.409,389.237 476.409,394.069C476.409,400.294 478.139,405.25 481.6,408.935C485.06,412.621 489.862,414.464 496.005,414.464C499.609,414.464 502.987,413.788 506.141,412.437C509.663,410.922 512.345,408.792 514.188,406.048L516.031,411.27Z" style="fill:rgb(186,20,25);fill-rule:nonzero;"/>
                        </g>
                    </g>
                    <g>
                        <g>
                            <path d="M25.362,472.776L18.973,481.622C17.908,478.222 15.512,475.642 11.786,473.881C8.673,472.407 5.069,471.67 0.974,471.67C-0.091,471.67 -1.115,471.731 -2.097,471.854C-0.418,470.503 1.261,469.172 2.94,467.861C4.496,466.878 6.441,466.387 8.776,466.387C11.601,466.387 14.55,467.001 17.621,468.23C20.57,469.377 23.15,470.892 25.362,472.776ZM10.127,487.396L4.598,495.935C3.656,493.559 0.749,492.372 -4.125,492.372C-6.213,492.372 -8.179,492.556 -10.022,492.925L-9.408,488.625C-5.64,486.495 -1.872,485.43 1.895,485.43C5.254,485.43 7.997,486.085 10.127,487.396ZM26.897,509.695C21.164,515.142 14.161,517.865 5.888,517.865C-2.507,517.865 -9.408,515.879 -14.813,511.906C-20.874,507.483 -23.905,501.218 -23.905,493.109C-23.905,486.925 -21.775,481.273 -17.516,476.154C-12.971,470.708 -7.626,467.943 -1.483,467.861C-5.128,470.851 -7.933,474.537 -9.899,478.919C-11.783,483.137 -12.725,487.662 -12.725,492.495C-12.725,498.719 -10.995,503.675 -7.534,507.361C-4.073,511.046 0.728,512.889 6.871,512.889C10.475,512.889 13.854,512.213 17.007,510.862C20.529,509.347 23.211,507.217 25.054,504.473L26.897,509.695Z" style="fill:rgb(186,20,25);fill-rule:nonzero;"/>
                        </g>
                        <g>
                            <path d="M123.188,472.776L116.8,481.622C115.735,478.222 113.339,475.642 109.612,473.881C106.5,472.407 102.896,471.67 98.801,471.67C97.736,471.67 96.712,471.731 95.729,471.854C97.408,470.503 99.087,469.172 100.766,467.861C102.323,466.878 104.268,466.387 106.602,466.387C109.428,466.387 112.377,467.001 115.448,468.23C118.397,469.377 120.977,470.892 123.188,472.776ZM107.954,487.396L102.425,495.935C101.483,493.559 98.575,492.372 93.702,492.372C91.613,492.372 89.648,492.556 87.805,492.925L88.419,488.625C92.187,486.495 95.955,485.43 99.722,485.43C103.08,485.43 105.824,486.085 107.954,487.396ZM124.724,509.695C118.991,515.142 111.988,517.865 103.715,517.865C95.32,517.865 88.419,515.879 83.013,511.906C76.952,507.483 73.922,501.218 73.922,493.109C73.922,486.925 76.051,481.273 80.31,476.154C84.856,470.708 90.201,467.943 96.344,467.861C92.699,470.851 89.893,474.537 87.928,478.919C86.044,483.137 85.102,487.662 85.102,492.495C85.102,498.719 86.832,503.675 90.293,507.361C93.753,511.046 98.555,512.889 104.698,512.889C108.302,512.889 111.68,512.213 114.834,510.862C118.356,509.347 121.038,507.217 122.881,504.473L124.724,509.695Z" style="fill:rgb(186,20,25);fill-rule:nonzero;"/>
                        </g>
                        <g>
                            <path d="M221.015,472.776L214.626,481.622C213.562,478.222 211.166,475.642 207.439,473.881C204.327,472.407 200.723,471.67 196.627,471.67C195.563,471.67 194.539,471.731 193.556,471.854C195.235,470.503 196.914,469.172 198.593,467.861C200.149,466.878 202.095,466.387 204.429,466.387C207.255,466.387 210.203,467.001 213.275,468.23C216.223,469.377 218.804,470.892 221.015,472.776ZM205.78,487.396L200.252,495.935C199.31,493.559 196.402,492.372 191.529,492.372C189.44,492.372 187.474,492.556 185.632,492.925L186.246,488.625C190.014,486.495 193.781,485.43 197.549,485.43C200.907,485.43 203.651,486.085 205.78,487.396ZM222.551,509.695C216.817,515.142 209.814,517.865 201.542,517.865C193.146,517.865 186.246,515.879 180.84,511.906C174.779,507.483 171.749,501.218 171.749,493.109C171.749,486.925 173.878,481.273 178.137,476.154C182.683,470.708 188.027,467.943 194.17,467.861C190.525,470.851 187.72,474.537 185.754,478.919C183.871,483.137 182.929,487.662 182.929,492.495C182.929,498.719 184.659,503.675 188.119,507.361C191.58,511.046 196.382,512.889 202.525,512.889C206.129,512.889 209.507,512.213 212.661,510.862C216.183,509.347 218.865,507.217 220.708,504.473L222.551,509.695Z" style="fill:rgb(186,20,25);fill-rule:nonzero;"/>
                        </g>
                        <g>
                            <path d="M318.842,472.776L312.453,481.622C311.388,478.222 308.993,475.642 305.266,473.881C302.153,472.407 298.55,471.67 294.454,471.67C293.389,471.67 292.366,471.731 291.383,471.854C293.062,470.503 294.741,469.172 296.42,467.861C297.976,466.878 299.921,466.387 302.256,466.387C305.082,466.387 308.03,467.001 311.102,468.23C314.05,469.377 316.63,470.892 318.842,472.776ZM303.607,487.396L298.079,495.935C297.137,493.559 294.229,492.372 289.356,492.372C287.267,492.372 285.301,492.556 283.458,492.925L284.073,488.625C287.84,486.495 291.608,485.43 295.376,485.43C298.734,485.43 301.478,486.085 303.607,487.396ZM320.377,509.695C314.644,515.142 307.641,517.865 299.369,517.865C290.973,517.865 284.073,515.879 278.667,511.906C272.606,507.483 269.575,501.218 269.575,493.109C269.575,486.925 271.705,481.273 275.964,476.154C280.51,470.708 285.854,467.943 291.997,467.861C288.352,470.851 285.547,474.537 283.581,478.919C281.697,483.137 280.755,487.662 280.755,492.495C280.755,498.719 282.486,503.675 285.946,507.361C289.407,511.046 294.208,512.889 300.351,512.889C303.955,512.889 307.334,512.213 310.487,510.862C314.009,509.347 316.692,507.217 318.535,504.473L320.377,509.695Z" style="fill:rgb(186,20,25);fill-rule:nonzero;"/>
                        </g>
                        <g>
                            <path d="M416.668,472.776L410.28,481.622C409.215,478.222 406.819,475.642 403.093,473.881C399.98,472.407 396.376,471.67 392.281,471.67C391.216,471.67 390.192,471.731 389.209,471.854C390.889,470.503 392.568,469.172 394.247,467.861C395.803,466.878 397.748,466.387 400.082,466.387C402.908,466.387 405.857,467.001 408.928,468.23C411.877,469.377 414.457,470.892 416.668,472.776ZM401.434,487.396L395.905,495.935C394.963,493.559 392.056,492.372 387.182,492.372C385.094,492.372 383.128,492.556 381.285,492.925L381.899,488.625C385.667,486.495 389.435,485.43 393.202,485.43C396.561,485.43 399.304,486.085 401.434,487.396ZM418.204,509.695C412.471,515.142 405.468,517.865 397.195,517.865C388.8,517.865 381.899,515.879 376.494,511.906C370.433,507.483 367.402,501.218 367.402,493.109C367.402,486.925 369.532,481.273 373.791,476.154C378.336,470.708 383.681,467.943 389.824,467.861C386.179,470.851 383.374,474.537 381.408,478.919C379.524,483.137 378.582,487.662 378.582,492.495C378.582,498.719 380.312,503.675 383.773,507.361C387.233,511.046 392.035,512.889 398.178,512.889C401.782,512.889 405.161,512.213 408.314,510.862C411.836,509.347 414.518,507.217 416.361,504.473L418.204,509.695Z" style="fill:rgb(186,20,25);fill-rule:nonzero;"/>
                        </g>
                        <g>
                            <path d="M514.495,472.776L508.107,481.622C507.042,478.222 504.646,475.642 500.919,473.881C497.807,472.407 494.203,471.67 490.108,471.67C489.043,471.67 488.019,471.731 487.036,471.854C488.715,470.503 490.394,469.172 492.073,467.861C493.63,466.878 495.575,466.387 497.909,466.387C500.735,466.387 503.684,467.001 506.755,468.23C509.704,469.377 512.284,470.892 514.495,472.776ZM499.261,487.396L493.732,495.935C492.79,493.559 489.882,492.372 485.009,492.372C482.92,492.372 480.955,492.556 479.112,492.925L479.726,488.625C483.494,486.495 487.261,485.43 491.029,485.43C494.387,485.43 497.131,486.085 499.261,487.396ZM516.031,509.695C510.298,515.142 503.295,517.865 495.022,517.865C486.627,517.865 479.726,515.879 474.32,511.906C468.259,507.483 465.229,501.218 465.229,493.109C465.229,486.925 467.358,481.273 471.617,476.154C476.163,470.708 481.508,467.943 487.651,467.861C484.006,470.851 481.2,474.537 479.235,478.919C477.351,483.137 476.409,487.662 476.409,492.495C476.409,498.719 478.139,503.675 481.6,507.361C485.06,511.046 489.862,512.889 496.005,512.889C499.609,512.889 502.987,512.213 506.141,510.862C509.663,509.347 512.345,507.217 514.188,504.473L516.031,509.695Z" style="fill:rgb(186,20,25);fill-rule:nonzero;"/>
                        </g>
                    </g>
                    <g>
                        <path d="M74.275,29.862L67.886,38.708C66.821,35.309 64.426,32.729 60.699,30.968C57.587,29.494 53.983,28.757 49.887,28.757C48.823,28.757 47.799,28.818 46.816,28.941C48.495,27.589 50.174,26.258 51.853,24.948C53.409,23.965 55.355,23.474 57.689,23.474C60.515,23.474 63.463,24.088 66.535,25.317C69.483,26.463 72.063,27.978 74.275,29.862ZM59.04,44.483L53.512,53.021C52.57,50.646 49.662,49.458 44.789,49.458C42.7,49.458 40.734,49.643 38.891,50.011L39.506,45.711C43.273,43.582 47.041,42.517 50.809,42.517C54.167,42.517 56.911,43.172 59.04,44.483ZM75.811,66.781C70.077,72.228 63.074,74.952 54.802,74.952C46.406,74.952 39.506,72.965 34.1,68.993C28.039,64.57 25.008,58.304 25.008,50.195C25.008,44.012 27.138,38.36 31.397,33.241C35.943,27.794 41.287,25.03 47.43,24.948C43.785,27.938 40.98,31.623 39.014,36.005C37.13,40.223 36.189,44.749 36.189,49.581C36.189,55.806 37.919,60.761 41.379,64.447C44.84,68.133 49.642,69.976 55.785,69.976C59.388,69.976 62.767,69.3 65.92,67.949C69.442,66.433 72.125,64.304 73.968,61.56L75.811,66.781Z" style="fill:rgb(186,20,25);fill-rule:nonzero;"/>
                    </g>
                    <g>
                        <path d="M74.275,128.287L67.886,137.133C66.821,133.734 64.426,131.154 60.699,129.393C57.587,127.919 53.983,127.182 49.887,127.182C48.823,127.182 47.799,127.243 46.816,127.366C48.495,126.015 50.174,124.684 51.853,123.373C53.409,122.39 55.355,121.899 57.689,121.899C60.515,121.899 63.463,122.513 66.535,123.742C69.483,124.888 72.063,126.404 74.275,128.287ZM59.04,142.908L53.512,151.446C52.57,149.071 49.662,147.884 44.789,147.884C42.7,147.884 40.734,148.068 38.891,148.436L39.506,144.136C43.273,142.007 47.041,140.942 50.809,140.942C54.167,140.942 56.911,141.597 59.04,142.908ZM75.811,165.207C70.077,170.653 63.074,173.377 54.802,173.377C46.406,173.377 39.506,171.391 34.1,167.418C28.039,162.995 25.008,156.729 25.008,148.621C25.008,142.437 27.138,136.785 31.397,131.666C35.943,126.219 41.287,123.455 47.43,123.373C43.785,126.363 40.98,130.048 39.014,134.43C37.13,138.649 36.189,143.174 36.189,148.006C36.189,154.231 37.919,159.187 41.379,162.872C44.84,166.558 49.642,168.401 55.785,168.401C59.388,168.401 62.767,167.725 65.92,166.374C69.442,164.859 72.125,162.729 73.968,159.985L75.811,165.207Z" style="fill:rgb(186,20,25);fill-rule:nonzero;"/>
                    </g>
                    <g>
                        <path d="M74.275,226.713L67.886,235.559C66.821,232.159 64.426,229.579 60.699,227.818C57.587,226.344 53.983,225.607 49.887,225.607C48.823,225.607 47.799,225.668 46.816,225.791C48.495,224.44 50.174,223.109 51.853,221.798C53.409,220.815 55.355,220.324 57.689,220.324C60.515,220.324 63.463,220.938 66.535,222.167C69.483,223.314 72.063,224.829 74.275,226.713ZM59.04,241.333L53.512,249.872C52.57,247.496 49.662,246.309 44.789,246.309C42.7,246.309 40.734,246.493 38.891,246.862L39.506,242.562C43.273,240.432 47.041,239.367 50.809,239.367C54.167,239.367 56.911,240.022 59.04,241.333ZM75.811,263.632C70.077,269.079 63.074,271.802 54.802,271.802C46.406,271.802 39.506,269.816 34.1,265.843C28.039,261.42 25.008,255.155 25.008,247.046C25.008,240.862 27.138,235.21 31.397,230.091C35.943,224.645 41.287,221.88 47.43,221.798C43.785,224.788 40.98,228.474 39.014,232.856C37.13,237.074 36.189,241.599 36.189,246.432C36.189,252.656 37.919,257.612 41.379,261.298C44.84,264.983 49.642,266.826 55.785,266.826C59.388,266.826 62.767,266.15 65.92,264.799C69.442,263.284 72.125,261.154 73.968,258.41L75.811,263.632Z" style="fill:rgb(186,20,25);fill-rule:nonzero;"/>
                    </g>
                    <g>
                        <path d="M74.275,325.138L67.886,333.984C66.821,330.585 64.426,328.005 60.699,326.244C57.587,324.769 53.983,324.032 49.887,324.032C48.823,324.032 47.799,324.094 46.816,324.216C48.495,322.865 50.174,321.534 51.853,320.224C53.409,319.241 55.355,318.749 57.689,318.749C60.515,318.749 63.463,319.364 66.535,320.592C69.483,321.739 72.063,323.254 74.275,325.138ZM59.04,339.758L53.512,348.297C52.57,345.922 49.662,344.734 44.789,344.734C42.7,344.734 40.734,344.918 38.891,345.287L39.506,340.987C43.273,338.857 47.041,337.792 50.809,337.792C54.167,337.792 56.911,338.448 59.04,339.758ZM75.811,362.057C70.077,367.504 63.074,370.227 54.802,370.227C46.406,370.227 39.506,368.241 34.1,364.269C28.039,359.846 25.008,353.58 25.008,345.471C25.008,339.287 27.138,333.636 31.397,328.517C35.943,323.07 41.287,320.305 47.43,320.224C43.785,323.213 40.98,326.899 39.014,331.281C37.13,335.499 36.189,340.024 36.189,344.857C36.189,351.082 37.919,356.037 41.379,359.723C44.84,363.408 49.642,365.251 55.785,365.251C59.388,365.251 62.767,364.576 65.92,363.224C69.442,361.709 72.125,359.579 73.968,356.836L75.811,362.057Z" style="fill:rgb(186,20,25);fill-rule:nonzero;"/>
                    </g>
                    <g>
                        <path d="M74.275,423.563L67.886,432.409C66.821,429.01 64.426,426.43 60.699,424.669C57.587,423.195 53.983,422.457 49.887,422.457C48.823,422.457 47.799,422.519 46.816,422.642C48.495,421.29 50.174,419.959 51.853,418.649C53.409,417.666 55.355,417.174 57.689,417.174C60.515,417.174 63.463,417.789 66.535,419.017C69.483,420.164 72.063,421.679 74.275,423.563ZM59.04,438.183L53.512,446.722C52.57,444.347 49.662,443.159 44.789,443.159C42.7,443.159 40.734,443.343 38.891,443.712L39.506,439.412C43.273,437.282 47.041,436.218 50.809,436.218C54.167,436.218 56.911,436.873 59.04,438.183ZM75.811,460.482C70.077,465.929 63.074,468.652 54.802,468.652C46.406,468.652 39.506,466.666 34.1,462.694C28.039,458.271 25.008,452.005 25.008,443.896C25.008,437.712 27.138,432.061 31.397,426.942C35.943,421.495 41.287,418.731 47.43,418.649C43.785,421.638 40.98,425.324 39.014,429.706C37.13,433.924 36.189,438.45 36.189,443.282C36.189,449.507 37.919,454.462 41.379,458.148C44.84,461.834 49.642,463.677 55.785,463.677C59.388,463.677 62.767,463.001 65.92,461.649C69.442,460.134 72.125,458.005 73.968,455.261L75.811,460.482Z" style="fill:rgb(186,20,25);fill-rule:nonzero;"/>
                    </g>
                    <g>
                        <path d="M172.102,29.862L165.713,38.708C164.648,35.309 162.252,32.729 158.526,30.968C155.413,29.494 151.809,28.757 147.714,28.757C146.649,28.757 145.625,28.818 144.643,28.941C146.322,27.589 148.001,26.258 149.68,24.948C151.236,23.965 153.181,23.474 155.516,23.474C158.341,23.474 161.29,24.088 164.362,25.317C167.31,26.463 169.89,27.978 172.102,29.862ZM156.867,44.483L151.338,53.021C150.397,50.646 147.489,49.458 142.615,49.458C140.527,49.458 138.561,49.643 136.718,50.011L137.333,45.711C141.1,43.582 144.868,42.517 148.636,42.517C151.994,42.517 154.738,43.172 156.867,44.483ZM173.637,66.781C167.904,72.228 160.901,74.952 152.628,74.952C144.233,74.952 137.333,72.965 131.927,68.993C125.866,64.57 122.835,58.304 122.835,50.195C122.835,44.012 124.965,38.36 129.224,33.241C133.77,27.794 139.114,25.03 145.257,24.948C141.612,27.938 138.807,31.623 136.841,36.005C134.957,40.223 134.015,44.749 134.015,49.581C134.015,55.806 135.746,60.761 139.206,64.447C142.667,68.133 147.468,69.976 153.611,69.976C157.215,69.976 160.594,69.3 163.747,67.949C167.269,66.433 169.952,64.304 171.794,61.56L173.637,66.781Z" style="fill:rgb(186,20,25);fill-rule:nonzero;"/>
                    </g>
                    <g>
                        <path d="M172.102,128.287L165.713,137.133C164.648,133.734 162.252,131.154 158.526,129.393C155.413,127.919 151.809,127.182 147.714,127.182C146.649,127.182 145.625,127.243 144.643,127.366C146.322,126.015 148.001,124.684 149.68,123.373C151.236,122.39 153.181,121.899 155.516,121.899C158.341,121.899 161.29,122.513 164.362,123.742C167.31,124.888 169.89,126.404 172.102,128.287ZM156.867,142.908L151.338,151.446C150.397,149.071 147.489,147.884 142.615,147.884C140.527,147.884 138.561,148.068 136.718,148.436L137.333,144.136C141.1,142.007 144.868,140.942 148.636,140.942C151.994,140.942 154.738,141.597 156.867,142.908ZM173.637,165.207C167.904,170.653 160.901,173.377 152.628,173.377C144.233,173.377 137.333,171.391 131.927,167.418C125.866,162.995 122.835,156.729 122.835,148.621C122.835,142.437 124.965,136.785 129.224,131.666C133.77,126.219 139.114,123.455 145.257,123.373C141.612,126.363 138.807,130.048 136.841,134.43C134.957,138.649 134.015,143.174 134.015,148.006C134.015,154.231 135.746,159.187 139.206,162.872C142.667,166.558 147.468,168.401 153.611,168.401C157.215,168.401 160.594,167.725 163.747,166.374C167.269,164.859 169.952,162.729 171.794,159.985L173.637,165.207Z" style="fill:rgb(186,20,25);fill-rule:nonzero;"/>
                    </g>
                    <g>
                        <path d="M172.102,226.713L165.713,235.559C164.648,232.159 162.252,229.579 158.526,227.818C155.413,226.344 151.809,225.607 147.714,225.607C146.649,225.607 145.625,225.668 144.643,225.791C146.322,224.44 148.001,223.109 149.68,221.798C151.236,220.815 153.181,220.324 155.516,220.324C158.341,220.324 161.29,220.938 164.362,222.167C167.31,223.314 169.89,224.829 172.102,226.713ZM156.867,241.333L151.338,249.872C150.397,247.496 147.489,246.309 142.615,246.309C140.527,246.309 138.561,246.493 136.718,246.862L137.333,242.562C141.1,240.432 144.868,239.367 148.636,239.367C151.994,239.367 154.738,240.022 156.867,241.333ZM173.637,263.632C167.904,269.079 160.901,271.802 152.628,271.802C144.233,271.802 137.333,269.816 131.927,265.843C125.866,261.42 122.835,255.155 122.835,247.046C122.835,240.862 124.965,235.21 129.224,230.091C133.77,224.645 139.114,221.88 145.257,221.798C141.612,224.788 138.807,228.474 136.841,232.856C134.957,237.074 134.015,241.599 134.015,246.432C134.015,252.656 135.746,257.612 139.206,261.298C142.667,264.983 147.468,266.826 153.611,266.826C157.215,266.826 160.594,266.15 163.747,264.799C167.269,263.284 169.952,261.154 171.794,258.41L173.637,263.632Z" style="fill:rgb(186,20,25);fill-rule:nonzero;"/>
                    </g>
                    <g>
                        <path d="M172.102,325.138L165.713,333.984C164.648,330.585 162.252,328.005 158.526,326.244C155.413,324.769 151.809,324.032 147.714,324.032C146.649,324.032 145.625,324.094 144.643,324.216C146.322,322.865 148.001,321.534 149.68,320.224C151.236,319.241 153.181,318.749 155.516,318.749C158.341,318.749 161.29,319.364 164.362,320.592C167.31,321.739 169.89,323.254 172.102,325.138ZM156.867,339.758L151.338,348.297C150.397,345.922 147.489,344.734 142.615,344.734C140.527,344.734 138.561,344.918 136.718,345.287L137.333,340.987C141.1,338.857 144.868,337.792 148.636,337.792C151.994,337.792 154.738,338.448 156.867,339.758ZM173.637,362.057C167.904,367.504 160.901,370.227 152.628,370.227C144.233,370.227 137.333,368.241 131.927,364.269C125.866,359.846 122.835,353.58 122.835,345.471C122.835,339.287 124.965,333.636 129.224,328.517C133.77,323.07 139.114,320.305 145.257,320.224C141.612,323.213 138.807,326.899 136.841,331.281C134.957,335.499 134.015,340.024 134.015,344.857C134.015,351.082 135.746,356.037 139.206,359.723C142.667,363.408 147.468,365.251 153.611,365.251C157.215,365.251 160.594,364.576 163.747,363.224C167.269,361.709 169.952,359.579 171.794,356.836L173.637,362.057Z" style="fill:rgb(186,20,25);fill-rule:nonzero;"/>
                    </g>
                    <g>
                        <path d="M172.102,423.563L165.713,432.409C164.648,429.01 162.252,426.43 158.526,424.669C155.413,423.195 151.809,422.457 147.714,422.457C146.649,422.457 145.625,422.519 144.643,422.642C146.322,421.29 148.001,419.959 149.68,418.649C151.236,417.666 153.181,417.174 155.516,417.174C158.341,417.174 161.29,417.789 164.362,419.017C167.31,420.164 169.89,421.679 172.102,423.563ZM156.867,438.183L151.338,446.722C150.397,444.347 147.489,443.159 142.615,443.159C140.527,443.159 138.561,443.343 136.718,443.712L137.333,439.412C141.1,437.282 144.868,436.218 148.636,436.218C151.994,436.218 154.738,436.873 156.867,438.183ZM173.637,460.482C167.904,465.929 160.901,468.652 152.628,468.652C144.233,468.652 137.333,466.666 131.927,462.694C125.866,458.271 122.835,452.005 122.835,443.896C122.835,437.712 124.965,432.061 129.224,426.942C133.77,421.495 139.114,418.731 145.257,418.649C141.612,421.638 138.807,425.324 136.841,429.706C134.957,433.924 134.015,438.45 134.015,443.282C134.015,449.507 135.746,454.462 139.206,458.148C142.667,461.834 147.468,463.677 153.611,463.677C157.215,463.677 160.594,463.001 163.747,461.649C167.269,460.134 169.952,458.005 171.794,455.261L173.637,460.482Z" style="fill:rgb(186,20,25);fill-rule:nonzero;"/>
                    </g>
                    <g>
                        <path d="M269.928,29.862L263.54,38.708C262.475,35.309 260.079,32.729 256.352,30.968C253.24,29.494 249.636,28.757 245.541,28.757C244.476,28.757 243.452,28.818 242.469,28.941C244.148,27.589 245.828,26.258 247.507,24.948C249.063,23.965 251.008,23.474 253.342,23.474C256.168,23.474 259.117,24.088 262.188,25.317C265.137,26.463 267.717,27.978 269.928,29.862ZM254.694,44.483L249.165,53.021C248.223,50.646 245.316,49.458 240.442,49.458C238.354,49.458 236.388,49.643 234.545,50.011L235.159,45.711C238.927,43.582 242.695,42.517 246.462,42.517C249.82,42.517 252.564,43.172 254.694,44.483ZM271.464,66.781C265.731,72.228 258.728,74.952 250.455,74.952C242.06,74.952 235.159,72.965 229.753,68.993C223.692,64.57 220.662,58.304 220.662,50.195C220.662,44.012 222.791,38.36 227.051,33.241C231.596,27.794 236.941,25.03 243.084,24.948C239.439,27.938 236.634,31.623 234.668,36.005C232.784,40.223 231.842,44.749 231.842,49.581C231.842,55.806 233.572,60.761 237.033,64.447C240.493,68.133 245.295,69.976 251.438,69.976C255.042,69.976 258.421,69.3 261.574,67.949C265.096,66.433 267.778,64.304 269.621,61.56L271.464,66.781Z" style="fill:rgb(186,20,25);fill-rule:nonzero;"/>
                    </g>
                    <g>
                        <path d="M269.928,128.287L263.54,137.133C262.475,133.734 260.079,131.154 256.352,129.393C253.24,127.919 249.636,127.182 245.541,127.182C244.476,127.182 243.452,127.243 242.469,127.366C244.148,126.015 245.828,124.684 247.507,123.373C249.063,122.39 251.008,121.899 253.342,121.899C256.168,121.899 259.117,122.513 262.188,123.742C265.137,124.888 267.717,126.404 269.928,128.287ZM254.694,142.908L249.165,151.446C248.223,149.071 245.316,147.884 240.442,147.884C238.354,147.884 236.388,148.068 234.545,148.436L235.159,144.136C238.927,142.007 242.695,140.942 246.462,140.942C249.82,140.942 252.564,141.597 254.694,142.908ZM271.464,165.207C265.731,170.653 258.728,173.377 250.455,173.377C242.06,173.377 235.159,171.391 229.753,167.418C223.692,162.995 220.662,156.729 220.662,148.621C220.662,142.437 222.791,136.785 227.051,131.666C231.596,126.219 236.941,123.455 243.084,123.373C239.439,126.363 236.634,130.048 234.668,134.43C232.784,138.649 231.842,143.174 231.842,148.006C231.842,154.231 233.572,159.187 237.033,162.872C240.493,166.558 245.295,168.401 251.438,168.401C255.042,168.401 258.421,167.725 261.574,166.374C265.096,164.859 267.778,162.729 269.621,159.985L271.464,165.207Z" style="fill:rgb(186,20,25);fill-rule:nonzero;"/>
                    </g>
                    <g>
                        <path d="M269.928,226.713L263.54,235.559C262.475,232.159 260.079,229.579 256.352,227.818C253.24,226.344 249.636,225.607 245.541,225.607C244.476,225.607 243.452,225.668 242.469,225.791C244.148,224.44 245.828,223.109 247.507,221.798C249.063,220.815 251.008,220.324 253.342,220.324C256.168,220.324 259.117,220.938 262.188,222.167C265.137,223.314 267.717,224.829 269.928,226.713ZM254.694,241.333L249.165,249.872C248.223,247.496 245.316,246.309 240.442,246.309C238.354,246.309 236.388,246.493 234.545,246.862L235.159,242.562C238.927,240.432 242.695,239.367 246.462,239.367C249.82,239.367 252.564,240.022 254.694,241.333ZM271.464,263.632C265.731,269.079 258.728,271.802 250.455,271.802C242.06,271.802 235.159,269.816 229.753,265.843C223.692,261.42 220.662,255.155 220.662,247.046C220.662,240.862 222.791,235.21 227.051,230.091C231.596,224.645 236.941,221.88 243.084,221.798C239.439,224.788 236.634,228.474 234.668,232.856C232.784,237.074 231.842,241.599 231.842,246.432C231.842,252.656 233.572,257.612 237.033,261.298C240.493,264.983 245.295,266.826 251.438,266.826C255.042,266.826 258.421,266.15 261.574,264.799C265.096,263.284 267.778,261.154 269.621,258.41L271.464,263.632Z" style="fill:rgb(186,20,25);fill-rule:nonzero;"/>
                    </g>
                    <g>
                        <path d="M269.928,325.138L263.54,333.984C262.475,330.585 260.079,328.005 256.352,326.244C253.24,324.769 249.636,324.032 245.541,324.032C244.476,324.032 243.452,324.094 242.469,324.216C244.148,322.865 245.828,321.534 247.507,320.224C249.063,319.241 251.008,318.749 253.342,318.749C256.168,318.749 259.117,319.364 262.188,320.592C265.137,321.739 267.717,323.254 269.928,325.138ZM254.694,339.758L249.165,348.297C248.223,345.922 245.316,344.734 240.442,344.734C238.354,344.734 236.388,344.918 234.545,345.287L235.159,340.987C238.927,338.857 242.695,337.792 246.462,337.792C249.82,337.792 252.564,338.448 254.694,339.758ZM271.464,362.057C265.731,367.504 258.728,370.227 250.455,370.227C242.06,370.227 235.159,368.241 229.753,364.269C223.692,359.846 220.662,353.58 220.662,345.471C220.662,339.287 222.791,333.636 227.051,328.517C231.596,323.07 236.941,320.305 243.084,320.224C239.439,323.213 236.634,326.899 234.668,331.281C232.784,335.499 231.842,340.024 231.842,344.857C231.842,351.082 233.572,356.037 237.033,359.723C240.493,363.408 245.295,365.251 251.438,365.251C255.042,365.251 258.421,364.576 261.574,363.224C265.096,361.709 267.778,359.579 269.621,356.836L271.464,362.057Z" style="fill:rgb(186,20,25);fill-rule:nonzero;"/>
                    </g>
                    <g>
                        <path d="M269.928,423.563L263.54,432.409C262.475,429.01 260.079,426.43 256.352,424.669C253.24,423.195 249.636,422.457 245.541,422.457C244.476,422.457 243.452,422.519 242.469,422.642C244.148,421.29 245.828,419.959 247.507,418.649C249.063,417.666 251.008,417.174 253.342,417.174C256.168,417.174 259.117,417.789 262.188,419.017C265.137,420.164 267.717,421.679 269.928,423.563ZM254.694,438.183L249.165,446.722C248.223,444.347 245.316,443.159 240.442,443.159C238.354,443.159 236.388,443.343 234.545,443.712L235.159,439.412C238.927,437.282 242.695,436.218 246.462,436.218C249.82,436.218 252.564,436.873 254.694,438.183ZM271.464,460.482C265.731,465.929 258.728,468.652 250.455,468.652C242.06,468.652 235.159,466.666 229.753,462.694C223.692,458.271 220.662,452.005 220.662,443.896C220.662,437.712 222.791,432.061 227.051,426.942C231.596,421.495 236.941,418.731 243.084,418.649C239.439,421.638 236.634,425.324 234.668,429.706C232.784,433.924 231.842,438.45 231.842,443.282C231.842,449.507 233.572,454.462 237.033,458.148C240.493,461.834 245.295,463.677 251.438,463.677C255.042,463.677 258.421,463.001 261.574,461.649C265.096,460.134 267.778,458.005 269.621,455.261L271.464,460.482Z" style="fill:rgb(186,20,25);fill-rule:nonzero;"/>
                    </g>
                    <g>
                        <path d="M367.755,29.862L361.366,38.708C360.302,35.309 357.906,32.729 354.179,30.968C351.067,29.494 347.463,28.757 343.368,28.757C342.303,28.757 341.279,28.818 340.296,28.941C341.975,27.589 343.654,26.258 345.333,24.948C346.89,23.965 348.835,23.474 351.169,23.474C353.995,23.474 356.944,24.088 360.015,25.317C362.964,26.463 365.544,27.978 367.755,29.862ZM352.521,44.483L346.992,53.021C346.05,50.646 343.142,49.458 338.269,49.458C336.18,49.458 334.215,49.643 332.372,50.011L332.986,45.711C336.754,43.582 340.521,42.517 344.289,42.517C347.647,42.517 350.391,43.172 352.521,44.483ZM369.291,66.781C363.557,72.228 356.554,74.952 348.282,74.952C339.887,74.952 332.986,72.965 327.58,68.993C321.519,64.57 318.489,58.304 318.489,50.195C318.489,44.012 320.618,38.36 324.877,33.241C329.423,27.794 334.767,25.03 340.91,24.948C337.266,27.938 334.46,31.623 332.495,36.005C330.611,40.223 329.669,44.749 329.669,49.581C329.669,55.806 331.399,60.761 334.86,64.447C338.32,68.133 343.122,69.976 349.265,69.976C352.869,69.976 356.247,69.3 359.401,67.949C362.923,66.433 365.605,64.304 367.448,61.56L369.291,66.781Z" style="fill:rgb(186,20,25);fill-rule:nonzero;"/>
                    </g>
                    <g>
                        <path d="M367.755,128.287L361.366,137.133C360.302,133.734 357.906,131.154 354.179,129.393C351.067,127.919 347.463,127.182 343.368,127.182C342.303,127.182 341.279,127.243 340.296,127.366C341.975,126.015 343.654,124.684 345.333,123.373C346.89,122.39 348.835,121.899 351.169,121.899C353.995,121.899 356.944,122.513 360.015,123.742C362.964,124.888 365.544,126.404 367.755,128.287ZM352.521,142.908L346.992,151.446C346.05,149.071 343.142,147.884 338.269,147.884C336.18,147.884 334.215,148.068 332.372,148.436L332.986,144.136C336.754,142.007 340.521,140.942 344.289,140.942C347.647,140.942 350.391,141.597 352.521,142.908ZM369.291,165.207C363.557,170.653 356.554,173.377 348.282,173.377C339.887,173.377 332.986,171.391 327.58,167.418C321.519,162.995 318.489,156.729 318.489,148.621C318.489,142.437 320.618,136.785 324.877,131.666C329.423,126.219 334.767,123.455 340.91,123.373C337.266,126.363 334.46,130.048 332.495,134.43C330.611,138.649 329.669,143.174 329.669,148.006C329.669,154.231 331.399,159.187 334.86,162.872C338.32,166.558 343.122,168.401 349.265,168.401C352.869,168.401 356.247,167.725 359.401,166.374C362.923,164.859 365.605,162.729 367.448,159.985L369.291,165.207Z" style="fill:rgb(186,20,25);fill-rule:nonzero;"/>
                    </g>
                    <g>
                        <path d="M367.755,226.713L361.366,235.559C360.302,232.159 357.906,229.579 354.179,227.818C351.067,226.344 347.463,225.607 343.368,225.607C342.303,225.607 341.279,225.668 340.296,225.791C341.975,224.44 343.654,223.109 345.333,221.798C346.89,220.815 348.835,220.324 351.169,220.324C353.995,220.324 356.944,220.938 360.015,222.167C362.964,223.314 365.544,224.829 367.755,226.713ZM352.521,241.333L346.992,249.872C346.05,247.496 343.142,246.309 338.269,246.309C336.18,246.309 334.215,246.493 332.372,246.862L332.986,242.562C336.754,240.432 340.521,239.367 344.289,239.367C347.647,239.367 350.391,240.022 352.521,241.333ZM369.291,263.632C363.557,269.079 356.554,271.802 348.282,271.802C339.887,271.802 332.986,269.816 327.58,265.843C321.519,261.42 318.489,255.155 318.489,247.046C318.489,240.862 320.618,235.21 324.877,230.091C329.423,224.645 334.767,221.88 340.91,221.798C337.266,224.788 334.46,228.474 332.495,232.856C330.611,237.074 329.669,241.599 329.669,246.432C329.669,252.656 331.399,257.612 334.86,261.298C338.32,264.983 343.122,266.826 349.265,266.826C352.869,266.826 356.247,266.15 359.401,264.799C362.923,263.284 365.605,261.154 367.448,258.41L369.291,263.632Z" style="fill:rgb(186,20,25);fill-rule:nonzero;"/>
                    </g>
                    <g>
                        <path d="M367.755,325.138L361.366,333.984C360.302,330.585 357.906,328.005 354.179,326.244C351.067,324.769 347.463,324.032 343.368,324.032C342.303,324.032 341.279,324.094 340.296,324.216C341.975,322.865 343.654,321.534 345.333,320.224C346.89,319.241 348.835,318.749 351.169,318.749C353.995,318.749 356.944,319.364 360.015,320.592C362.964,321.739 365.544,323.254 367.755,325.138ZM352.521,339.758L346.992,348.297C346.05,345.922 343.142,344.734 338.269,344.734C336.18,344.734 334.215,344.918 332.372,345.287L332.986,340.987C336.754,338.857 340.521,337.792 344.289,337.792C347.647,337.792 350.391,338.448 352.521,339.758ZM369.291,362.057C363.557,367.504 356.554,370.227 348.282,370.227C339.887,370.227 332.986,368.241 327.58,364.269C321.519,359.846 318.489,353.58 318.489,345.471C318.489,339.287 320.618,333.636 324.877,328.517C329.423,323.07 334.767,320.305 340.91,320.224C337.266,323.213 334.46,326.899 332.495,331.281C330.611,335.499 329.669,340.024 329.669,344.857C329.669,351.082 331.399,356.037 334.86,359.723C338.32,363.408 343.122,365.251 349.265,365.251C352.869,365.251 356.247,364.576 359.401,363.224C362.923,361.709 365.605,359.579 367.448,356.836L369.291,362.057Z" style="fill:rgb(186,20,25);fill-rule:nonzero;"/>
                    </g>
                    <g>
                        <path d="M367.755,423.563L361.366,432.409C360.302,429.01 357.906,426.43 354.179,424.669C351.067,423.195 347.463,422.457 343.368,422.457C342.303,422.457 341.279,422.519 340.296,422.642C341.975,421.29 343.654,419.959 345.333,418.649C346.89,417.666 348.835,417.174 351.169,417.174C353.995,417.174 356.944,417.789 360.015,419.017C362.964,420.164 365.544,421.679 367.755,423.563ZM352.521,438.183L346.992,446.722C346.05,444.347 343.142,443.159 338.269,443.159C336.18,443.159 334.215,443.343 332.372,443.712L332.986,439.412C336.754,437.282 340.521,436.218 344.289,436.218C347.647,436.218 350.391,436.873 352.521,438.183ZM369.291,460.482C363.557,465.929 356.554,468.652 348.282,468.652C339.887,468.652 332.986,466.666 327.58,462.694C321.519,458.271 318.489,452.005 318.489,443.896C318.489,437.712 320.618,432.061 324.877,426.942C329.423,421.495 334.767,418.731 340.91,418.649C337.266,421.638 334.46,425.324 332.495,429.706C330.611,433.924 329.669,438.45 329.669,443.282C329.669,449.507 331.399,454.462 334.86,458.148C338.32,461.834 343.122,463.677 349.265,463.677C352.869,463.677 356.247,463.001 359.401,461.649C362.923,460.134 365.605,458.005 367.448,455.261L369.291,460.482Z" style="fill:rgb(186,20,25);fill-rule:nonzero;"/>
                    </g>
                    <g>
                        <path d="M465.582,29.862L459.193,38.708C458.128,35.309 455.733,32.729 452.006,30.968C448.893,29.494 445.29,28.757 441.194,28.757C440.13,28.757 439.106,28.818 438.123,28.941C439.802,27.589 441.481,26.258 443.16,24.948C444.716,23.965 446.662,23.474 448.996,23.474C451.822,23.474 454.77,24.088 457.842,25.317C460.79,26.463 463.37,27.978 465.582,29.862ZM450.347,44.483L444.819,53.021C443.877,50.646 440.969,49.458 436.096,49.458C434.007,49.458 432.041,49.643 430.198,50.011L430.813,45.711C434.58,43.582 438.348,42.517 442.116,42.517C445.474,42.517 448.218,43.172 450.347,44.483ZM467.118,66.781C461.384,72.228 454.381,74.952 446.109,74.952C437.713,74.952 430.813,72.965 425.407,68.993C419.346,64.57 416.315,58.304 416.315,50.195C416.315,44.012 418.445,38.36 422.704,33.241C427.25,27.794 432.594,25.03 438.737,24.948C435.092,27.938 432.287,31.623 430.321,36.005C428.437,40.223 427.496,44.749 427.496,49.581C427.496,55.806 429.226,60.761 432.686,64.447C436.147,68.133 440.949,69.976 447.092,69.976C450.695,69.976 454.074,69.3 457.227,67.949C460.749,66.433 463.432,64.304 465.275,61.56L467.118,66.781Z" style="fill:rgb(186,20,25);fill-rule:nonzero;"/>
                    </g>
                    <g>
                        <path d="M465.582,128.287L459.193,137.133C458.128,133.734 455.733,131.154 452.006,129.393C448.893,127.919 445.29,127.182 441.194,127.182C440.13,127.182 439.106,127.243 438.123,127.366C439.802,126.015 441.481,124.684 443.16,123.373C444.716,122.39 446.662,121.899 448.996,121.899C451.822,121.899 454.77,122.513 457.842,123.742C460.79,124.888 463.37,126.404 465.582,128.287ZM450.347,142.908L444.819,151.446C443.877,149.071 440.969,147.884 436.096,147.884C434.007,147.884 432.041,148.068 430.198,148.436L430.813,144.136C434.58,142.007 438.348,140.942 442.116,140.942C445.474,140.942 448.218,141.597 450.347,142.908ZM467.118,165.207C461.384,170.653 454.381,173.377 446.109,173.377C437.713,173.377 430.813,171.391 425.407,167.418C419.346,162.995 416.315,156.729 416.315,148.621C416.315,142.437 418.445,136.785 422.704,131.666C427.25,126.219 432.594,123.455 438.737,123.373C435.092,126.363 432.287,130.048 430.321,134.43C428.437,138.649 427.496,143.174 427.496,148.006C427.496,154.231 429.226,159.187 432.686,162.872C436.147,166.558 440.949,168.401 447.092,168.401C450.695,168.401 454.074,167.725 457.227,166.374C460.749,164.859 463.432,162.729 465.275,159.985L467.118,165.207Z" style="fill:rgb(186,20,25);fill-rule:nonzero;"/>
                    </g>
                    <g>
                        <path d="M465.582,226.713L459.193,235.559C458.128,232.159 455.733,229.579 452.006,227.818C448.893,226.344 445.29,225.607 441.194,225.607C440.13,225.607 439.106,225.668 438.123,225.791C439.802,224.44 441.481,223.109 443.16,221.798C444.716,220.815 446.662,220.324 448.996,220.324C451.822,220.324 454.77,220.938 457.842,222.167C460.79,223.314 463.37,224.829 465.582,226.713ZM450.347,241.333L444.819,249.872C443.877,247.496 440.969,246.309 436.096,246.309C434.007,246.309 432.041,246.493 430.198,246.862L430.813,242.562C434.58,240.432 438.348,239.367 442.116,239.367C445.474,239.367 448.218,240.022 450.347,241.333ZM467.118,263.632C461.384,269.079 454.381,271.802 446.109,271.802C437.713,271.802 430.813,269.816 425.407,265.843C419.346,261.42 416.315,255.155 416.315,247.046C416.315,240.862 418.445,235.21 422.704,230.091C427.25,224.645 432.594,221.88 438.737,221.798C435.092,224.788 432.287,228.474 430.321,232.856C428.437,237.074 427.496,241.599 427.496,246.432C427.496,252.656 429.226,257.612 432.686,261.298C436.147,264.983 440.949,266.826 447.092,266.826C450.695,266.826 454.074,266.15 457.227,264.799C460.749,263.284 463.432,261.154 465.275,258.41L467.118,263.632Z" style="fill:rgb(186,20,25);fill-rule:nonzero;"/>
                    </g>
                    <g>
                        <path d="M465.582,325.138L459.193,333.984C458.128,330.585 455.733,328.005 452.006,326.244C448.893,324.769 445.29,324.032 441.194,324.032C440.13,324.032 439.106,324.094 438.123,324.216C439.802,322.865 441.481,321.534 443.16,320.224C444.716,319.241 446.662,318.749 448.996,318.749C451.822,318.749 454.77,319.364 457.842,320.592C460.79,321.739 463.37,323.254 465.582,325.138ZM450.347,339.758L444.819,348.297C443.877,345.922 440.969,344.734 436.096,344.734C434.007,344.734 432.041,344.918 430.198,345.287L430.813,340.987C434.58,338.857 438.348,337.792 442.116,337.792C445.474,337.792 448.218,338.448 450.347,339.758ZM467.118,362.057C461.384,367.504 454.381,370.227 446.109,370.227C437.713,370.227 430.813,368.241 425.407,364.269C419.346,359.846 416.315,353.58 416.315,345.471C416.315,339.287 418.445,333.636 422.704,328.517C427.25,323.07 432.594,320.305 438.737,320.224C435.092,323.213 432.287,326.899 430.321,331.281C428.437,335.499 427.496,340.024 427.496,344.857C427.496,351.082 429.226,356.037 432.686,359.723C436.147,363.408 440.949,365.251 447.092,365.251C450.695,365.251 454.074,364.576 457.227,363.224C460.749,361.709 463.432,359.579 465.275,356.836L467.118,362.057Z" style="fill:rgb(186,20,25);fill-rule:nonzero;"/>
                    </g>
                    <g>
                        <path d="M465.582,423.563L459.193,432.409C458.128,429.01 455.733,426.43 452.006,424.669C448.893,423.195 445.29,422.457 441.194,422.457C440.13,422.457 439.106,422.519 438.123,422.642C439.802,421.29 441.481,419.959 443.16,418.649C444.716,417.666 446.662,417.174 448.996,417.174C451.822,417.174 454.77,417.789 457.842,419.017C460.79,420.164 463.37,421.679 465.582,423.563ZM450.347,438.183L444.819,446.722C443.877,444.347 440.969,443.159 436.096,443.159C434.007,443.159 432.041,443.343 430.198,443.712L430.813,439.412C434.58,437.282 438.348,436.218 442.116,436.218C445.474,436.218 448.218,436.873 450.347,438.183ZM467.118,460.482C461.384,465.929 454.381,468.652 446.109,468.652C437.713,468.652 430.813,466.666 425.407,462.694C419.346,458.271 416.315,452.005 416.315,443.896C416.315,437.712 418.445,432.061 422.704,426.942C427.25,421.495 432.594,418.731 438.737,418.649C435.092,421.638 432.287,425.324 430.321,429.706C428.437,433.924 427.496,438.45 427.496,443.282C427.496,449.507 429.226,454.462 432.686,458.148C436.147,461.834 440.949,463.677 447.092,463.677C450.695,463.677 454.074,463.001 457.227,461.649C460.749,460.134 463.432,458.005 465.275,455.261L467.118,460.482Z" style="fill:rgb(186,20,25);fill-rule:nonzero;"/>
                    </g>
                </g>
            </g>
        </g>
        <path d="M246.063,98.425C327.547,98.425 393.701,164.579 393.701,246.063C393.701,327.547 327.547,393.701 246.063,393.701C164.579,393.701 98.425,327.547 98.425,246.063C98.425,164.579 164.579,98.425 246.063,98.425ZM246.063,108.842C170.329,108.842 108.842,170.329 108.842,246.063C108.842,321.797 170.329,383.284 246.063,383.284C321.797,383.284 383.284,321.797 383.284,246.063C383.284,170.329 321.797,108.842 246.063,108.842Z" style="fill:rgb(34,0,0);"/>
    </g>
</svg>
