<?xml version="1.0" encoding="UTF-8" standalone="no"?>
<!DOCTYPE svg PUBLIC "-//W3C//DTD SVG 1.1//EN" "http://www.w3.org/Graphics/SVG/1.1/DTD/svg11.dtd">
<svg width="100%" height="100%" viewBox="0 0 50 50" version="1.1" xmlns="http://www.w3.org/2000/svg" xmlns:xlink="http://www.w3.org/1999/xlink" xml:space="preserve" xmlns:serif="http://www.serif.com/" style="fill-rule:evenodd;clip-rule:evenodd;stroke-linejoin:round;stroke-miterlimit:2;">
    <g transform="matrix(0.10142,0,0,0.10142,0,0)">
        <g id="Friendly-30">
            <circle cx="246.063" cy="246.063" r="147.638" style="fill:rgb(134,172,191);"/>
            <g>
                <clipPath id="_clip1">
                    <circle cx="246.063" cy="246.063" r="147.638"/>
                </clipPath>
                <g clip-path="url(#_clip1)">
                    <g>
                        <g>
                            <path d="M75.426,315.504C75.378,318.664 73.069,322.893 68.499,328.191C65.971,325.955 62.933,324.144 59.384,322.759C55.836,321.374 52.409,320.681 49.103,320.681C45.214,320.681 41.544,321.605 38.093,323.452L38.822,317.691C44.072,314.92 51.023,313.535 59.676,313.535C64.878,313.535 70.128,314.191 75.426,315.504ZM59.093,336.504L52.603,348.098C50.805,344.16 46.43,342.191 39.478,342.191C38.506,342.191 37.558,342.24 36.634,342.337L37.364,336.868C41.253,335.216 45.166,334.389 49.103,334.389C53.187,334.389 56.516,335.094 59.093,336.504ZM38.457,370.556L25.041,376.389C23.68,370.021 22.999,363.459 22.999,356.702C22.999,349.313 23.777,341.778 25.332,334.098C26.985,325.882 29.294,318.712 32.259,312.587L35.541,315.139C34.034,319.368 33.28,324.934 33.28,331.837C33.28,343.844 35.006,356.75 38.457,370.556Z" style="fill:rgb(35,32,118);fill-rule:nonzero;"/>
                            <path d="M173.851,315.504C173.803,318.664 171.494,322.893 166.924,328.191C164.396,325.955 161.358,324.144 157.81,322.759C154.261,321.374 150.834,320.681 147.528,320.681C143.64,320.681 139.969,321.605 136.518,323.452L137.247,317.691C142.497,314.92 149.449,313.535 158.101,313.535C163.303,313.535 168.553,314.191 173.851,315.504ZM157.518,336.504L151.028,348.098C149.23,344.16 144.855,342.191 137.903,342.191C136.931,342.191 135.983,342.24 135.06,342.337L135.789,336.868C139.678,335.216 143.591,334.389 147.528,334.389C151.612,334.389 154.942,335.094 157.518,336.504ZM136.883,370.556L123.466,376.389C122.105,370.021 121.424,363.459 121.424,356.702C121.424,349.313 122.202,341.778 123.758,334.098C125.41,325.882 127.719,318.712 130.685,312.587L133.966,315.139C132.459,319.368 131.706,324.934 131.706,331.837C131.706,343.844 133.431,356.75 136.883,370.556Z" style="fill:rgb(35,32,118);fill-rule:nonzero;"/>
                            <path d="M272.277,315.504C272.228,318.664 269.919,322.893 265.349,328.191C262.822,325.955 259.783,324.144 256.235,322.759C252.686,321.374 249.259,320.681 245.954,320.681C242.065,320.681 238.395,321.605 234.943,323.452L235.672,317.691C240.922,314.92 247.874,313.535 256.527,313.535C261.728,313.535 266.978,314.191 272.277,315.504ZM255.943,336.504L249.454,348.098C247.655,344.16 243.28,342.191 236.329,342.191C235.356,342.191 234.408,342.24 233.485,342.337L234.214,336.868C238.103,335.216 242.016,334.389 245.954,334.389C250.037,334.389 253.367,335.094 255.943,336.504ZM235.308,370.556L221.891,376.389C220.53,370.021 219.849,363.459 219.849,356.702C219.849,349.313 220.627,341.778 222.183,334.098C223.836,325.882 226.145,318.712 229.11,312.587L232.391,315.139C230.884,319.368 230.131,324.934 230.131,331.837C230.131,343.844 231.856,356.75 235.308,370.556Z" style="fill:rgb(35,32,118);fill-rule:nonzero;"/>
                            <path d="M370.702,315.504C370.653,318.664 368.344,322.893 363.775,328.191C361.247,325.955 358.209,324.144 354.66,322.759C351.111,321.374 347.684,320.681 344.379,320.681C340.49,320.681 336.82,321.605 333.368,323.452L334.098,317.691C339.348,314.92 346.299,313.535 354.952,313.535C360.153,313.535 365.403,314.191 370.702,315.504ZM354.368,336.504L347.879,348.098C346.08,344.16 341.705,342.191 334.754,342.191C333.782,342.191 332.834,342.24 331.91,342.337L332.639,336.868C336.528,335.216 340.441,334.389 344.379,334.389C348.462,334.389 351.792,335.094 354.368,336.504ZM333.733,370.556L320.316,376.389C318.955,370.021 318.275,363.459 318.275,356.702C318.275,349.313 319.052,341.778 320.608,334.098C322.261,325.882 324.57,318.712 327.535,312.587L330.816,315.139C329.309,319.368 328.556,324.934 328.556,331.837C328.556,343.844 330.282,356.75 333.733,370.556Z" style="fill:rgb(35,32,118);fill-rule:nonzero;"/>
                            <path d="M469.127,315.504C469.078,318.664 466.769,322.893 462.2,328.191C459.672,325.955 456.634,324.144 453.085,322.759C449.537,321.374 446.11,320.681 442.804,320.681C438.915,320.681 435.245,321.605 431.794,323.452L432.523,317.691C437.773,314.92 444.724,313.535 453.377,313.535C458.578,313.535 463.828,314.191 469.127,315.504ZM452.794,336.504L446.304,348.098C444.505,344.16 440.13,342.191 433.179,342.191C432.207,342.191 431.259,342.24 430.335,342.337L431.064,336.868C434.953,335.216 438.867,334.389 442.804,334.389C446.887,334.389 450.217,335.094 452.794,336.504ZM432.158,370.556L418.742,376.389C417.38,370.021 416.7,363.459 416.7,356.702C416.7,349.313 417.478,341.778 419.033,334.098C420.686,325.882 422.995,318.712 425.96,312.587L429.242,315.139C427.735,319.368 426.981,324.934 426.981,331.837C426.981,343.844 428.707,356.75 432.158,370.556Z" style="fill:rgb(35,32,118);fill-rule:nonzero;"/>
                        </g>
                        <g>
                            <path d="M75.426,413.929C75.378,417.089 73.069,421.318 68.499,426.617C65.971,424.38 62.933,422.57 59.384,421.184C55.836,419.799 52.409,419.106 49.103,419.106C45.214,419.106 41.544,420.03 38.093,421.877L38.822,416.117C44.072,413.346 51.023,411.96 59.676,411.96C64.878,411.96 70.128,412.617 75.426,413.929ZM59.093,434.929L52.603,446.523C50.805,442.585 46.43,440.617 39.478,440.617C38.506,440.617 37.558,440.665 36.634,440.762L37.364,435.294C41.253,433.641 45.166,432.814 49.103,432.814C53.187,432.814 56.516,433.519 59.093,434.929ZM38.457,468.981L25.041,474.814C23.68,468.446 22.999,461.884 22.999,455.127C22.999,447.738 23.777,440.203 25.332,432.523C26.985,424.307 29.294,417.137 32.259,411.012L35.541,413.564C34.034,417.794 33.28,423.36 33.28,430.262C33.28,442.269 35.006,455.176 38.457,468.981Z" style="fill:rgb(35,32,118);fill-rule:nonzero;"/>
                            <path d="M173.851,413.929C173.803,417.089 171.494,421.318 166.924,426.617C164.396,424.38 161.358,422.57 157.81,421.184C154.261,419.799 150.834,419.106 147.528,419.106C143.64,419.106 139.969,420.03 136.518,421.877L137.247,416.117C142.497,413.346 149.449,411.96 158.101,411.96C163.303,411.96 168.553,412.617 173.851,413.929ZM157.518,434.929L151.028,446.523C149.23,442.585 144.855,440.617 137.903,440.617C136.931,440.617 135.983,440.665 135.06,440.762L135.789,435.294C139.678,433.641 143.591,432.814 147.528,432.814C151.612,432.814 154.942,433.519 157.518,434.929ZM136.883,468.981L123.466,474.814C122.105,468.446 121.424,461.884 121.424,455.127C121.424,447.738 122.202,440.203 123.758,432.523C125.41,424.307 127.719,417.137 130.685,411.012L133.966,413.564C132.459,417.794 131.706,423.36 131.706,430.262C131.706,442.269 133.431,455.176 136.883,468.981Z" style="fill:rgb(35,32,118);fill-rule:nonzero;"/>
                            <path d="M272.277,413.929C272.228,417.089 269.919,421.318 265.349,426.617C262.822,424.38 259.783,422.57 256.235,421.184C252.686,419.799 249.259,419.106 245.954,419.106C242.065,419.106 238.395,420.03 234.943,421.877L235.672,416.117C240.922,413.346 247.874,411.96 256.527,411.96C261.728,411.96 266.978,412.617 272.277,413.929ZM255.943,434.929L249.454,446.523C247.655,442.585 243.28,440.617 236.329,440.617C235.356,440.617 234.408,440.665 233.485,440.762L234.214,435.294C238.103,433.641 242.016,432.814 245.954,432.814C250.037,432.814 253.367,433.519 255.943,434.929ZM235.308,468.981L221.891,474.814C220.53,468.446 219.849,461.884 219.849,455.127C219.849,447.738 220.627,440.203 222.183,432.523C223.836,424.307 226.145,417.137 229.11,411.012L232.391,413.564C230.884,417.794 230.131,423.36 230.131,430.262C230.131,442.269 231.856,455.176 235.308,468.981Z" style="fill:rgb(35,32,118);fill-rule:nonzero;"/>
                            <path d="M370.702,413.929C370.653,417.089 368.344,421.318 363.775,426.617C361.247,424.38 358.209,422.57 354.66,421.184C351.111,419.799 347.684,419.106 344.379,419.106C340.49,419.106 336.82,420.03 333.368,421.877L334.098,416.117C339.348,413.346 346.299,411.96 354.952,411.96C360.153,411.96 365.403,412.617 370.702,413.929ZM354.368,434.929L347.879,446.523C346.08,442.585 341.705,440.617 334.754,440.617C333.782,440.617 332.834,440.665 331.91,440.762L332.639,435.294C336.528,433.641 340.441,432.814 344.379,432.814C348.462,432.814 351.792,433.519 354.368,434.929ZM333.733,468.981L320.316,474.814C318.955,468.446 318.275,461.884 318.275,455.127C318.275,447.738 319.052,440.203 320.608,432.523C322.261,424.307 324.57,417.137 327.535,411.012L330.816,413.564C329.309,417.794 328.556,423.36 328.556,430.262C328.556,442.269 330.282,455.176 333.733,468.981Z" style="fill:rgb(35,32,118);fill-rule:nonzero;"/>
                            <path d="M469.127,413.929C469.078,417.089 466.769,421.318 462.2,426.617C459.672,424.38 456.634,422.57 453.085,421.184C449.537,419.799 446.11,419.106 442.804,419.106C438.915,419.106 435.245,420.03 431.794,421.877L432.523,416.117C437.773,413.346 444.724,411.96 453.377,411.96C458.578,411.96 463.828,412.617 469.127,413.929ZM452.794,434.929L446.304,446.523C444.505,442.585 440.13,440.617 433.179,440.617C432.207,440.617 431.259,440.665 430.335,440.762L431.064,435.294C434.953,433.641 438.867,432.814 442.804,432.814C446.887,432.814 450.217,433.519 452.794,434.929ZM432.158,468.981L418.742,474.814C417.38,468.446 416.7,461.884 416.7,455.127C416.7,447.738 417.478,440.203 419.033,432.523C420.686,424.307 422.995,417.137 425.96,411.012L429.242,413.564C427.735,417.794 426.981,423.36 426.981,430.262C426.981,442.269 428.707,455.176 432.158,468.981Z" style="fill:rgb(35,32,118);fill-rule:nonzero;"/>
                        </g>
                        <g>
                            <path d="M453.412,-28.984C453.461,-25.825 455.77,-21.595 460.34,-16.297C462.867,-18.533 465.905,-20.344 469.454,-21.729C473.003,-23.115 476.43,-23.807 479.735,-23.807C483.624,-23.807 487.294,-22.884 490.746,-21.036L490.017,-26.797C484.767,-29.568 477.815,-30.953 469.162,-30.953C463.961,-30.953 458.711,-30.297 453.412,-28.984ZM469.746,-7.984L476.235,3.609C478.034,-0.328 482.409,-2.297 489.36,-2.297C490.333,-2.297 491.28,-2.248 492.204,-2.151L491.475,-7.62C487.586,-9.273 483.673,-10.099 479.735,-10.099C475.652,-10.099 472.322,-9.394 469.746,-7.984ZM490.381,26.068L503.798,31.901C505.159,25.533 505.84,18.97 505.84,12.214C505.84,4.825 505.062,-2.71 503.506,-10.391C501.853,-18.606 499.544,-25.776 496.579,-31.901L493.298,-29.349C494.805,-25.12 495.558,-19.554 495.558,-12.651C495.558,-0.644 493.833,12.262 490.381,26.068Z" style="fill:rgb(35,32,118);fill-rule:nonzero;"/>
                            <path d="M354.987,-28.984C355.036,-25.825 357.345,-21.595 361.914,-16.297C364.442,-18.533 367.48,-20.344 371.029,-21.729C374.578,-23.115 378.005,-23.807 381.31,-23.807C385.199,-23.807 388.869,-22.884 392.321,-21.036L391.591,-26.797C386.341,-29.568 379.39,-30.953 370.737,-30.953C365.536,-30.953 360.286,-30.297 354.987,-28.984ZM371.321,-7.984L377.81,3.609C379.609,-0.328 383.984,-2.297 390.935,-2.297C391.907,-2.297 392.855,-2.248 393.779,-2.151L393.05,-7.62C389.161,-9.273 385.248,-10.099 381.31,-10.099C377.227,-10.099 373.897,-9.394 371.321,-7.984ZM391.956,26.068L405.373,31.901C406.734,25.533 407.414,18.97 407.414,12.214C407.414,4.825 406.637,-2.71 405.081,-10.391C403.428,-18.606 401.119,-25.776 398.154,-31.901L394.873,-29.349C396.38,-25.12 397.133,-19.554 397.133,-12.651C397.133,-0.644 395.407,12.262 391.956,26.068Z" style="fill:rgb(35,32,118);fill-rule:nonzero;"/>
                            <path d="M256.562,-28.984C256.611,-25.825 258.92,-21.595 263.489,-16.297C266.017,-18.533 269.055,-20.344 272.604,-21.729C276.152,-23.115 279.579,-23.807 282.885,-23.807C286.774,-23.807 290.444,-22.884 293.895,-21.036L293.166,-26.797C287.916,-29.568 280.965,-30.953 272.312,-30.953C267.111,-30.953 261.861,-30.297 256.562,-28.984ZM272.895,-7.984L279.385,3.609C281.184,-0.328 285.559,-2.297 292.51,-2.297C293.482,-2.297 294.43,-2.248 295.354,-2.151L294.625,-7.62C290.736,-9.273 286.822,-10.099 282.885,-10.099C278.802,-10.099 275.472,-9.394 272.895,-7.984ZM293.531,26.068L306.947,31.901C308.309,25.533 308.989,18.97 308.989,12.214C308.989,4.825 308.211,-2.71 306.656,-10.391C305.003,-18.606 302.694,-25.776 299.729,-31.901L296.447,-29.349C297.954,-25.12 298.708,-19.554 298.708,-12.651C298.708,-0.644 296.982,12.262 293.531,26.068Z" style="fill:rgb(35,32,118);fill-rule:nonzero;"/>
                            <path d="M158.137,-28.984C158.185,-25.825 160.494,-21.595 165.064,-16.297C167.592,-18.533 170.63,-20.344 174.179,-21.729C177.727,-23.115 181.154,-23.807 184.46,-23.807C188.349,-23.807 192.019,-22.884 195.47,-21.036L194.741,-26.797C189.491,-29.568 182.54,-30.953 173.887,-30.953C168.685,-30.953 163.435,-30.297 158.137,-28.984ZM174.47,-7.984L180.96,3.609C182.758,-0.328 187.133,-2.297 194.085,-2.297C195.057,-2.297 196.005,-2.248 196.929,-2.151L196.199,-7.62C192.31,-9.273 188.397,-10.099 184.46,-10.099C180.376,-10.099 177.047,-9.394 174.47,-7.984ZM195.106,26.068L208.522,31.901C209.883,25.533 210.564,18.97 210.564,12.214C210.564,4.825 209.786,-2.71 208.231,-10.391C206.578,-18.606 204.269,-25.776 201.304,-31.901L198.022,-29.349C199.529,-25.12 200.283,-19.554 200.283,-12.651C200.283,-0.644 198.557,12.262 195.106,26.068Z" style="fill:rgb(35,32,118);fill-rule:nonzero;"/>
                            <path d="M59.712,-28.984C59.76,-25.825 62.069,-21.595 66.639,-16.297C69.167,-18.533 72.205,-20.344 75.753,-21.729C79.302,-23.115 82.729,-23.807 86.035,-23.807C89.923,-23.807 93.594,-22.884 97.045,-21.036L96.316,-26.797C91.066,-29.568 84.114,-30.953 75.462,-30.953C70.26,-30.953 65.01,-30.297 59.712,-28.984ZM76.045,-7.984L82.535,3.609C84.333,-0.328 88.708,-2.297 95.66,-2.297C96.632,-2.297 97.58,-2.248 98.503,-2.151L97.774,-7.62C93.885,-9.273 89.972,-10.099 86.035,-10.099C81.951,-10.099 78.621,-9.394 76.045,-7.984ZM96.68,26.068L110.097,31.901C111.458,25.533 112.139,18.97 112.139,12.214C112.139,4.825 111.361,-2.71 109.805,-10.391C108.153,-18.606 105.844,-25.776 102.878,-31.901L99.597,-29.349C101.104,-25.12 101.857,-19.554 101.857,-12.651C101.857,-0.644 100.132,12.262 96.68,26.068Z" style="fill:rgb(35,32,118);fill-rule:nonzero;"/>
                            <path d="M-38.714,-28.984C-38.665,-25.825 -36.356,-21.595 -31.786,-16.297C-29.259,-18.533 -26.22,-20.344 -22.672,-21.729C-19.123,-23.115 -15.696,-23.807 -12.391,-23.807C-8.502,-23.807 -4.832,-22.884 -1.38,-21.036L-2.109,-26.797C-7.359,-29.568 -14.311,-30.953 -22.964,-30.953C-28.165,-30.953 -33.415,-30.297 -38.714,-28.984ZM-22.38,-7.984L-15.891,3.609C-14.092,-0.328 -9.717,-2.297 -2.766,-2.297C-1.793,-2.297 -0.845,-2.248 0.078,-2.151L-0.651,-7.62C-4.54,-9.273 -8.453,-10.099 -12.391,-10.099C-16.474,-10.099 -19.804,-9.394 -22.38,-7.984ZM-1.745,26.068L11.672,31.901C13.033,25.533 13.714,18.97 13.714,12.214C13.714,4.825 12.936,-2.71 11.38,-10.391C9.727,-18.606 7.418,-25.776 4.453,-31.901L1.172,-29.349C2.679,-25.12 3.432,-19.554 3.432,-12.651C3.432,-0.644 1.707,12.262 -1.745,26.068Z" style="fill:rgb(35,32,118);fill-rule:nonzero;"/>
                        </g>
                        <g>
                            <path d="M453.412,69.441C453.461,72.601 455.77,76.83 460.34,82.128C462.867,79.892 465.905,78.081 469.454,76.696C473.003,75.311 476.43,74.618 479.735,74.618C483.624,74.618 487.294,75.542 490.746,77.389L490.017,71.628C484.767,68.857 477.815,67.472 469.162,67.472C463.961,67.472 458.711,68.128 453.412,69.441ZM469.746,90.441L476.235,102.035C478.034,98.097 482.409,96.128 489.36,96.128C490.333,96.128 491.28,96.177 492.204,96.274L491.475,90.805C487.586,89.153 483.673,88.326 479.735,88.326C475.652,88.326 472.322,89.031 469.746,90.441ZM490.381,124.493L503.798,130.326C505.159,123.958 505.84,117.396 505.84,110.639C505.84,103.25 505.062,95.715 503.506,88.035C501.853,79.819 499.544,72.649 496.579,66.524L493.298,69.076C494.805,73.305 495.558,78.871 495.558,85.774C495.558,97.781 493.833,110.687 490.381,124.493Z" style="fill:rgb(35,32,118);fill-rule:nonzero;"/>
                            <path d="M354.987,69.441C355.036,72.601 357.345,76.83 361.914,82.128C364.442,79.892 367.48,78.081 371.029,76.696C374.578,75.311 378.005,74.618 381.31,74.618C385.199,74.618 388.869,75.542 392.321,77.389L391.591,71.628C386.341,68.857 379.39,67.472 370.737,67.472C365.536,67.472 360.286,68.128 354.987,69.441ZM371.321,90.441L377.81,102.035C379.609,98.097 383.984,96.128 390.935,96.128C391.907,96.128 392.855,96.177 393.779,96.274L393.05,90.805C389.161,89.153 385.248,88.326 381.31,88.326C377.227,88.326 373.897,89.031 371.321,90.441ZM391.956,124.493L405.373,130.326C406.734,123.958 407.414,117.396 407.414,110.639C407.414,103.25 406.637,95.715 405.081,88.035C403.428,79.819 401.119,72.649 398.154,66.524L394.873,69.076C396.38,73.305 397.133,78.871 397.133,85.774C397.133,97.781 395.407,110.687 391.956,124.493Z" style="fill:rgb(35,32,118);fill-rule:nonzero;"/>
                            <path d="M256.562,69.441C256.611,72.601 258.92,76.83 263.489,82.128C266.017,79.892 269.055,78.081 272.604,76.696C276.152,75.311 279.579,74.618 282.885,74.618C286.774,74.618 290.444,75.542 293.895,77.389L293.166,71.628C287.916,68.857 280.965,67.472 272.312,67.472C267.111,67.472 261.861,68.128 256.562,69.441ZM272.895,90.441L279.385,102.035C281.184,98.097 285.559,96.128 292.51,96.128C293.482,96.128 294.43,96.177 295.354,96.274L294.625,90.805C290.736,89.153 286.822,88.326 282.885,88.326C278.802,88.326 275.472,89.031 272.895,90.441ZM293.531,124.493L306.947,130.326C308.309,123.958 308.989,117.396 308.989,110.639C308.989,103.25 308.211,95.715 306.656,88.035C305.003,79.819 302.694,72.649 299.729,66.524L296.447,69.076C297.954,73.305 298.708,78.871 298.708,85.774C298.708,97.781 296.982,110.687 293.531,124.493Z" style="fill:rgb(35,32,118);fill-rule:nonzero;"/>
                            <path d="M158.137,69.441C158.185,72.601 160.494,76.83 165.064,82.128C167.592,79.892 170.63,78.081 174.179,76.696C177.727,75.311 181.154,74.618 184.46,74.618C188.349,74.618 192.019,75.542 195.47,77.389L194.741,71.628C189.491,68.857 182.54,67.472 173.887,67.472C168.685,67.472 163.435,68.128 158.137,69.441ZM174.47,90.441L180.96,102.035C182.758,98.097 187.133,96.128 194.085,96.128C195.057,96.128 196.005,96.177 196.929,96.274L196.199,90.805C192.31,89.153 188.397,88.326 184.46,88.326C180.376,88.326 177.047,89.031 174.47,90.441ZM195.106,124.493L208.522,130.326C209.883,123.958 210.564,117.396 210.564,110.639C210.564,103.25 209.786,95.715 208.231,88.035C206.578,79.819 204.269,72.649 201.304,66.524L198.022,69.076C199.529,73.305 200.283,78.871 200.283,85.774C200.283,97.781 198.557,110.687 195.106,124.493Z" style="fill:rgb(35,32,118);fill-rule:nonzero;"/>
                            <path d="M59.712,69.441C59.76,72.601 62.069,76.83 66.639,82.128C69.167,79.892 72.205,78.081 75.753,76.696C79.302,75.311 82.729,74.618 86.035,74.618C89.923,74.618 93.594,75.542 97.045,77.389L96.316,71.628C91.066,68.857 84.114,67.472 75.462,67.472C70.26,67.472 65.01,68.128 59.712,69.441ZM76.045,90.441L82.535,102.035C84.333,98.097 88.708,96.128 95.66,96.128C96.632,96.128 97.58,96.177 98.503,96.274L97.774,90.805C93.885,89.153 89.972,88.326 86.035,88.326C81.951,88.326 78.621,89.031 76.045,90.441ZM96.68,124.493L110.097,130.326C111.458,123.958 112.139,117.396 112.139,110.639C112.139,103.25 111.361,95.715 109.805,88.035C108.153,79.819 105.844,72.649 102.878,66.524L99.597,69.076C101.104,73.305 101.857,78.871 101.857,85.774C101.857,97.781 100.132,110.687 96.68,124.493Z" style="fill:rgb(35,32,118);fill-rule:nonzero;"/>
                            <path d="M-38.714,69.441C-38.665,72.601 -36.356,76.83 -31.786,82.128C-29.259,79.892 -26.22,78.081 -22.672,76.696C-19.123,75.311 -15.696,74.618 -12.391,74.618C-8.502,74.618 -4.832,75.542 -1.38,77.389L-2.109,71.628C-7.359,68.857 -14.311,67.472 -22.964,67.472C-28.165,67.472 -33.415,68.128 -38.714,69.441ZM-22.38,90.441L-15.891,102.035C-14.092,98.097 -9.717,96.128 -2.766,96.128C-1.793,96.128 -0.845,96.177 0.078,96.274L-0.651,90.805C-4.54,89.153 -8.453,88.326 -12.391,88.326C-16.474,88.326 -19.804,89.031 -22.38,90.441ZM-1.745,124.493L11.672,130.326C13.033,123.958 13.714,117.396 13.714,110.639C13.714,103.25 12.936,95.715 11.38,88.035C9.727,79.819 7.418,72.649 4.453,66.524L1.172,69.076C2.679,73.305 3.432,78.871 3.432,85.774C3.432,97.781 1.707,110.687 -1.745,124.493Z" style="fill:rgb(35,32,118);fill-rule:nonzero;"/>
                        </g>
                        <g>
                            <g>
                                <path d="M75.426,20.228C75.378,23.388 73.069,27.617 68.499,32.916C65.971,30.68 62.933,28.869 59.384,27.483C55.836,26.098 52.409,25.405 49.103,25.405C45.214,25.405 41.544,26.329 38.093,28.176L38.822,22.416C44.072,19.645 51.023,18.259 59.676,18.259C64.878,18.259 70.128,18.916 75.426,20.228ZM59.093,41.228L52.603,52.822C50.805,48.884 46.43,46.916 39.478,46.916C38.506,46.916 37.558,46.964 36.634,47.062L37.364,41.593C41.253,39.94 45.166,39.114 49.103,39.114C53.187,39.114 56.516,39.819 59.093,41.228ZM38.457,75.28L25.041,81.114C23.68,74.746 22.999,68.183 22.999,61.426C22.999,54.037 23.777,46.503 25.332,38.822C26.985,30.607 29.294,23.437 32.259,17.312L35.541,19.864C34.034,24.093 33.28,29.659 33.28,36.562C33.28,48.569 35.006,61.475 38.457,75.28Z" style="fill:rgb(35,32,118);fill-rule:nonzero;"/>
                                <path d="M173.851,20.228C173.803,23.388 171.494,27.617 166.924,32.916C164.396,30.68 161.358,28.869 157.81,27.483C154.261,26.098 150.834,25.405 147.528,25.405C143.64,25.405 139.969,26.329 136.518,28.176L137.247,22.416C142.497,19.645 149.449,18.259 158.101,18.259C163.303,18.259 168.553,18.916 173.851,20.228ZM157.518,41.228L151.028,52.822C149.23,48.884 144.855,46.916 137.903,46.916C136.931,46.916 135.983,46.964 135.06,47.062L135.789,41.593C139.678,39.94 143.591,39.114 147.528,39.114C151.612,39.114 154.942,39.819 157.518,41.228ZM136.883,75.28L123.466,81.114C122.105,74.746 121.424,68.183 121.424,61.426C121.424,54.037 122.202,46.503 123.758,38.822C125.41,30.607 127.719,23.437 130.685,17.312L133.966,19.864C132.459,24.093 131.706,29.659 131.706,36.562C131.706,48.569 133.431,61.475 136.883,75.28Z" style="fill:rgb(35,32,118);fill-rule:nonzero;"/>
                                <path d="M272.277,20.228C272.228,23.388 269.919,27.617 265.349,32.916C262.822,30.68 259.783,28.869 256.235,27.483C252.686,26.098 249.259,25.405 245.954,25.405C242.065,25.405 238.395,26.329 234.943,28.176L235.672,22.416C240.922,19.645 247.874,18.259 256.527,18.259C261.728,18.259 266.978,18.916 272.277,20.228ZM255.943,41.228L249.454,52.822C247.655,48.884 243.28,46.916 236.329,46.916C235.356,46.916 234.408,46.964 233.485,47.062L234.214,41.593C238.103,39.94 242.016,39.114 245.954,39.114C250.037,39.114 253.367,39.819 255.943,41.228ZM235.308,75.28L221.891,81.114C220.53,74.746 219.849,68.183 219.849,61.426C219.849,54.037 220.627,46.503 222.183,38.822C223.836,30.607 226.145,23.437 229.11,17.312L232.391,19.864C230.884,24.093 230.131,29.659 230.131,36.562C230.131,48.569 231.856,61.475 235.308,75.28Z" style="fill:rgb(35,32,118);fill-rule:nonzero;"/>
                                <path d="M370.702,20.228C370.653,23.388 368.344,27.617 363.775,32.916C361.247,30.68 358.209,28.869 354.66,27.483C351.111,26.098 347.684,25.405 344.379,25.405C340.49,25.405 336.82,26.329 333.368,28.176L334.098,22.416C339.348,19.645 346.299,18.259 354.952,18.259C360.153,18.259 365.403,18.916 370.702,20.228ZM354.368,41.228L347.879,52.822C346.08,48.884 341.705,46.916 334.754,46.916C333.782,46.916 332.834,46.964 331.91,47.062L332.639,41.593C336.528,39.94 340.441,39.114 344.379,39.114C348.462,39.114 351.792,39.819 354.368,41.228ZM333.733,75.28L320.316,81.114C318.955,74.746 318.275,68.183 318.275,61.426C318.275,54.037 319.052,46.503 320.608,38.822C322.261,30.607 324.57,23.437 327.535,17.312L330.816,19.864C329.309,24.093 328.556,29.659 328.556,36.562C328.556,48.569 330.282,61.475 333.733,75.28Z" style="fill:rgb(35,32,118);fill-rule:nonzero;"/>
                                <path d="M469.127,20.228C469.078,23.388 466.769,27.617 462.2,32.916C459.672,30.68 456.634,28.869 453.085,27.483C449.537,26.098 446.11,25.405 442.804,25.405C438.915,25.405 435.245,26.329 431.794,28.176L432.523,22.416C437.773,19.645 444.724,18.259 453.377,18.259C458.578,18.259 463.828,18.916 469.127,20.228ZM452.794,41.228L446.304,52.822C444.505,48.884 440.13,46.916 433.179,46.916C432.207,46.916 431.259,46.964 430.335,47.062L431.064,41.593C434.953,39.94 438.867,39.114 442.804,39.114C446.887,39.114 450.217,39.819 452.794,41.228ZM432.158,75.28L418.742,81.114C417.38,74.746 416.7,68.183 416.7,61.426C416.7,54.037 417.478,46.503 419.033,38.822C420.686,30.607 422.995,23.437 425.96,17.312L429.242,19.864C427.735,24.093 426.981,29.659 426.981,36.562C426.981,48.569 428.707,61.475 432.158,75.28Z" style="fill:rgb(35,32,118);fill-rule:nonzero;"/>
                            </g>
                        </g>
                        <g>
                            <path d="M75.426,118.653C75.378,121.813 73.069,126.042 68.499,131.341C65.971,129.105 62.933,127.294 59.384,125.909C55.836,124.523 52.409,123.831 49.103,123.831C45.214,123.831 41.544,124.754 38.093,126.601L38.822,120.841C44.072,118.07 51.023,116.685 59.676,116.685C64.878,116.685 70.128,117.341 75.426,118.653ZM59.093,139.653L52.603,151.247C50.805,147.31 46.43,145.341 39.478,145.341C38.506,145.341 37.558,145.39 36.634,145.487L37.364,140.018C41.253,138.365 45.166,137.539 49.103,137.539C53.187,137.539 56.516,138.244 59.093,139.653ZM38.457,173.706L25.041,179.539C23.68,173.171 22.999,166.608 22.999,159.851C22.999,152.462 23.777,144.928 25.332,137.247C26.985,129.032 29.294,121.862 32.259,115.737L35.541,118.289C34.034,122.518 33.28,128.084 33.28,134.987C33.28,146.994 35.006,159.9 38.457,173.706Z" style="fill:rgb(35,32,118);fill-rule:nonzero;"/>
                            <path d="M173.851,118.653C173.803,121.813 171.494,126.042 166.924,131.341C164.396,129.105 161.358,127.294 157.81,125.909C154.261,124.523 150.834,123.831 147.528,123.831C143.64,123.831 139.969,124.754 136.518,126.601L137.247,120.841C142.497,118.07 149.449,116.685 158.101,116.685C163.303,116.685 168.553,117.341 173.851,118.653ZM157.518,139.653L151.028,151.247C149.23,147.31 144.855,145.341 137.903,145.341C136.931,145.341 135.983,145.39 135.06,145.487L135.789,140.018C139.678,138.365 143.591,137.539 147.528,137.539C151.612,137.539 154.942,138.244 157.518,139.653ZM136.883,173.706L123.466,179.539C122.105,173.171 121.424,166.608 121.424,159.851C121.424,152.462 122.202,144.928 123.758,137.247C125.41,129.032 127.719,121.862 130.685,115.737L133.966,118.289C132.459,122.518 131.706,128.084 131.706,134.987C131.706,146.994 133.431,159.9 136.883,173.706Z" style="fill:rgb(35,32,118);fill-rule:nonzero;"/>
                            <path d="M272.277,118.653C272.228,121.813 269.919,126.042 265.349,131.341C262.822,129.105 259.783,127.294 256.235,125.909C252.686,124.523 249.259,123.831 245.954,123.831C242.065,123.831 238.395,124.754 234.943,126.601L235.672,120.841C240.922,118.07 247.874,116.685 256.527,116.685C261.728,116.685 266.978,117.341 272.277,118.653ZM255.943,139.653L249.454,151.247C247.655,147.31 243.28,145.341 236.329,145.341C235.356,145.341 234.408,145.39 233.485,145.487L234.214,140.018C238.103,138.365 242.016,137.539 245.954,137.539C250.037,137.539 253.367,138.244 255.943,139.653ZM235.308,173.706L221.891,179.539C220.53,173.171 219.849,166.608 219.849,159.851C219.849,152.462 220.627,144.928 222.183,137.247C223.836,129.032 226.145,121.862 229.11,115.737L232.391,118.289C230.884,122.518 230.131,128.084 230.131,134.987C230.131,146.994 231.856,159.9 235.308,173.706Z" style="fill:rgb(35,32,118);fill-rule:nonzero;"/>
                            <path d="M370.702,118.653C370.653,121.813 368.344,126.042 363.775,131.341C361.247,129.105 358.209,127.294 354.66,125.909C351.111,124.523 347.684,123.831 344.379,123.831C340.49,123.831 336.82,124.754 333.368,126.601L334.098,120.841C339.348,118.07 346.299,116.685 354.952,116.685C360.153,116.685 365.403,117.341 370.702,118.653ZM354.368,139.653L347.879,151.247C346.08,147.31 341.705,145.341 334.754,145.341C333.782,145.341 332.834,145.39 331.91,145.487L332.639,140.018C336.528,138.365 340.441,137.539 344.379,137.539C348.462,137.539 351.792,138.244 354.368,139.653ZM333.733,173.706L320.316,179.539C318.955,173.171 318.275,166.608 318.275,159.851C318.275,152.462 319.052,144.928 320.608,137.247C322.261,129.032 324.57,121.862 327.535,115.737L330.816,118.289C329.309,122.518 328.556,128.084 328.556,134.987C328.556,146.994 330.282,159.9 333.733,173.706Z" style="fill:rgb(35,32,118);fill-rule:nonzero;"/>
                            <path d="M469.127,118.653C469.078,121.813 466.769,126.042 462.2,131.341C459.672,129.105 456.634,127.294 453.085,125.909C449.537,124.523 446.11,123.831 442.804,123.831C438.915,123.831 435.245,124.754 431.794,126.601L432.523,120.841C437.773,118.07 444.724,116.685 453.377,116.685C458.578,116.685 463.828,117.341 469.127,118.653ZM452.794,139.653L446.304,151.247C444.505,147.31 440.13,145.341 433.179,145.341C432.207,145.341 431.259,145.39 430.335,145.487L431.064,140.018C434.953,138.365 438.867,137.539 442.804,137.539C446.887,137.539 450.217,138.244 452.794,139.653ZM432.158,173.706L418.742,179.539C417.38,173.171 416.7,166.608 416.7,159.851C416.7,152.462 417.478,144.928 419.033,137.247C420.686,129.032 422.995,121.862 425.96,115.737L429.242,118.289C427.735,122.518 426.981,128.084 426.981,134.987C426.981,146.994 428.707,159.9 432.158,173.706Z" style="fill:rgb(35,32,118);fill-rule:nonzero;"/>
                        </g>
                        <g>
                            <path d="M453.412,167.866C453.461,171.026 455.77,175.255 460.34,180.554C462.867,178.317 465.905,176.507 469.454,175.121C473.003,173.736 476.43,173.043 479.735,173.043C483.624,173.043 487.294,173.967 490.746,175.814L490.017,170.054C484.767,167.283 477.815,165.897 469.162,165.897C463.961,165.897 458.711,166.554 453.412,167.866ZM469.746,188.866L476.235,200.46C478.034,196.522 482.409,194.554 489.36,194.554C490.333,194.554 491.28,194.602 492.204,194.699L491.475,189.231C487.586,187.578 483.673,186.751 479.735,186.751C475.652,186.751 472.322,187.456 469.746,188.866ZM490.381,222.918L503.798,228.751C505.159,222.383 505.84,215.821 505.84,209.064C505.84,201.675 505.062,194.14 503.506,186.46C501.853,178.244 499.544,171.074 496.579,164.949L493.298,167.501C494.805,171.731 495.558,177.297 495.558,184.199C495.558,196.206 493.833,209.113 490.381,222.918Z" style="fill:rgb(35,32,118);fill-rule:nonzero;"/>
                            <path d="M354.987,167.866C355.036,171.026 357.345,175.255 361.914,180.554C364.442,178.317 367.48,176.507 371.029,175.121C374.578,173.736 378.005,173.043 381.31,173.043C385.199,173.043 388.869,173.967 392.321,175.814L391.591,170.054C386.341,167.283 379.39,165.897 370.737,165.897C365.536,165.897 360.286,166.554 354.987,167.866ZM371.321,188.866L377.81,200.46C379.609,196.522 383.984,194.554 390.935,194.554C391.907,194.554 392.855,194.602 393.779,194.699L393.05,189.231C389.161,187.578 385.248,186.751 381.31,186.751C377.227,186.751 373.897,187.456 371.321,188.866ZM391.956,222.918L405.373,228.751C406.734,222.383 407.414,215.821 407.414,209.064C407.414,201.675 406.637,194.14 405.081,186.46C403.428,178.244 401.119,171.074 398.154,164.949L394.873,167.501C396.38,171.731 397.133,177.297 397.133,184.199C397.133,196.206 395.407,209.113 391.956,222.918Z" style="fill:rgb(35,32,118);fill-rule:nonzero;"/>
                            <path d="M256.562,167.866C256.611,171.026 258.92,175.255 263.489,180.554C266.017,178.317 269.055,176.507 272.604,175.121C276.152,173.736 279.579,173.043 282.885,173.043C286.774,173.043 290.444,173.967 293.895,175.814L293.166,170.054C287.916,167.283 280.965,165.897 272.312,165.897C267.111,165.897 261.861,166.554 256.562,167.866ZM272.895,188.866L279.385,200.46C281.184,196.522 285.559,194.554 292.51,194.554C293.482,194.554 294.43,194.602 295.354,194.699L294.625,189.231C290.736,187.578 286.822,186.751 282.885,186.751C278.802,186.751 275.472,187.456 272.895,188.866ZM293.531,222.918L306.947,228.751C308.309,222.383 308.989,215.821 308.989,209.064C308.989,201.675 308.211,194.14 306.656,186.46C305.003,178.244 302.694,171.074 299.729,164.949L296.447,167.501C297.954,171.731 298.708,177.297 298.708,184.199C298.708,196.206 296.982,209.113 293.531,222.918Z" style="fill:rgb(35,32,118);fill-rule:nonzero;"/>
                            <path d="M158.137,167.866C158.185,171.026 160.494,175.255 165.064,180.554C167.592,178.317 170.63,176.507 174.179,175.121C177.727,173.736 181.154,173.043 184.46,173.043C188.349,173.043 192.019,173.967 195.47,175.814L194.741,170.054C189.491,167.283 182.54,165.897 173.887,165.897C168.685,165.897 163.435,166.554 158.137,167.866ZM174.47,188.866L180.96,200.46C182.758,196.522 187.133,194.554 194.085,194.554C195.057,194.554 196.005,194.602 196.929,194.699L196.199,189.231C192.31,187.578 188.397,186.751 184.46,186.751C180.376,186.751 177.047,187.456 174.47,188.866ZM195.106,222.918L208.522,228.751C209.883,222.383 210.564,215.821 210.564,209.064C210.564,201.675 209.786,194.14 208.231,186.46C206.578,178.244 204.269,171.074 201.304,164.949L198.022,167.501C199.529,171.731 200.283,177.297 200.283,184.199C200.283,196.206 198.557,209.113 195.106,222.918Z" style="fill:rgb(35,32,118);fill-rule:nonzero;"/>
                            <path d="M59.712,167.866C59.76,171.026 62.069,175.255 66.639,180.554C69.167,178.317 72.205,176.507 75.753,175.121C79.302,173.736 82.729,173.043 86.035,173.043C89.923,173.043 93.594,173.967 97.045,175.814L96.316,170.054C91.066,167.283 84.114,165.897 75.462,165.897C70.26,165.897 65.01,166.554 59.712,167.866ZM76.045,188.866L82.535,200.46C84.333,196.522 88.708,194.554 95.66,194.554C96.632,194.554 97.58,194.602 98.503,194.699L97.774,189.231C93.885,187.578 89.972,186.751 86.035,186.751C81.951,186.751 78.621,187.456 76.045,188.866ZM96.68,222.918L110.097,228.751C111.458,222.383 112.139,215.821 112.139,209.064C112.139,201.675 111.361,194.14 109.805,186.46C108.153,178.244 105.844,171.074 102.878,164.949L99.597,167.501C101.104,171.731 101.857,177.297 101.857,184.199C101.857,196.206 100.132,209.113 96.68,222.918Z" style="fill:rgb(35,32,118);fill-rule:nonzero;"/>
                            <path d="M-38.714,167.866C-38.665,171.026 -36.356,175.255 -31.786,180.554C-29.259,178.317 -26.22,176.507 -22.672,175.121C-19.123,173.736 -15.696,173.043 -12.391,173.043C-8.502,173.043 -4.832,173.967 -1.38,175.814L-2.109,170.054C-7.359,167.283 -14.311,165.897 -22.964,165.897C-28.165,165.897 -33.415,166.554 -38.714,167.866ZM-22.38,188.866L-15.891,200.46C-14.092,196.522 -9.717,194.554 -2.766,194.554C-1.793,194.554 -0.845,194.602 0.078,194.699L-0.651,189.231C-4.54,187.578 -8.453,186.751 -12.391,186.751C-16.474,186.751 -19.804,187.456 -22.38,188.866ZM-1.745,222.918L11.672,228.751C13.033,222.383 13.714,215.821 13.714,209.064C13.714,201.675 12.936,194.14 11.38,186.46C9.727,178.244 7.418,171.074 4.453,164.949L1.172,167.501C2.679,171.731 3.432,177.297 3.432,184.199C3.432,196.206 1.707,209.113 -1.745,222.918Z" style="fill:rgb(35,32,118);fill-rule:nonzero;"/>
                        </g>
                        <g>
                            <path d="M453.412,266.291C453.461,269.451 455.77,273.68 460.34,278.979C462.867,276.743 465.905,274.932 469.454,273.546C473.003,272.161 476.43,271.468 479.735,271.468C483.624,271.468 487.294,272.392 490.746,274.239L490.017,268.479C484.767,265.708 477.815,264.322 469.162,264.322C463.961,264.322 458.711,264.979 453.412,266.291ZM469.746,287.291L476.235,298.885C478.034,294.947 482.409,292.979 489.36,292.979C490.333,292.979 491.28,293.027 492.204,293.125L491.475,287.656C487.586,286.003 483.673,285.177 479.735,285.177C475.652,285.177 472.322,285.881 469.746,287.291ZM490.381,321.343L503.798,327.177C505.159,320.809 505.84,314.246 505.84,307.489C505.84,300.1 505.062,292.566 503.506,284.885C501.853,276.67 499.544,269.5 496.579,263.375L493.298,265.927C494.805,270.156 495.558,275.722 495.558,282.625C495.558,294.631 493.833,307.538 490.381,321.343Z" style="fill:rgb(35,32,118);fill-rule:nonzero;"/>
                            <path d="M354.987,266.291C355.036,269.451 357.345,273.68 361.914,278.979C364.442,276.743 367.48,274.932 371.029,273.546C374.578,272.161 378.005,271.468 381.31,271.468C385.199,271.468 388.869,272.392 392.321,274.239L391.591,268.479C386.341,265.708 379.39,264.322 370.737,264.322C365.536,264.322 360.286,264.979 354.987,266.291ZM371.321,287.291L377.81,298.885C379.609,294.947 383.984,292.979 390.935,292.979C391.907,292.979 392.855,293.027 393.779,293.125L393.05,287.656C389.161,286.003 385.248,285.177 381.31,285.177C377.227,285.177 373.897,285.881 371.321,287.291ZM391.956,321.343L405.373,327.177C406.734,320.809 407.414,314.246 407.414,307.489C407.414,300.1 406.637,292.566 405.081,284.885C403.428,276.67 401.119,269.5 398.154,263.375L394.873,265.927C396.38,270.156 397.133,275.722 397.133,282.625C397.133,294.631 395.407,307.538 391.956,321.343Z" style="fill:rgb(35,32,118);fill-rule:nonzero;"/>
                            <path d="M256.562,266.291C256.611,269.451 258.92,273.68 263.489,278.979C266.017,276.743 269.055,274.932 272.604,273.546C276.152,272.161 279.579,271.468 282.885,271.468C286.774,271.468 290.444,272.392 293.895,274.239L293.166,268.479C287.916,265.708 280.965,264.322 272.312,264.322C267.111,264.322 261.861,264.979 256.562,266.291ZM272.895,287.291L279.385,298.885C281.184,294.947 285.559,292.979 292.51,292.979C293.482,292.979 294.43,293.027 295.354,293.125L294.625,287.656C290.736,286.003 286.822,285.177 282.885,285.177C278.802,285.177 275.472,285.881 272.895,287.291ZM293.531,321.343L306.947,327.177C308.309,320.809 308.989,314.246 308.989,307.489C308.989,300.1 308.211,292.566 306.656,284.885C305.003,276.67 302.694,269.5 299.729,263.375L296.447,265.927C297.954,270.156 298.708,275.722 298.708,282.625C298.708,294.631 296.982,307.538 293.531,321.343Z" style="fill:rgb(35,32,118);fill-rule:nonzero;"/>
                            <path d="M158.137,266.291C158.185,269.451 160.494,273.68 165.064,278.979C167.592,276.743 170.63,274.932 174.179,273.546C177.727,272.161 181.154,271.468 184.46,271.468C188.349,271.468 192.019,272.392 195.47,274.239L194.741,268.479C189.491,265.708 182.54,264.322 173.887,264.322C168.685,264.322 163.435,264.979 158.137,266.291ZM174.47,287.291L180.96,298.885C182.758,294.947 187.133,292.979 194.085,292.979C195.057,292.979 196.005,293.027 196.929,293.125L196.199,287.656C192.31,286.003 188.397,285.177 184.46,285.177C180.376,285.177 177.047,285.881 174.47,287.291ZM195.106,321.343L208.522,327.177C209.883,320.809 210.564,314.246 210.564,307.489C210.564,300.1 209.786,292.566 208.231,284.885C206.578,276.67 204.269,269.5 201.304,263.375L198.022,265.927C199.529,270.156 200.283,275.722 200.283,282.625C200.283,294.631 198.557,307.538 195.106,321.343Z" style="fill:rgb(35,32,118);fill-rule:nonzero;"/>
                            <path d="M59.712,266.291C59.76,269.451 62.069,273.68 66.639,278.979C69.167,276.743 72.205,274.932 75.753,273.546C79.302,272.161 82.729,271.468 86.035,271.468C89.923,271.468 93.594,272.392 97.045,274.239L96.316,268.479C91.066,265.708 84.114,264.322 75.462,264.322C70.26,264.322 65.01,264.979 59.712,266.291ZM76.045,287.291L82.535,298.885C84.333,294.947 88.708,292.979 95.66,292.979C96.632,292.979 97.58,293.027 98.503,293.125L97.774,287.656C93.885,286.003 89.972,285.177 86.035,285.177C81.951,285.177 78.621,285.881 76.045,287.291ZM96.68,321.343L110.097,327.177C111.458,320.809 112.139,314.246 112.139,307.489C112.139,300.1 111.361,292.566 109.805,284.885C108.153,276.67 105.844,269.5 102.878,263.375L99.597,265.927C101.104,270.156 101.857,275.722 101.857,282.625C101.857,294.631 100.132,307.538 96.68,321.343Z" style="fill:rgb(35,32,118);fill-rule:nonzero;"/>
                            <path d="M-38.714,266.291C-38.665,269.451 -36.356,273.68 -31.786,278.979C-29.259,276.743 -26.22,274.932 -22.672,273.546C-19.123,272.161 -15.696,271.468 -12.391,271.468C-8.502,271.468 -4.832,272.392 -1.38,274.239L-2.109,268.479C-7.359,265.708 -14.311,264.322 -22.964,264.322C-28.165,264.322 -33.415,264.979 -38.714,266.291ZM-22.38,287.291L-15.891,298.885C-14.092,294.947 -9.717,292.979 -2.766,292.979C-1.793,292.979 -0.845,293.027 0.078,293.125L-0.651,287.656C-4.54,286.003 -8.453,285.177 -12.391,285.177C-16.474,285.177 -19.804,285.881 -22.38,287.291ZM-1.745,321.343L11.672,327.177C13.033,320.809 13.714,314.246 13.714,307.489C13.714,300.1 12.936,292.566 11.38,284.885C9.727,276.67 7.418,269.5 4.453,263.375L1.172,265.927C2.679,270.156 3.432,275.722 3.432,282.625C3.432,294.631 1.707,307.538 -1.745,321.343Z" style="fill:rgb(35,32,118);fill-rule:nonzero;"/>
                        </g>
                        <g>
                            <path d="M453.412,364.716C453.461,367.876 455.77,372.105 460.34,377.404C462.867,375.168 465.905,373.357 469.454,371.972C473.003,370.586 476.43,369.893 479.735,369.893C483.624,369.893 487.294,370.817 490.746,372.664L490.017,366.904C484.767,364.133 477.815,362.748 469.162,362.748C463.961,362.748 458.711,363.404 453.412,364.716ZM469.746,385.716L476.235,397.31C478.034,393.373 482.409,391.404 489.36,391.404C490.333,391.404 491.28,391.453 492.204,391.55L491.475,386.081C487.586,384.428 483.673,383.602 479.735,383.602C475.652,383.602 472.322,384.307 469.746,385.716ZM490.381,419.768L503.798,425.602C505.159,419.234 505.84,412.671 505.84,405.914C505.84,398.525 505.062,390.991 503.506,383.31C501.853,375.095 499.544,367.925 496.579,361.8L493.298,364.352C494.805,368.581 495.558,374.147 495.558,381.05C495.558,393.057 493.833,405.963 490.381,419.768Z" style="fill:rgb(35,32,118);fill-rule:nonzero;"/>
                            <path d="M354.987,364.716C355.036,367.876 357.345,372.105 361.914,377.404C364.442,375.168 367.48,373.357 371.029,371.972C374.578,370.586 378.005,369.893 381.31,369.893C385.199,369.893 388.869,370.817 392.321,372.664L391.591,366.904C386.341,364.133 379.39,362.748 370.737,362.748C365.536,362.748 360.286,363.404 354.987,364.716ZM371.321,385.716L377.81,397.31C379.609,393.373 383.984,391.404 390.935,391.404C391.907,391.404 392.855,391.453 393.779,391.55L393.05,386.081C389.161,384.428 385.248,383.602 381.31,383.602C377.227,383.602 373.897,384.307 371.321,385.716ZM391.956,419.768L405.373,425.602C406.734,419.234 407.414,412.671 407.414,405.914C407.414,398.525 406.637,390.991 405.081,383.31C403.428,375.095 401.119,367.925 398.154,361.8L394.873,364.352C396.38,368.581 397.133,374.147 397.133,381.05C397.133,393.057 395.407,405.963 391.956,419.768Z" style="fill:rgb(35,32,118);fill-rule:nonzero;"/>
                            <path d="M256.562,364.716C256.611,367.876 258.92,372.105 263.489,377.404C266.017,375.168 269.055,373.357 272.604,371.972C276.152,370.586 279.579,369.893 282.885,369.893C286.774,369.893 290.444,370.817 293.895,372.664L293.166,366.904C287.916,364.133 280.965,362.748 272.312,362.748C267.111,362.748 261.861,363.404 256.562,364.716ZM272.895,385.716L279.385,397.31C281.184,393.373 285.559,391.404 292.51,391.404C293.482,391.404 294.43,391.453 295.354,391.55L294.625,386.081C290.736,384.428 286.822,383.602 282.885,383.602C278.802,383.602 275.472,384.307 272.895,385.716ZM293.531,419.768L306.947,425.602C308.309,419.234 308.989,412.671 308.989,405.914C308.989,398.525 308.211,390.991 306.656,383.31C305.003,375.095 302.694,367.925 299.729,361.8L296.447,364.352C297.954,368.581 298.708,374.147 298.708,381.05C298.708,393.057 296.982,405.963 293.531,419.768Z" style="fill:rgb(35,32,118);fill-rule:nonzero;"/>
                            <path d="M158.137,364.716C158.185,367.876 160.494,372.105 165.064,377.404C167.592,375.168 170.63,373.357 174.179,371.972C177.727,370.586 181.154,369.893 184.46,369.893C188.349,369.893 192.019,370.817 195.47,372.664L194.741,366.904C189.491,364.133 182.54,362.748 173.887,362.748C168.685,362.748 163.435,363.404 158.137,364.716ZM174.47,385.716L180.96,397.31C182.758,393.373 187.133,391.404 194.085,391.404C195.057,391.404 196.005,391.453 196.929,391.55L196.199,386.081C192.31,384.428 188.397,383.602 184.46,383.602C180.376,383.602 177.047,384.307 174.47,385.716ZM195.106,419.768L208.522,425.602C209.883,419.234 210.564,412.671 210.564,405.914C210.564,398.525 209.786,390.991 208.231,383.31C206.578,375.095 204.269,367.925 201.304,361.8L198.022,364.352C199.529,368.581 200.283,374.147 200.283,381.05C200.283,393.057 198.557,405.963 195.106,419.768Z" style="fill:rgb(35,32,118);fill-rule:nonzero;"/>
                            <path d="M59.712,364.716C59.76,367.876 62.069,372.105 66.639,377.404C69.167,375.168 72.205,373.357 75.753,371.972C79.302,370.586 82.729,369.893 86.035,369.893C89.923,369.893 93.594,370.817 97.045,372.664L96.316,366.904C91.066,364.133 84.114,362.748 75.462,362.748C70.26,362.748 65.01,363.404 59.712,364.716ZM76.045,385.716L82.535,397.31C84.333,393.373 88.708,391.404 95.66,391.404C96.632,391.404 97.58,391.453 98.503,391.55L97.774,386.081C93.885,384.428 89.972,383.602 86.035,383.602C81.951,383.602 78.621,384.307 76.045,385.716ZM96.68,419.768L110.097,425.602C111.458,419.234 112.139,412.671 112.139,405.914C112.139,398.525 111.361,390.991 109.805,383.31C108.153,375.095 105.844,367.925 102.878,361.8L99.597,364.352C101.104,368.581 101.857,374.147 101.857,381.05C101.857,393.057 100.132,405.963 96.68,419.768Z" style="fill:rgb(35,32,118);fill-rule:nonzero;"/>
                            <path d="M-38.714,364.716C-38.665,367.876 -36.356,372.105 -31.786,377.404C-29.259,375.168 -26.22,373.357 -22.672,371.972C-19.123,370.586 -15.696,369.893 -12.391,369.893C-8.502,369.893 -4.832,370.817 -1.38,372.664L-2.109,366.904C-7.359,364.133 -14.311,362.748 -22.964,362.748C-28.165,362.748 -33.415,363.404 -38.714,364.716ZM-22.38,385.716L-15.891,397.31C-14.092,393.373 -9.717,391.404 -2.766,391.404C-1.793,391.404 -0.845,391.453 0.078,391.55L-0.651,386.081C-4.54,384.428 -8.453,383.602 -12.391,383.602C-16.474,383.602 -19.804,384.307 -22.38,385.716ZM-1.745,419.768L11.672,425.602C13.033,419.234 13.714,412.671 13.714,405.914C13.714,398.525 12.936,390.991 11.38,383.31C9.727,375.095 7.418,367.925 4.453,361.8L1.172,364.352C2.679,368.581 3.432,374.147 3.432,381.05C3.432,393.057 1.707,405.963 -1.745,419.768Z" style="fill:rgb(35,32,118);fill-rule:nonzero;"/>
                        </g>
                        <g>
                            <path d="M453.412,463.142C453.461,466.301 455.77,470.53 460.34,475.829C462.867,473.593 465.905,471.782 469.454,470.397C473.003,469.011 476.43,468.319 479.735,468.319C483.624,468.319 487.294,469.242 490.746,471.09L490.017,465.329C484.767,462.558 477.815,461.173 469.162,461.173C463.961,461.173 458.711,461.829 453.412,463.142ZM469.746,484.142L476.235,495.735C478.034,491.798 482.409,489.829 489.36,489.829C490.333,489.829 491.28,489.878 492.204,489.975L491.475,484.506C487.586,482.853 483.673,482.027 479.735,482.027C475.652,482.027 472.322,482.732 469.746,484.142ZM490.381,518.194L503.798,524.027C505.159,517.659 505.84,511.096 505.84,504.34C505.84,496.951 505.062,489.416 503.506,481.735C501.853,473.52 499.544,466.35 496.579,460.225L493.298,462.777C494.805,467.006 495.558,472.572 495.558,479.475C495.558,491.482 493.833,504.388 490.381,518.194Z" style="fill:rgb(35,32,118);fill-rule:nonzero;"/>
                            <path d="M354.987,463.142C355.036,466.301 357.345,470.53 361.914,475.829C364.442,473.593 367.48,471.782 371.029,470.397C374.578,469.011 378.005,468.319 381.31,468.319C385.199,468.319 388.869,469.242 392.321,471.09L391.591,465.329C386.341,462.558 379.39,461.173 370.737,461.173C365.536,461.173 360.286,461.829 354.987,463.142ZM371.321,484.142L377.81,495.735C379.609,491.798 383.984,489.829 390.935,489.829C391.907,489.829 392.855,489.878 393.779,489.975L393.05,484.506C389.161,482.853 385.248,482.027 381.31,482.027C377.227,482.027 373.897,482.732 371.321,484.142ZM391.956,518.194L405.373,524.027C406.734,517.659 407.414,511.096 407.414,504.34C407.414,496.951 406.637,489.416 405.081,481.735C403.428,473.52 401.119,466.35 398.154,460.225L394.873,462.777C396.38,467.006 397.133,472.572 397.133,479.475C397.133,491.482 395.407,504.388 391.956,518.194Z" style="fill:rgb(35,32,118);fill-rule:nonzero;"/>
                            <path d="M256.562,463.142C256.611,466.301 258.92,470.53 263.489,475.829C266.017,473.593 269.055,471.782 272.604,470.397C276.152,469.011 279.579,468.319 282.885,468.319C286.774,468.319 290.444,469.242 293.895,471.09L293.166,465.329C287.916,462.558 280.965,461.173 272.312,461.173C267.111,461.173 261.861,461.829 256.562,463.142ZM272.895,484.142L279.385,495.735C281.184,491.798 285.559,489.829 292.51,489.829C293.482,489.829 294.43,489.878 295.354,489.975L294.625,484.506C290.736,482.853 286.822,482.027 282.885,482.027C278.802,482.027 275.472,482.732 272.895,484.142ZM293.531,518.194L306.947,524.027C308.309,517.659 308.989,511.096 308.989,504.34C308.989,496.951 308.211,489.416 306.656,481.735C305.003,473.52 302.694,466.35 299.729,460.225L296.447,462.777C297.954,467.006 298.708,472.572 298.708,479.475C298.708,491.482 296.982,504.388 293.531,518.194Z" style="fill:rgb(35,32,118);fill-rule:nonzero;"/>
                            <path d="M158.137,463.142C158.185,466.301 160.494,470.53 165.064,475.829C167.592,473.593 170.63,471.782 174.179,470.397C177.727,469.011 181.154,468.319 184.46,468.319C188.349,468.319 192.019,469.242 195.47,471.09L194.741,465.329C189.491,462.558 182.54,461.173 173.887,461.173C168.685,461.173 163.435,461.829 158.137,463.142ZM174.47,484.142L180.96,495.735C182.758,491.798 187.133,489.829 194.085,489.829C195.057,489.829 196.005,489.878 196.929,489.975L196.199,484.506C192.31,482.853 188.397,482.027 184.46,482.027C180.376,482.027 177.047,482.732 174.47,484.142ZM195.106,518.194L208.522,524.027C209.883,517.659 210.564,511.096 210.564,504.34C210.564,496.951 209.786,489.416 208.231,481.735C206.578,473.52 204.269,466.35 201.304,460.225L198.022,462.777C199.529,467.006 200.283,472.572 200.283,479.475C200.283,491.482 198.557,504.388 195.106,518.194Z" style="fill:rgb(35,32,118);fill-rule:nonzero;"/>
                            <path d="M59.712,463.142C59.76,466.301 62.069,470.53 66.639,475.829C69.167,473.593 72.205,471.782 75.753,470.397C79.302,469.011 82.729,468.319 86.035,468.319C89.923,468.319 93.594,469.242 97.045,471.09L96.316,465.329C91.066,462.558 84.114,461.173 75.462,461.173C70.26,461.173 65.01,461.829 59.712,463.142ZM76.045,484.142L82.535,495.735C84.333,491.798 88.708,489.829 95.66,489.829C96.632,489.829 97.58,489.878 98.503,489.975L97.774,484.506C93.885,482.853 89.972,482.027 86.035,482.027C81.951,482.027 78.621,482.732 76.045,484.142ZM96.68,518.194L110.097,524.027C111.458,517.659 112.139,511.096 112.139,504.34C112.139,496.951 111.361,489.416 109.805,481.735C108.153,473.52 105.844,466.35 102.878,460.225L99.597,462.777C101.104,467.006 101.857,472.572 101.857,479.475C101.857,491.482 100.132,504.388 96.68,518.194Z" style="fill:rgb(35,32,118);fill-rule:nonzero;"/>
                            <path d="M-38.714,463.142C-38.665,466.301 -36.356,470.53 -31.786,475.829C-29.259,473.593 -26.22,471.782 -22.672,470.397C-19.123,469.011 -15.696,468.319 -12.391,468.319C-8.502,468.319 -4.832,469.242 -1.38,471.09L-2.109,465.329C-7.359,462.558 -14.311,461.173 -22.964,461.173C-28.165,461.173 -33.415,461.829 -38.714,463.142ZM-22.38,484.142L-15.891,495.735C-14.092,491.798 -9.717,489.829 -2.766,489.829C-1.793,489.829 -0.845,489.878 0.078,489.975L-0.651,484.506C-4.54,482.853 -8.453,482.027 -12.391,482.027C-16.474,482.027 -19.804,482.732 -22.38,484.142ZM-1.745,518.194L11.672,524.027C13.033,517.659 13.714,511.096 13.714,504.34C13.714,496.951 12.936,489.416 11.38,481.735C9.727,473.52 7.418,466.35 4.453,460.225L1.172,462.777C2.679,467.006 3.432,472.572 3.432,479.475C3.432,491.482 1.707,504.388 -1.745,518.194Z" style="fill:rgb(35,32,118);fill-rule:nonzero;"/>
                        </g>
                        <g>
                            <path d="M75.426,217.079C75.378,220.238 73.069,224.468 68.499,229.766C65.971,227.53 62.933,225.719 59.384,224.334C55.836,222.948 52.409,222.256 49.103,222.256C45.214,222.256 41.544,223.179 38.093,225.027L38.822,219.266C44.072,216.495 51.023,215.11 59.676,215.11C64.878,215.11 70.128,215.766 75.426,217.079ZM59.093,238.079L52.603,249.672C50.805,245.735 46.43,243.766 39.478,243.766C38.506,243.766 37.558,243.815 36.634,243.912L37.364,238.443C41.253,236.79 45.166,235.964 49.103,235.964C53.187,235.964 56.516,236.669 59.093,238.079ZM38.457,272.131L25.041,277.964C23.68,271.596 22.999,265.033 22.999,258.277C22.999,250.888 23.777,243.353 25.332,235.672C26.985,227.457 29.294,220.287 32.259,214.162L35.541,216.714C34.034,220.943 33.28,226.509 33.28,233.412C33.28,245.419 35.006,258.325 38.457,272.131Z" style="fill:rgb(35,32,118);fill-rule:nonzero;"/>
                            <path d="M173.851,217.079C173.803,220.238 171.494,224.468 166.924,229.766C164.396,227.53 161.358,225.719 157.81,224.334C154.261,222.948 150.834,222.256 147.528,222.256C143.64,222.256 139.969,223.179 136.518,225.027L137.247,219.266C142.497,216.495 149.449,215.11 158.101,215.11C163.303,215.11 168.553,215.766 173.851,217.079ZM157.518,238.079L151.028,249.672C149.23,245.735 144.855,243.766 137.903,243.766C136.931,243.766 135.983,243.815 135.06,243.912L135.789,238.443C139.678,236.79 143.591,235.964 147.528,235.964C151.612,235.964 154.942,236.669 157.518,238.079ZM136.883,272.131L123.466,277.964C122.105,271.596 121.424,265.033 121.424,258.277C121.424,250.888 122.202,243.353 123.758,235.672C125.41,227.457 127.719,220.287 130.685,214.162L133.966,216.714C132.459,220.943 131.706,226.509 131.706,233.412C131.706,245.419 133.431,258.325 136.883,272.131Z" style="fill:rgb(35,32,118);fill-rule:nonzero;"/>
                            <path d="M272.277,217.079C272.228,220.238 269.919,224.468 265.349,229.766C262.822,227.53 259.783,225.719 256.235,224.334C252.686,222.948 249.259,222.256 245.954,222.256C242.065,222.256 238.395,223.179 234.943,225.027L235.672,219.266C240.922,216.495 247.874,215.11 256.527,215.11C261.728,215.11 266.978,215.766 272.277,217.079ZM255.943,238.079L249.454,249.672C247.655,245.735 243.28,243.766 236.329,243.766C235.356,243.766 234.408,243.815 233.485,243.912L234.214,238.443C238.103,236.79 242.016,235.964 245.954,235.964C250.037,235.964 253.367,236.669 255.943,238.079ZM235.308,272.131L221.891,277.964C220.53,271.596 219.849,265.033 219.849,258.277C219.849,250.888 220.627,243.353 222.183,235.672C223.836,227.457 226.145,220.287 229.11,214.162L232.391,216.714C230.884,220.943 230.131,226.509 230.131,233.412C230.131,245.419 231.856,258.325 235.308,272.131Z" style="fill:rgb(35,32,118);fill-rule:nonzero;"/>
                            <path d="M370.702,217.079C370.653,220.238 368.344,224.468 363.775,229.766C361.247,227.53 358.209,225.719 354.66,224.334C351.111,222.948 347.684,222.256 344.379,222.256C340.49,222.256 336.82,223.179 333.368,225.027L334.098,219.266C339.348,216.495 346.299,215.11 354.952,215.11C360.153,215.11 365.403,215.766 370.702,217.079ZM354.368,238.079L347.879,249.672C346.08,245.735 341.705,243.766 334.754,243.766C333.782,243.766 332.834,243.815 331.91,243.912L332.639,238.443C336.528,236.79 340.441,235.964 344.379,235.964C348.462,235.964 351.792,236.669 354.368,238.079ZM333.733,272.131L320.316,277.964C318.955,271.596 318.275,265.033 318.275,258.277C318.275,250.888 319.052,243.353 320.608,235.672C322.261,227.457 324.57,220.287 327.535,214.162L330.816,216.714C329.309,220.943 328.556,226.509 328.556,233.412C328.556,245.419 330.282,258.325 333.733,272.131Z" style="fill:rgb(35,32,118);fill-rule:nonzero;"/>
                            <path d="M469.127,217.079C469.078,220.238 466.769,224.468 462.2,229.766C459.672,227.53 456.634,225.719 453.085,224.334C449.537,222.948 446.11,222.256 442.804,222.256C438.915,222.256 435.245,223.179 431.794,225.027L432.523,219.266C437.773,216.495 444.724,215.11 453.377,215.11C458.578,215.11 463.828,215.766 469.127,217.079ZM452.794,238.079L446.304,249.672C444.505,245.735 440.13,243.766 433.179,243.766C432.207,243.766 431.259,243.815 430.335,243.912L431.064,238.443C434.953,236.79 438.867,235.964 442.804,235.964C446.887,235.964 450.217,236.669 452.794,238.079ZM432.158,272.131L418.742,277.964C417.38,271.596 416.7,265.033 416.7,258.277C416.7,250.888 417.478,243.353 419.033,235.672C420.686,227.457 422.995,220.287 425.96,214.162L429.242,216.714C427.735,220.943 426.981,226.509 426.981,233.412C426.981,245.419 428.707,258.325 432.158,272.131Z" style="fill:rgb(35,32,118);fill-rule:nonzero;"/>
                        </g>
                    </g>
                </g>
            </g>
            <path d="M246.063,393.701C164.579,393.701 98.425,327.547 98.425,246.063C98.425,164.579 164.579,98.425 246.063,98.425C327.547,98.425 393.701,164.579 393.701,246.063C393.701,327.547 327.547,393.701 246.063,393.701ZM246.063,383.284C321.797,383.284 383.284,321.797 383.284,246.063C383.284,170.329 321.797,108.842 246.063,108.842C170.329,108.842 108.842,170.329 108.842,246.063C108.842,321.797 170.329,383.284 246.063,383.284Z" style="fill:rgb(8,6,5);"/>
        </g>
    </g>
</svg>
