<?xml version="1.0" encoding="UTF-8" standalone="no"?>
<!DOCTYPE svg PUBLIC "-//W3C//DTD SVG 1.1//EN" "http://www.w3.org/Graphics/SVG/1.1/DTD/svg11.dtd">
<svg width="100%" height="100%" viewBox="0 0 50 50" version="1.1" xmlns="http://www.w3.org/2000/svg" xmlns:xlink="http://www.w3.org/1999/xlink" xml:space="preserve" xmlns:serif="http://www.serif.com/" style="fill-rule:evenodd;clip-rule:evenodd;stroke-linejoin:round;stroke-miterlimit:2;">
    <g transform="matrix(0.10142,0,0,0.10142,0,0)">
        <path d="M246.063,492.126C110.257,492.126 0,381.869 0,246.063C0,110.257 110.257,0 246.063,0C381.869,0 492.126,110.257 492.126,246.063C492.126,381.869 381.869,492.126 246.063,492.126ZM246.063,393.701C327.547,393.701 393.701,327.547 393.701,246.063C393.701,164.579 327.547,98.425 246.063,98.425C164.579,98.425 98.425,164.579 98.425,246.063C98.425,327.547 164.579,393.701 246.063,393.701Z" style="fill:rgb(220,203,118);"/>
        <path d="M0.499,261.839C0.168,256.622 0,251.362 0,246.063C0,240.764 0.168,235.504 0.499,230.287C6.144,230.525 10.594,235.243 10.472,240.918C10.435,242.629 10.417,244.344 10.417,246.063C10.417,247.782 10.435,249.497 10.472,251.208C10.594,256.883 6.144,261.601 0.499,261.839ZM12.909,167.262C18.298,168.955 21.371,174.664 19.784,180.112C18.828,183.393 17.941,186.703 17.126,190.04C15.78,195.553 10.266,198.963 4.752,197.739C6.829,187.329 9.563,177.155 12.909,167.262ZM41.3,109.64C46.064,112.675 47.548,118.988 44.597,123.837C42.818,126.761 41.1,129.728 39.446,132.734C36.71,137.707 30.498,139.563 25.493,136.944C30.187,127.482 35.472,118.365 41.3,109.64ZM83.614,61.305C87.437,65.465 87.245,71.947 83.146,75.873C80.669,78.245 78.244,80.669 75.873,83.146C71.947,87.245 65.465,87.437 61.305,83.615C68.259,75.712 75.712,68.259 83.614,61.305ZM136.944,25.493C139.563,30.498 137.707,36.71 132.734,39.446C129.728,41.1 126.761,42.818 123.837,44.597C118.988,47.548 112.675,46.064 109.64,41.3C118.365,35.472 127.482,30.187 136.944,25.493ZM197.739,4.752C198.964,10.266 195.554,15.78 190.041,17.126C186.703,17.941 183.393,18.828 180.112,19.783C174.664,21.371 168.955,18.297 167.262,12.909C177.155,9.563 187.329,6.829 197.739,4.752ZM261.839,0.499C261.601,6.144 256.883,10.594 251.208,10.472C249.497,10.435 247.782,10.417 246.063,10.417C244.344,10.417 242.629,10.435 240.918,10.472C235.243,10.594 230.525,6.144 230.287,0.499C235.504,0.168 240.764,0 246.063,0C251.362,0 256.622,0.168 261.839,0.499ZM324.864,12.909C323.171,18.298 317.462,21.371 312.014,19.784C308.733,18.828 305.423,17.941 302.086,17.126C296.573,15.78 293.163,10.266 294.387,4.752C304.797,6.829 314.971,9.563 324.864,12.909ZM382.486,41.3C379.451,46.064 373.138,47.548 368.289,44.597C365.365,42.818 362.398,41.1 359.392,39.446C354.419,36.71 352.563,30.498 355.182,25.493C364.644,30.187 373.761,35.472 382.486,41.3ZM430.821,83.614C426.661,87.437 420.179,87.245 416.253,83.146C413.881,80.669 411.457,78.244 408.98,75.873C404.881,71.947 404.689,65.465 408.511,61.305C416.414,68.259 423.867,75.712 430.821,83.614ZM466.633,136.944C461.628,139.563 455.416,137.707 452.68,132.734C451.026,129.728 449.308,126.761 447.529,123.837C444.578,118.988 446.062,112.675 450.826,109.64C456.654,118.365 461.939,127.482 466.633,136.944ZM487.374,197.739C481.86,198.964 476.346,195.554 475,190.041C474.185,186.703 473.298,183.393 472.342,180.112C470.755,174.664 473.829,168.955 479.217,167.262C482.563,177.155 485.297,187.329 487.374,197.739ZM491.627,261.839C485.982,261.601 481.532,256.883 481.654,251.208C481.691,249.497 481.709,247.782 481.709,246.063C481.709,244.344 481.691,242.629 481.654,240.918C481.532,235.243 485.982,230.525 491.627,230.287C491.958,235.504 492.126,240.764 492.126,246.063C492.126,251.362 491.958,256.622 491.627,261.839ZM479.217,324.864C473.828,323.171 470.755,317.462 472.342,312.014C473.298,308.733 474.184,305.423 475,302.086C476.346,296.573 481.86,293.163 487.374,294.387C485.297,304.797 482.563,314.971 479.217,324.864ZM450.826,382.486C446.062,379.451 444.578,373.138 447.529,368.289C449.308,365.365 451.026,362.398 452.68,359.392C455.416,354.419 461.628,352.563 466.633,355.182C461.939,364.644 456.654,373.761 450.826,382.486ZM408.512,430.821C404.689,426.661 404.881,420.179 408.98,416.253C411.457,413.881 413.882,411.457 416.253,408.98C420.179,404.881 426.661,404.689 430.821,408.511C423.867,416.414 416.414,423.867 408.512,430.821ZM355.182,466.633C352.563,461.628 354.419,455.416 359.392,452.68C362.398,451.026 365.365,449.308 368.289,447.529C373.138,444.578 379.451,446.062 382.486,450.826C373.761,456.654 364.644,461.939 355.182,466.633ZM294.387,487.374C293.162,481.86 296.572,476.346 302.085,475C305.423,474.185 308.733,473.298 312.014,472.342C317.462,470.755 323.17,473.829 324.864,479.217C314.971,482.563 304.797,485.297 294.387,487.374ZM230.287,491.627C230.525,485.982 235.243,481.532 240.918,481.654C242.629,481.691 244.344,481.709 246.063,481.709C247.782,481.709 249.497,481.691 251.208,481.654C256.883,481.532 261.601,485.982 261.839,491.627C256.622,491.958 251.362,492.126 246.063,492.126C240.764,492.126 235.504,491.958 230.287,491.627ZM167.262,479.217C168.955,473.828 174.664,470.755 180.112,472.342C183.393,473.298 186.703,474.184 190.04,475C195.553,476.346 198.963,481.86 197.739,487.374C187.329,485.297 177.155,482.563 167.262,479.217ZM109.64,450.826C112.675,446.062 118.988,444.578 123.837,447.529C126.761,449.308 129.728,451.026 132.734,452.68C137.707,455.416 139.563,461.628 136.944,466.633C127.482,461.939 118.365,456.654 109.64,450.826ZM61.305,408.512C65.465,404.689 71.947,404.881 75.873,408.98C78.245,411.457 80.669,413.882 83.146,416.253C87.245,420.179 87.437,426.661 83.615,430.821C75.712,423.867 68.259,416.414 61.305,408.512ZM25.493,355.182C30.498,352.563 36.71,354.419 39.446,359.392C41.1,362.398 42.818,365.365 44.597,368.289C47.548,373.138 46.064,379.451 41.3,382.486C35.472,373.761 30.187,364.644 25.493,355.182ZM4.752,294.387C10.266,293.162 15.78,296.572 17.126,302.085C17.941,305.423 18.828,308.733 19.783,312.014C21.371,317.462 18.297,323.17 12.909,324.864C9.563,314.971 6.829,304.797 4.752,294.387Z" style="fill:rgb(27,25,0);"/>
        <circle cx="246.063" cy="246.063" r="147.638" style="fill:rgb(220,203,118);"/>
        <g>
            <clipPath id="_clip1">
                <circle cx="246.063" cy="246.063" r="147.638"/>
            </clipPath>
            <g clip-path="url(#_clip1)">
                <g>
                    <g>
                        <path d="M28.982,-7.014C28.982,3.457 26.453,14.619 21.396,26.472L17.247,24.991C19.341,20.131 20.388,14.658 20.388,8.573C20.388,0.948 19.143,-6.046 16.654,-12.407C15.153,-13.079 13.454,-13.415 11.557,-13.415C5.709,-13.415 -0.731,-11.104 -7.764,-6.481L-7.468,-11.222C-3.28,-14.976 1.521,-18.077 6.934,-20.527C12.742,-23.174 18.254,-24.597 23.47,-24.794C27.145,-20.764 28.982,-14.837 28.982,-7.014ZM-5.393,23.805L-16.595,28.547C-17.978,23.568 -18.669,17.424 -18.669,10.114C-18.669,-2.332 -16.121,-13.869 -11.024,-24.498L-8.061,-22.127C-9.878,-16.161 -10.787,-9.286 -10.787,-1.502C-10.787,8.099 -8.989,16.535 -5.393,23.805Z" style="fill:rgb(150,141,0);fill-rule:nonzero;"/>
                        <path d="M109.883,-7.014C109.883,3.457 107.354,14.619 102.296,26.472L98.148,24.991C100.242,20.131 101.289,14.658 101.289,8.573C101.289,0.948 100.044,-6.046 97.555,-12.407C96.053,-13.079 94.354,-13.415 92.458,-13.415C86.61,-13.415 80.17,-11.104 73.137,-6.481L73.433,-11.222C77.621,-14.976 82.422,-18.077 87.835,-20.527C93.643,-23.174 99.155,-24.597 104.371,-24.794C108.045,-20.764 109.883,-14.837 109.883,-7.014ZM75.507,23.805L64.306,28.547C62.923,23.568 62.231,17.424 62.231,10.114C62.231,-2.332 64.78,-13.869 69.877,-24.498L72.84,-22.127C71.023,-16.161 70.114,-9.286 70.114,-1.502C70.114,8.099 71.912,16.535 75.507,23.805Z" style="fill:rgb(150,141,0);fill-rule:nonzero;"/>
                        <path d="M190.783,-7.014C190.783,3.457 188.255,14.619 183.197,26.472L179.048,24.991C181.142,20.131 182.189,14.658 182.189,8.573C182.189,0.948 180.945,-6.046 178.456,-12.407C176.954,-13.079 175.255,-13.415 173.359,-13.415C167.511,-13.415 161.07,-11.104 154.037,-6.481L154.334,-11.222C158.522,-14.976 163.323,-18.077 168.736,-20.527C174.544,-23.174 180.056,-24.597 185.271,-24.794C188.946,-20.764 190.783,-14.837 190.783,-7.014ZM156.408,23.805L145.206,28.547C143.823,23.568 143.132,17.424 143.132,10.114C143.132,-2.332 145.681,-13.869 150.778,-24.498L153.741,-22.127C151.923,-16.161 151.015,-9.286 151.015,-1.502C151.015,8.099 152.812,16.535 156.408,23.805Z" style="fill:rgb(150,141,0);fill-rule:nonzero;"/>
                        <path d="M271.684,-7.014C271.684,3.457 269.155,14.619 264.098,26.472L259.949,24.991C262.043,20.131 263.09,14.658 263.09,8.573C263.09,0.948 261.846,-6.046 259.356,-12.407C257.855,-13.079 256.156,-13.415 254.259,-13.415C248.412,-13.415 241.971,-11.104 234.938,-6.481L235.234,-11.222C239.423,-14.976 244.223,-18.077 249.636,-20.527C255.445,-23.174 260.957,-24.597 266.172,-24.794C269.847,-20.764 271.684,-14.837 271.684,-7.014ZM237.309,23.805L226.107,28.547C224.724,23.568 224.033,17.424 224.033,10.114C224.033,-2.332 226.581,-13.869 231.678,-24.498L234.642,-22.127C232.824,-16.161 231.915,-9.286 231.915,-1.502C231.915,8.099 233.713,16.535 237.309,23.805Z" style="fill:rgb(150,141,0);fill-rule:nonzero;"/>
                        <path d="M352.585,-7.014C352.585,3.457 350.056,14.619 344.998,26.472L340.85,24.991C342.944,20.131 343.991,14.658 343.991,8.573C343.991,0.948 342.746,-6.046 340.257,-12.407C338.756,-13.079 337.057,-13.415 335.16,-13.415C329.312,-13.415 322.872,-11.104 315.839,-6.481L316.135,-11.222C320.323,-14.976 325.124,-18.077 330.537,-20.527C336.345,-23.174 341.857,-24.597 347.073,-24.794C350.747,-20.764 352.585,-14.837 352.585,-7.014ZM318.209,23.805L307.008,28.547C305.625,23.568 304.933,17.424 304.933,10.114C304.933,-2.332 307.482,-13.869 312.579,-24.498L315.542,-22.127C313.725,-16.161 312.816,-9.286 312.816,-1.502C312.816,8.099 314.614,16.535 318.209,23.805Z" style="fill:rgb(150,141,0);fill-rule:nonzero;"/>
                        <path d="M433.485,-7.014C433.485,3.457 430.957,14.619 425.899,26.472L421.75,24.991C423.845,20.131 424.892,14.658 424.892,8.573C424.892,0.948 423.647,-6.046 421.158,-12.407C419.656,-13.079 417.957,-13.415 416.061,-13.415C410.213,-13.415 403.773,-11.104 396.739,-6.481L397.036,-11.222C401.224,-14.976 406.025,-18.077 411.438,-20.527C417.246,-23.174 422.758,-24.597 427.974,-24.794C431.648,-20.764 433.485,-14.837 433.485,-7.014ZM399.11,23.805L387.909,28.547C386.526,23.568 385.834,17.424 385.834,10.114C385.834,-2.332 388.383,-13.869 393.48,-24.498L396.443,-22.127C394.626,-16.161 393.717,-9.286 393.717,-1.502C393.717,8.099 395.515,16.535 399.11,23.805Z" style="fill:rgb(150,141,0);fill-rule:nonzero;"/>
                        <path d="M514.386,-7.014C514.386,3.457 511.857,14.619 506.8,26.472L502.651,24.991C504.745,20.131 505.792,14.658 505.792,8.573C505.792,0.948 504.548,-6.046 502.058,-12.407C500.557,-13.079 498.858,-13.415 496.961,-13.415C491.114,-13.415 484.673,-11.104 477.64,-6.481L477.936,-11.222C482.125,-14.976 486.925,-18.077 492.339,-20.527C498.147,-23.174 503.659,-24.597 508.874,-24.794C512.549,-20.764 514.386,-14.837 514.386,-7.014ZM480.011,23.805L468.809,28.547C467.426,23.568 466.735,17.424 466.735,10.114C466.735,-2.332 469.283,-13.869 474.38,-24.498L477.344,-22.127C475.526,-16.161 474.617,-9.286 474.617,-1.502C474.617,8.099 476.415,16.535 480.011,23.805Z" style="fill:rgb(150,141,0);fill-rule:nonzero;"/>
                    </g>
                    <g>
                        <path d="M28.982,74.382C28.982,84.852 26.453,96.014 21.396,107.868L17.247,106.386C19.341,101.526 20.388,96.054 20.388,89.969C20.388,82.343 19.143,75.35 16.654,68.988C15.153,68.316 13.454,67.981 11.557,67.981C5.709,67.981 -0.731,70.292 -7.764,74.915L-7.468,70.174C-3.28,66.42 1.521,63.318 6.934,60.868C12.742,58.221 18.254,56.799 23.47,56.601C27.145,60.631 28.982,66.558 28.982,74.382ZM-5.393,105.201L-16.595,109.942C-17.978,104.964 -18.669,98.82 -18.669,91.51C-18.669,79.064 -16.121,67.526 -11.024,56.898L-8.061,59.268C-9.878,65.235 -10.787,72.11 -10.787,79.893C-10.787,89.495 -8.989,97.931 -5.393,105.201Z" style="fill:rgb(150,141,0);fill-rule:nonzero;"/>
                        <path d="M109.883,74.382C109.883,84.852 107.354,96.014 102.296,107.868L98.148,106.386C100.242,101.526 101.289,96.054 101.289,89.969C101.289,82.343 100.044,75.35 97.555,68.988C96.053,68.316 94.354,67.981 92.458,67.981C86.61,67.981 80.17,70.292 73.137,74.915L73.433,70.174C77.621,66.42 82.422,63.318 87.835,60.868C93.643,58.221 99.155,56.799 104.371,56.601C108.045,60.631 109.883,66.558 109.883,74.382ZM75.507,105.201L64.306,109.942C62.923,104.964 62.231,98.82 62.231,91.51C62.231,79.064 64.78,67.526 69.877,56.898L72.84,59.268C71.023,65.235 70.114,72.11 70.114,79.893C70.114,89.495 71.912,97.931 75.507,105.201Z" style="fill:rgb(150,141,0);fill-rule:nonzero;"/>
                        <path d="M190.783,74.382C190.783,84.852 188.255,96.014 183.197,107.868L179.048,106.386C181.142,101.526 182.189,96.054 182.189,89.969C182.189,82.343 180.945,75.35 178.456,68.988C176.954,68.316 175.255,67.981 173.359,67.981C167.511,67.981 161.07,70.292 154.037,74.915L154.334,70.174C158.522,66.42 163.323,63.318 168.736,60.868C174.544,58.221 180.056,56.799 185.271,56.601C188.946,60.631 190.783,66.558 190.783,74.382ZM156.408,105.201L145.206,109.942C143.823,104.964 143.132,98.82 143.132,91.51C143.132,79.064 145.681,67.526 150.778,56.898L153.741,59.268C151.923,65.235 151.015,72.11 151.015,79.893C151.015,89.495 152.812,97.931 156.408,105.201Z" style="fill:rgb(150,141,0);fill-rule:nonzero;"/>
                        <path d="M271.684,74.382C271.684,84.852 269.155,96.014 264.098,107.868L259.949,106.386C262.043,101.526 263.09,96.054 263.09,89.969C263.09,82.343 261.846,75.35 259.356,68.988C257.855,68.316 256.156,67.981 254.259,67.981C248.412,67.981 241.971,70.292 234.938,74.915L235.234,70.174C239.423,66.42 244.223,63.318 249.636,60.868C255.445,58.221 260.957,56.799 266.172,56.601C269.847,60.631 271.684,66.558 271.684,74.382ZM237.309,105.201L226.107,109.942C224.724,104.964 224.033,98.82 224.033,91.51C224.033,79.064 226.581,67.526 231.678,56.898L234.642,59.268C232.824,65.235 231.915,72.11 231.915,79.893C231.915,89.495 233.713,97.931 237.309,105.201Z" style="fill:rgb(150,141,0);fill-rule:nonzero;"/>
                        <path d="M352.585,74.382C352.585,84.852 350.056,96.014 344.998,107.868L340.85,106.386C342.944,101.526 343.991,96.054 343.991,89.969C343.991,82.343 342.746,75.35 340.257,68.988C338.756,68.316 337.057,67.981 335.16,67.981C329.312,67.981 322.872,70.292 315.839,74.915L316.135,70.174C320.323,66.42 325.124,63.318 330.537,60.868C336.345,58.221 341.857,56.799 347.073,56.601C350.747,60.631 352.585,66.558 352.585,74.382ZM318.209,105.201L307.008,109.942C305.625,104.964 304.933,98.82 304.933,91.51C304.933,79.064 307.482,67.526 312.579,56.898L315.542,59.268C313.725,65.235 312.816,72.11 312.816,79.893C312.816,89.495 314.614,97.931 318.209,105.201Z" style="fill:rgb(150,141,0);fill-rule:nonzero;"/>
                        <path d="M433.485,74.382C433.485,84.852 430.957,96.014 425.899,107.868L421.75,106.386C423.845,101.526 424.892,96.054 424.892,89.969C424.892,82.343 423.647,75.35 421.158,68.988C419.656,68.316 417.957,67.981 416.061,67.981C410.213,67.981 403.773,70.292 396.739,74.915L397.036,70.174C401.224,66.42 406.025,63.318 411.438,60.868C417.246,58.221 422.758,56.799 427.974,56.601C431.648,60.631 433.485,66.558 433.485,74.382ZM399.11,105.201L387.909,109.942C386.526,104.964 385.834,98.82 385.834,91.51C385.834,79.064 388.383,67.526 393.48,56.898L396.443,59.268C394.626,65.235 393.717,72.11 393.717,79.893C393.717,89.495 395.515,97.931 399.11,105.201Z" style="fill:rgb(150,141,0);fill-rule:nonzero;"/>
                        <path d="M514.386,74.382C514.386,84.852 511.857,96.014 506.8,107.868L502.651,106.386C504.745,101.526 505.792,96.054 505.792,89.969C505.792,82.343 504.548,75.35 502.058,68.988C500.557,68.316 498.858,67.981 496.961,67.981C491.114,67.981 484.673,70.292 477.64,74.915L477.936,70.174C482.125,66.42 486.925,63.318 492.339,60.868C498.147,58.221 503.659,56.799 508.874,56.601C512.549,60.631 514.386,66.558 514.386,74.382ZM480.011,105.201L468.809,109.942C467.426,104.964 466.735,98.82 466.735,91.51C466.735,79.064 469.283,67.526 474.38,56.898L477.344,59.268C475.526,65.235 474.617,72.11 474.617,79.893C474.617,89.495 476.415,97.931 480.011,105.201Z" style="fill:rgb(150,141,0);fill-rule:nonzero;"/>
                    </g>
                    <g>
                        <path d="M28.982,155.777C28.982,166.248 26.453,177.41 21.396,189.264L17.247,187.782C19.341,182.922 20.388,177.449 20.388,171.365C20.388,163.739 19.143,156.745 16.654,150.384C15.153,149.712 13.454,149.376 11.557,149.376C5.709,149.376 -0.731,151.688 -7.764,156.311L-7.468,151.569C-3.28,147.816 1.521,144.714 6.934,142.264C12.742,139.617 18.254,138.194 23.47,137.997C27.145,142.027 28.982,147.954 28.982,155.777ZM-5.393,186.596L-16.595,191.338C-17.978,186.359 -18.669,180.215 -18.669,172.906C-18.669,160.459 -16.121,148.922 -11.024,138.293L-8.061,140.664C-9.878,146.63 -10.787,153.505 -10.787,161.289C-10.787,170.89 -8.989,179.326 -5.393,186.596Z" style="fill:rgb(150,141,0);fill-rule:nonzero;"/>
                        <path d="M109.883,155.777C109.883,166.248 107.354,177.41 102.296,189.264L98.148,187.782C100.242,182.922 101.289,177.449 101.289,171.365C101.289,163.739 100.044,156.745 97.555,150.384C96.053,149.712 94.354,149.376 92.458,149.376C86.61,149.376 80.17,151.688 73.137,156.311L73.433,151.569C77.621,147.816 82.422,144.714 87.835,142.264C93.643,139.617 99.155,138.194 104.371,137.997C108.045,142.027 109.883,147.954 109.883,155.777ZM75.507,186.596L64.306,191.338C62.923,186.359 62.231,180.215 62.231,172.906C62.231,160.459 64.78,148.922 69.877,138.293L72.84,140.664C71.023,146.63 70.114,153.505 70.114,161.289C70.114,170.89 71.912,179.326 75.507,186.596Z" style="fill:rgb(150,141,0);fill-rule:nonzero;"/>
                        <path d="M190.783,155.777C190.783,166.248 188.255,177.41 183.197,189.264L179.048,187.782C181.142,182.922 182.189,177.449 182.189,171.365C182.189,163.739 180.945,156.745 178.456,150.384C176.954,149.712 175.255,149.376 173.359,149.376C167.511,149.376 161.07,151.688 154.037,156.311L154.334,151.569C158.522,147.816 163.323,144.714 168.736,142.264C174.544,139.617 180.056,138.194 185.271,137.997C188.946,142.027 190.783,147.954 190.783,155.777ZM156.408,186.596L145.206,191.338C143.823,186.359 143.132,180.215 143.132,172.906C143.132,160.459 145.681,148.922 150.778,138.293L153.741,140.664C151.923,146.63 151.015,153.505 151.015,161.289C151.015,170.89 152.812,179.326 156.408,186.596Z" style="fill:rgb(150,141,0);fill-rule:nonzero;"/>
                        <path d="M271.684,155.777C271.684,166.248 269.155,177.41 264.098,189.264L259.949,187.782C262.043,182.922 263.09,177.449 263.09,171.365C263.09,163.739 261.846,156.745 259.356,150.384C257.855,149.712 256.156,149.376 254.259,149.376C248.412,149.376 241.971,151.688 234.938,156.311L235.234,151.569C239.423,147.816 244.223,144.714 249.636,142.264C255.445,139.617 260.957,138.194 266.172,137.997C269.847,142.027 271.684,147.954 271.684,155.777ZM237.309,186.596L226.107,191.338C224.724,186.359 224.033,180.215 224.033,172.906C224.033,160.459 226.581,148.922 231.678,138.293L234.642,140.664C232.824,146.63 231.915,153.505 231.915,161.289C231.915,170.89 233.713,179.326 237.309,186.596Z" style="fill:rgb(150,141,0);fill-rule:nonzero;"/>
                        <path d="M352.585,155.777C352.585,166.248 350.056,177.41 344.998,189.264L340.85,187.782C342.944,182.922 343.991,177.449 343.991,171.365C343.991,163.739 342.746,156.745 340.257,150.384C338.756,149.712 337.057,149.376 335.16,149.376C329.312,149.376 322.872,151.688 315.839,156.311L316.135,151.569C320.323,147.816 325.124,144.714 330.537,142.264C336.345,139.617 341.857,138.194 347.073,137.997C350.747,142.027 352.585,147.954 352.585,155.777ZM318.209,186.596L307.008,191.338C305.625,186.359 304.933,180.215 304.933,172.906C304.933,160.459 307.482,148.922 312.579,138.293L315.542,140.664C313.725,146.63 312.816,153.505 312.816,161.289C312.816,170.89 314.614,179.326 318.209,186.596Z" style="fill:rgb(150,141,0);fill-rule:nonzero;"/>
                        <path d="M433.485,155.777C433.485,166.248 430.957,177.41 425.899,189.264L421.75,187.782C423.845,182.922 424.892,177.449 424.892,171.365C424.892,163.739 423.647,156.745 421.158,150.384C419.656,149.712 417.957,149.376 416.061,149.376C410.213,149.376 403.773,151.688 396.739,156.311L397.036,151.569C401.224,147.816 406.025,144.714 411.438,142.264C417.246,139.617 422.758,138.194 427.974,137.997C431.648,142.027 433.485,147.954 433.485,155.777ZM399.11,186.596L387.909,191.338C386.526,186.359 385.834,180.215 385.834,172.906C385.834,160.459 388.383,148.922 393.48,138.293L396.443,140.664C394.626,146.63 393.717,153.505 393.717,161.289C393.717,170.89 395.515,179.326 399.11,186.596Z" style="fill:rgb(150,141,0);fill-rule:nonzero;"/>
                        <path d="M514.386,155.777C514.386,166.248 511.857,177.41 506.8,189.264L502.651,187.782C504.745,182.922 505.792,177.449 505.792,171.365C505.792,163.739 504.548,156.745 502.058,150.384C500.557,149.712 498.858,149.376 496.961,149.376C491.114,149.376 484.673,151.688 477.64,156.311L477.936,151.569C482.125,147.816 486.925,144.714 492.339,142.264C498.147,139.617 503.659,138.194 508.874,137.997C512.549,142.027 514.386,147.954 514.386,155.777ZM480.011,186.596L468.809,191.338C467.426,186.359 466.735,180.215 466.735,172.906C466.735,160.459 469.283,148.922 474.38,138.293L477.344,140.664C475.526,146.63 474.617,153.505 474.617,161.289C474.617,170.89 476.415,179.326 480.011,186.596Z" style="fill:rgb(150,141,0);fill-rule:nonzero;"/>
                    </g>
                    <g>
                        <path d="M28.982,237.173C28.982,247.643 26.453,258.806 21.396,270.659L17.247,269.177C19.341,264.317 20.388,258.845 20.388,252.76C20.388,245.134 19.143,238.141 16.654,231.779C15.153,231.108 13.454,230.772 11.557,230.772C5.709,230.772 -0.731,233.083 -7.764,237.706L-7.468,232.965C-3.28,229.211 1.521,226.109 6.934,223.66C12.742,221.012 18.254,219.59 23.47,219.392C27.145,223.423 28.982,229.349 28.982,237.173ZM-5.393,267.992L-16.595,272.734C-17.978,267.755 -18.669,261.611 -18.669,254.301C-18.669,241.855 -16.121,230.318 -11.024,219.689L-8.061,222.06C-9.878,228.026 -10.787,234.901 -10.787,242.685C-10.787,252.286 -8.989,260.722 -5.393,267.992Z" style="fill:rgb(150,141,0);fill-rule:nonzero;"/>
                        <path d="M109.883,237.173C109.883,247.643 107.354,258.806 102.296,270.659L98.148,269.177C100.242,264.317 101.289,258.845 101.289,252.76C101.289,245.134 100.044,238.141 97.555,231.779C96.053,231.108 94.354,230.772 92.458,230.772C86.61,230.772 80.17,233.083 73.137,237.706L73.433,232.965C77.621,229.211 82.422,226.109 87.835,223.66C93.643,221.012 99.155,219.59 104.371,219.392C108.045,223.423 109.883,229.349 109.883,237.173ZM75.507,267.992L64.306,272.734C62.923,267.755 62.231,261.611 62.231,254.301C62.231,241.855 64.78,230.318 69.877,219.689L72.84,222.06C71.023,228.026 70.114,234.901 70.114,242.685C70.114,252.286 71.912,260.722 75.507,267.992Z" style="fill:rgb(150,141,0);fill-rule:nonzero;"/>
                        <path d="M190.783,237.173C190.783,247.643 188.255,258.806 183.197,270.659L179.048,269.177C181.142,264.317 182.189,258.845 182.189,252.76C182.189,245.134 180.945,238.141 178.456,231.779C176.954,231.108 175.255,230.772 173.359,230.772C167.511,230.772 161.07,233.083 154.037,237.706L154.334,232.965C158.522,229.211 163.323,226.109 168.736,223.66C174.544,221.012 180.056,219.59 185.271,219.392C188.946,223.423 190.783,229.349 190.783,237.173ZM156.408,267.992L145.206,272.734C143.823,267.755 143.132,261.611 143.132,254.301C143.132,241.855 145.681,230.318 150.778,219.689L153.741,222.06C151.923,228.026 151.015,234.901 151.015,242.685C151.015,252.286 152.812,260.722 156.408,267.992Z" style="fill:rgb(150,141,0);fill-rule:nonzero;"/>
                        <path d="M271.684,237.173C271.684,247.643 269.155,258.806 264.098,270.659L259.949,269.177C262.043,264.317 263.09,258.845 263.09,252.76C263.09,245.134 261.846,238.141 259.356,231.779C257.855,231.108 256.156,230.772 254.259,230.772C248.412,230.772 241.971,233.083 234.938,237.706L235.234,232.965C239.423,229.211 244.223,226.109 249.636,223.66C255.445,221.012 260.957,219.59 266.172,219.392C269.847,223.423 271.684,229.349 271.684,237.173ZM237.309,267.992L226.107,272.734C224.724,267.755 224.033,261.611 224.033,254.301C224.033,241.855 226.581,230.318 231.678,219.689L234.642,222.06C232.824,228.026 231.915,234.901 231.915,242.685C231.915,252.286 233.713,260.722 237.309,267.992Z" style="fill:rgb(150,141,0);fill-rule:nonzero;"/>
                        <path d="M352.585,237.173C352.585,247.643 350.056,258.806 344.998,270.659L340.85,269.177C342.944,264.317 343.991,258.845 343.991,252.76C343.991,245.134 342.746,238.141 340.257,231.779C338.756,231.108 337.057,230.772 335.16,230.772C329.312,230.772 322.872,233.083 315.839,237.706L316.135,232.965C320.323,229.211 325.124,226.109 330.537,223.66C336.345,221.012 341.857,219.59 347.073,219.392C350.747,223.423 352.585,229.349 352.585,237.173ZM318.209,267.992L307.008,272.734C305.625,267.755 304.933,261.611 304.933,254.301C304.933,241.855 307.482,230.318 312.579,219.689L315.542,222.06C313.725,228.026 312.816,234.901 312.816,242.685C312.816,252.286 314.614,260.722 318.209,267.992Z" style="fill:rgb(150,141,0);fill-rule:nonzero;"/>
                        <path d="M433.485,237.173C433.485,247.643 430.957,258.806 425.899,270.659L421.75,269.177C423.845,264.317 424.892,258.845 424.892,252.76C424.892,245.134 423.647,238.141 421.158,231.779C419.656,231.108 417.957,230.772 416.061,230.772C410.213,230.772 403.773,233.083 396.739,237.706L397.036,232.965C401.224,229.211 406.025,226.109 411.438,223.66C417.246,221.012 422.758,219.59 427.974,219.392C431.648,223.423 433.485,229.349 433.485,237.173ZM399.11,267.992L387.909,272.734C386.526,267.755 385.834,261.611 385.834,254.301C385.834,241.855 388.383,230.318 393.48,219.689L396.443,222.06C394.626,228.026 393.717,234.901 393.717,242.685C393.717,252.286 395.515,260.722 399.11,267.992Z" style="fill:rgb(150,141,0);fill-rule:nonzero;"/>
                        <path d="M514.386,237.173C514.386,247.643 511.857,258.806 506.8,270.659L502.651,269.177C504.745,264.317 505.792,258.845 505.792,252.76C505.792,245.134 504.548,238.141 502.058,231.779C500.557,231.108 498.858,230.772 496.961,230.772C491.114,230.772 484.673,233.083 477.64,237.706L477.936,232.965C482.125,229.211 486.925,226.109 492.339,223.66C498.147,221.012 503.659,219.59 508.874,219.392C512.549,223.423 514.386,229.349 514.386,237.173ZM480.011,267.992L468.809,272.734C467.426,267.755 466.735,261.611 466.735,254.301C466.735,241.855 469.283,230.318 474.38,219.689L477.344,222.06C475.526,228.026 474.617,234.901 474.617,242.685C474.617,252.286 476.415,260.722 480.011,267.992Z" style="fill:rgb(150,141,0);fill-rule:nonzero;"/>
                    </g>
                    <g>
                        <path d="M28.982,318.568C28.982,329.039 26.453,340.201 21.396,352.055L17.247,350.573C19.341,345.713 20.388,340.241 20.388,334.156C20.388,326.53 19.143,319.536 16.654,313.175C15.153,312.503 13.454,312.168 11.557,312.168C5.709,312.168 -0.731,314.479 -7.764,319.102L-7.468,314.36C-3.28,310.607 1.521,307.505 6.934,305.055C12.742,302.408 18.254,300.986 23.47,300.788C27.145,304.818 28.982,310.745 28.982,318.568ZM-5.393,349.388L-16.595,354.129C-17.978,349.151 -18.669,343.007 -18.669,335.697C-18.669,323.251 -16.121,311.713 -11.024,301.084L-8.061,303.455C-9.878,309.421 -10.787,316.297 -10.787,324.08C-10.787,333.682 -8.989,342.118 -5.393,349.388Z" style="fill:rgb(150,141,0);fill-rule:nonzero;"/>
                        <path d="M109.883,318.568C109.883,329.039 107.354,340.201 102.296,352.055L98.148,350.573C100.242,345.713 101.289,340.241 101.289,334.156C101.289,326.53 100.044,319.536 97.555,313.175C96.053,312.503 94.354,312.168 92.458,312.168C86.61,312.168 80.17,314.479 73.137,319.102L73.433,314.36C77.621,310.607 82.422,307.505 87.835,305.055C93.643,302.408 99.155,300.986 104.371,300.788C108.045,304.818 109.883,310.745 109.883,318.568ZM75.507,349.388L64.306,354.129C62.923,349.151 62.231,343.007 62.231,335.697C62.231,323.251 64.78,311.713 69.877,301.084L72.84,303.455C71.023,309.421 70.114,316.297 70.114,324.08C70.114,333.682 71.912,342.118 75.507,349.388Z" style="fill:rgb(150,141,0);fill-rule:nonzero;"/>
                        <path d="M190.783,318.568C190.783,329.039 188.255,340.201 183.197,352.055L179.048,350.573C181.142,345.713 182.189,340.241 182.189,334.156C182.189,326.53 180.945,319.536 178.456,313.175C176.954,312.503 175.255,312.168 173.359,312.168C167.511,312.168 161.07,314.479 154.037,319.102L154.334,314.36C158.522,310.607 163.323,307.505 168.736,305.055C174.544,302.408 180.056,300.986 185.271,300.788C188.946,304.818 190.783,310.745 190.783,318.568ZM156.408,349.388L145.206,354.129C143.823,349.151 143.132,343.007 143.132,335.697C143.132,323.251 145.681,311.713 150.778,301.084L153.741,303.455C151.923,309.421 151.015,316.297 151.015,324.08C151.015,333.682 152.812,342.118 156.408,349.388Z" style="fill:rgb(150,141,0);fill-rule:nonzero;"/>
                        <path d="M271.684,318.568C271.684,329.039 269.155,340.201 264.098,352.055L259.949,350.573C262.043,345.713 263.09,340.241 263.09,334.156C263.09,326.53 261.846,319.536 259.356,313.175C257.855,312.503 256.156,312.168 254.259,312.168C248.412,312.168 241.971,314.479 234.938,319.102L235.234,314.36C239.423,310.607 244.223,307.505 249.636,305.055C255.445,302.408 260.957,300.986 266.172,300.788C269.847,304.818 271.684,310.745 271.684,318.568ZM237.309,349.388L226.107,354.129C224.724,349.151 224.033,343.007 224.033,335.697C224.033,323.251 226.581,311.713 231.678,301.084L234.642,303.455C232.824,309.421 231.915,316.297 231.915,324.08C231.915,333.682 233.713,342.118 237.309,349.388Z" style="fill:rgb(150,141,0);fill-rule:nonzero;"/>
                        <path d="M352.585,318.568C352.585,329.039 350.056,340.201 344.998,352.055L340.85,350.573C342.944,345.713 343.991,340.241 343.991,334.156C343.991,326.53 342.746,319.536 340.257,313.175C338.756,312.503 337.057,312.168 335.16,312.168C329.312,312.168 322.872,314.479 315.839,319.102L316.135,314.36C320.323,310.607 325.124,307.505 330.537,305.055C336.345,302.408 341.857,300.986 347.073,300.788C350.747,304.818 352.585,310.745 352.585,318.568ZM318.209,349.388L307.008,354.129C305.625,349.151 304.933,343.007 304.933,335.697C304.933,323.251 307.482,311.713 312.579,301.084L315.542,303.455C313.725,309.421 312.816,316.297 312.816,324.08C312.816,333.682 314.614,342.118 318.209,349.388Z" style="fill:rgb(150,141,0);fill-rule:nonzero;"/>
                        <path d="M433.485,318.568C433.485,329.039 430.957,340.201 425.899,352.055L421.75,350.573C423.845,345.713 424.892,340.241 424.892,334.156C424.892,326.53 423.647,319.536 421.158,313.175C419.656,312.503 417.957,312.168 416.061,312.168C410.213,312.168 403.773,314.479 396.739,319.102L397.036,314.36C401.224,310.607 406.025,307.505 411.438,305.055C417.246,302.408 422.758,300.986 427.974,300.788C431.648,304.818 433.485,310.745 433.485,318.568ZM399.11,349.388L387.909,354.129C386.526,349.151 385.834,343.007 385.834,335.697C385.834,323.251 388.383,311.713 393.48,301.084L396.443,303.455C394.626,309.421 393.717,316.297 393.717,324.08C393.717,333.682 395.515,342.118 399.11,349.388Z" style="fill:rgb(150,141,0);fill-rule:nonzero;"/>
                        <path d="M514.386,318.568C514.386,329.039 511.857,340.201 506.8,352.055L502.651,350.573C504.745,345.713 505.792,340.241 505.792,334.156C505.792,326.53 504.548,319.536 502.058,313.175C500.557,312.503 498.858,312.168 496.961,312.168C491.114,312.168 484.673,314.479 477.64,319.102L477.936,314.36C482.125,310.607 486.925,307.505 492.339,305.055C498.147,302.408 503.659,300.986 508.874,300.788C512.549,304.818 514.386,310.745 514.386,318.568ZM480.011,349.388L468.809,354.129C467.426,349.151 466.735,343.007 466.735,335.697C466.735,323.251 469.283,311.713 474.38,301.084L477.344,303.455C475.526,309.421 474.617,316.297 474.617,324.08C474.617,333.682 476.415,342.118 480.011,349.388Z" style="fill:rgb(150,141,0);fill-rule:nonzero;"/>
                    </g>
                    <g>
                        <path d="M28.982,399.964C28.982,410.435 26.453,421.597 21.396,433.45L17.247,431.969C19.341,427.109 20.388,421.636 20.388,415.552C20.388,407.926 19.143,400.932 16.654,394.571C15.153,393.899 13.454,393.563 11.557,393.563C5.709,393.563 -0.731,395.875 -7.764,400.497L-7.468,395.756C-3.28,392.002 1.521,388.901 6.934,386.451C12.742,383.804 18.254,382.381 23.47,382.184C27.145,386.214 28.982,392.141 28.982,399.964ZM-5.393,430.783L-16.595,435.525C-17.978,430.546 -18.669,424.402 -18.669,417.092C-18.669,404.646 -16.121,393.109 -11.024,382.48L-8.061,384.851C-9.878,390.817 -10.787,397.692 -10.787,405.476C-10.787,415.077 -8.989,423.513 -5.393,430.783Z" style="fill:rgb(150,141,0);fill-rule:nonzero;"/>
                        <path d="M109.883,399.964C109.883,410.435 107.354,421.597 102.296,433.45L98.148,431.969C100.242,427.109 101.289,421.636 101.289,415.552C101.289,407.926 100.044,400.932 97.555,394.571C96.053,393.899 94.354,393.563 92.458,393.563C86.61,393.563 80.17,395.875 73.137,400.497L73.433,395.756C77.621,392.002 82.422,388.901 87.835,386.451C93.643,383.804 99.155,382.381 104.371,382.184C108.045,386.214 109.883,392.141 109.883,399.964ZM75.507,430.783L64.306,435.525C62.923,430.546 62.231,424.402 62.231,417.092C62.231,404.646 64.78,393.109 69.877,382.48L72.84,384.851C71.023,390.817 70.114,397.692 70.114,405.476C70.114,415.077 71.912,423.513 75.507,430.783Z" style="fill:rgb(150,141,0);fill-rule:nonzero;"/>
                        <path d="M190.783,399.964C190.783,410.435 188.255,421.597 183.197,433.45L179.048,431.969C181.142,427.109 182.189,421.636 182.189,415.552C182.189,407.926 180.945,400.932 178.456,394.571C176.954,393.899 175.255,393.563 173.359,393.563C167.511,393.563 161.07,395.875 154.037,400.497L154.334,395.756C158.522,392.002 163.323,388.901 168.736,386.451C174.544,383.804 180.056,382.381 185.271,382.184C188.946,386.214 190.783,392.141 190.783,399.964ZM156.408,430.783L145.206,435.525C143.823,430.546 143.132,424.402 143.132,417.092C143.132,404.646 145.681,393.109 150.778,382.48L153.741,384.851C151.923,390.817 151.015,397.692 151.015,405.476C151.015,415.077 152.812,423.513 156.408,430.783Z" style="fill:rgb(150,141,0);fill-rule:nonzero;"/>
                        <path d="M271.684,399.964C271.684,410.435 269.155,421.597 264.098,433.45L259.949,431.969C262.043,427.109 263.09,421.636 263.09,415.552C263.09,407.926 261.846,400.932 259.356,394.571C257.855,393.899 256.156,393.563 254.259,393.563C248.412,393.563 241.971,395.875 234.938,400.497L235.234,395.756C239.423,392.002 244.223,388.901 249.636,386.451C255.445,383.804 260.957,382.381 266.172,382.184C269.847,386.214 271.684,392.141 271.684,399.964ZM237.309,430.783L226.107,435.525C224.724,430.546 224.033,424.402 224.033,417.092C224.033,404.646 226.581,393.109 231.678,382.48L234.642,384.851C232.824,390.817 231.915,397.692 231.915,405.476C231.915,415.077 233.713,423.513 237.309,430.783Z" style="fill:rgb(150,141,0);fill-rule:nonzero;"/>
                        <path d="M352.585,399.964C352.585,410.435 350.056,421.597 344.998,433.45L340.85,431.969C342.944,427.109 343.991,421.636 343.991,415.552C343.991,407.926 342.746,400.932 340.257,394.571C338.756,393.899 337.057,393.563 335.16,393.563C329.312,393.563 322.872,395.875 315.839,400.497L316.135,395.756C320.323,392.002 325.124,388.901 330.537,386.451C336.345,383.804 341.857,382.381 347.073,382.184C350.747,386.214 352.585,392.141 352.585,399.964ZM318.209,430.783L307.008,435.525C305.625,430.546 304.933,424.402 304.933,417.092C304.933,404.646 307.482,393.109 312.579,382.48L315.542,384.851C313.725,390.817 312.816,397.692 312.816,405.476C312.816,415.077 314.614,423.513 318.209,430.783Z" style="fill:rgb(150,141,0);fill-rule:nonzero;"/>
                        <path d="M433.485,399.964C433.485,410.435 430.957,421.597 425.899,433.45L421.75,431.969C423.845,427.109 424.892,421.636 424.892,415.552C424.892,407.926 423.647,400.932 421.158,394.571C419.656,393.899 417.957,393.563 416.061,393.563C410.213,393.563 403.773,395.875 396.739,400.497L397.036,395.756C401.224,392.002 406.025,388.901 411.438,386.451C417.246,383.804 422.758,382.381 427.974,382.184C431.648,386.214 433.485,392.141 433.485,399.964ZM399.11,430.783L387.909,435.525C386.526,430.546 385.834,424.402 385.834,417.092C385.834,404.646 388.383,393.109 393.48,382.48L396.443,384.851C394.626,390.817 393.717,397.692 393.717,405.476C393.717,415.077 395.515,423.513 399.11,430.783Z" style="fill:rgb(150,141,0);fill-rule:nonzero;"/>
                        <path d="M514.386,399.964C514.386,410.435 511.857,421.597 506.8,433.45L502.651,431.969C504.745,427.109 505.792,421.636 505.792,415.552C505.792,407.926 504.548,400.932 502.058,394.571C500.557,393.899 498.858,393.563 496.961,393.563C491.114,393.563 484.673,395.875 477.64,400.497L477.936,395.756C482.125,392.002 486.925,388.901 492.339,386.451C498.147,383.804 503.659,382.381 508.874,382.184C512.549,386.214 514.386,392.141 514.386,399.964ZM480.011,430.783L468.809,435.525C467.426,430.546 466.735,424.402 466.735,417.092C466.735,404.646 469.283,393.109 474.38,382.48L477.344,384.851C475.526,390.817 474.617,397.692 474.617,405.476C474.617,415.077 476.415,423.513 480.011,430.783Z" style="fill:rgb(150,141,0);fill-rule:nonzero;"/>
                    </g>
                    <g>
                        <path d="M28.982,481.36C28.982,491.83 26.453,502.992 21.396,514.846L17.247,513.364C19.341,508.504 20.388,503.032 20.388,496.947C20.388,489.321 19.143,482.328 16.654,475.966C15.153,475.295 13.454,474.959 11.557,474.959C5.709,474.959 -0.731,477.27 -7.764,481.893L-7.468,477.152C-3.28,473.398 1.521,470.296 6.934,467.847C12.742,465.199 18.254,463.777 23.47,463.579C27.145,467.61 28.982,473.536 28.982,481.36ZM-5.393,512.179L-16.595,516.92C-17.978,511.942 -18.669,505.798 -18.669,498.488C-18.669,486.042 -16.121,474.504 -11.024,463.876L-8.061,466.246C-9.878,472.213 -10.787,479.088 -10.787,486.872C-10.787,496.473 -8.989,504.909 -5.393,512.179Z" style="fill:rgb(150,141,0);fill-rule:nonzero;"/>
                        <path d="M109.883,481.36C109.883,491.83 107.354,502.992 102.296,514.846L98.148,513.364C100.242,508.504 101.289,503.032 101.289,496.947C101.289,489.321 100.044,482.328 97.555,475.966C96.053,475.295 94.354,474.959 92.458,474.959C86.61,474.959 80.17,477.27 73.137,481.893L73.433,477.152C77.621,473.398 82.422,470.296 87.835,467.847C93.643,465.199 99.155,463.777 104.371,463.579C108.045,467.61 109.883,473.536 109.883,481.36ZM75.507,512.179L64.306,516.92C62.923,511.942 62.231,505.798 62.231,498.488C62.231,486.042 64.78,474.504 69.877,463.876L72.84,466.246C71.023,472.213 70.114,479.088 70.114,486.872C70.114,496.473 71.912,504.909 75.507,512.179Z" style="fill:rgb(150,141,0);fill-rule:nonzero;"/>
                        <path d="M190.783,481.36C190.783,491.83 188.255,502.992 183.197,514.846L179.048,513.364C181.142,508.504 182.189,503.032 182.189,496.947C182.189,489.321 180.945,482.328 178.456,475.966C176.954,475.295 175.255,474.959 173.359,474.959C167.511,474.959 161.07,477.27 154.037,481.893L154.334,477.152C158.522,473.398 163.323,470.296 168.736,467.847C174.544,465.199 180.056,463.777 185.271,463.579C188.946,467.61 190.783,473.536 190.783,481.36ZM156.408,512.179L145.206,516.92C143.823,511.942 143.132,505.798 143.132,498.488C143.132,486.042 145.681,474.504 150.778,463.876L153.741,466.246C151.923,472.213 151.015,479.088 151.015,486.872C151.015,496.473 152.812,504.909 156.408,512.179Z" style="fill:rgb(150,141,0);fill-rule:nonzero;"/>
                        <path d="M271.684,481.36C271.684,491.83 269.155,502.992 264.098,514.846L259.949,513.364C262.043,508.504 263.09,503.032 263.09,496.947C263.09,489.321 261.846,482.328 259.356,475.966C257.855,475.295 256.156,474.959 254.259,474.959C248.412,474.959 241.971,477.27 234.938,481.893L235.234,477.152C239.423,473.398 244.223,470.296 249.636,467.847C255.445,465.199 260.957,463.777 266.172,463.579C269.847,467.61 271.684,473.536 271.684,481.36ZM237.309,512.179L226.107,516.92C224.724,511.942 224.033,505.798 224.033,498.488C224.033,486.042 226.581,474.504 231.678,463.876L234.642,466.246C232.824,472.213 231.915,479.088 231.915,486.872C231.915,496.473 233.713,504.909 237.309,512.179Z" style="fill:rgb(150,141,0);fill-rule:nonzero;"/>
                        <path d="M352.585,481.36C352.585,491.83 350.056,502.992 344.998,514.846L340.85,513.364C342.944,508.504 343.991,503.032 343.991,496.947C343.991,489.321 342.746,482.328 340.257,475.966C338.756,475.295 337.057,474.959 335.16,474.959C329.312,474.959 322.872,477.27 315.839,481.893L316.135,477.152C320.323,473.398 325.124,470.296 330.537,467.847C336.345,465.199 341.857,463.777 347.073,463.579C350.747,467.61 352.585,473.536 352.585,481.36ZM318.209,512.179L307.008,516.92C305.625,511.942 304.933,505.798 304.933,498.488C304.933,486.042 307.482,474.504 312.579,463.876L315.542,466.246C313.725,472.213 312.816,479.088 312.816,486.872C312.816,496.473 314.614,504.909 318.209,512.179Z" style="fill:rgb(150,141,0);fill-rule:nonzero;"/>
                        <path d="M433.485,481.36C433.485,491.83 430.957,502.992 425.899,514.846L421.75,513.364C423.845,508.504 424.892,503.032 424.892,496.947C424.892,489.321 423.647,482.328 421.158,475.966C419.656,475.295 417.957,474.959 416.061,474.959C410.213,474.959 403.773,477.27 396.739,481.893L397.036,477.152C401.224,473.398 406.025,470.296 411.438,467.847C417.246,465.199 422.758,463.777 427.974,463.579C431.648,467.61 433.485,473.536 433.485,481.36ZM399.11,512.179L387.909,516.92C386.526,511.942 385.834,505.798 385.834,498.488C385.834,486.042 388.383,474.504 393.48,463.876L396.443,466.246C394.626,472.213 393.717,479.088 393.717,486.872C393.717,496.473 395.515,504.909 399.11,512.179Z" style="fill:rgb(150,141,0);fill-rule:nonzero;"/>
                        <path d="M514.386,481.36C514.386,491.83 511.857,502.992 506.8,514.846L502.651,513.364C504.745,508.504 505.792,503.032 505.792,496.947C505.792,489.321 504.548,482.328 502.058,475.966C500.557,475.295 498.858,474.959 496.961,474.959C491.114,474.959 484.673,477.27 477.64,481.893L477.936,477.152C482.125,473.398 486.925,470.296 492.339,467.847C498.147,465.199 503.659,463.777 508.874,463.579C512.549,467.61 514.386,473.536 514.386,481.36ZM480.011,512.179L468.809,516.92C467.426,511.942 466.735,505.798 466.735,498.488C466.735,486.042 469.283,474.504 474.38,463.876L477.344,466.246C475.526,472.213 474.617,479.088 474.617,486.872C474.617,496.473 476.415,504.909 480.011,512.179Z" style="fill:rgb(150,141,0);fill-rule:nonzero;"/>
                    </g>
                </g>
            </g>
        </g>
        <path d="M246.063,393.701C164.579,393.701 98.425,327.547 98.425,246.063C98.425,164.579 164.579,98.425 246.063,98.425C327.547,98.425 393.701,164.579 393.701,246.063C393.701,327.547 327.547,393.701 246.063,393.701ZM246.063,383.284C321.797,383.284 383.284,321.797 383.284,246.063C383.284,170.329 321.797,108.842 246.063,108.842C170.329,108.842 108.842,170.329 108.842,246.063C108.842,321.797 170.329,383.284 246.063,383.284Z" style="fill:rgb(27,25,0);"/>
    </g>
</svg>
